<svg width="20" height="20" viewBox="0 0 20 20" fill="none" xmlns="http://www.w3.org/2000/svg">
<g clip-path="url(#clip0_8933_11386)">
<path d="M7.99667 10.3518C7.8061 10.5493 7.66194 10.6983 7.48944 10.8772C7.59255 10.9666 7.7025 11.0506 7.79877 11.1484C8.03675 11.3893 8.04456 11.6444 7.81294 11.8804C7.36825 12.3334 6.92601 12.7903 6.46472 13.2262C5.88076 13.7769 4.99286 13.7505 4.42308 13.1817C3.09538 11.8569 1.77062 10.5292 0.443411 9.20397C-0.150804 8.61024 -0.147383 7.68863 0.451229 7.09686C0.860729 6.69224 1.26974 6.28763 1.67386 5.87764C1.98661 5.56001 2.21335 5.5561 2.52854 5.88155C2.60428 5.95974 2.67318 6.04476 2.72938 6.10878C3.86503 4.9741 4.98016 3.86044 6.13291 2.70866C6.04153 2.63194 5.92083 2.54594 5.81919 2.44136C5.59685 2.21267 5.59392 1.95856 5.81675 1.73231C6.26192 1.27981 6.70612 0.824866 7.16692 0.38849C7.74404 -0.158812 8.67445 -0.11581 9.23641 0.450062C10.5372 1.75968 11.841 3.06636 13.1521 4.36621C13.7961 5.0044 13.7947 5.92211 13.1369 6.55639C12.744 6.93511 12.3595 7.32311 11.9778 7.71257C11.6465 8.05073 11.4261 8.05903 11.1036 7.72234C11.0288 7.64416 10.9673 7.55327 10.8964 7.46384C10.8138 7.53763 10.7703 7.57721 10.7259 7.61582C10.614 7.71355 10.5016 7.81128 10.2973 7.98915C10.4351 8.07174 10.5392 8.11376 10.6184 8.18413C13.4673 10.7149 16.3142 13.2481 19.1616 15.7804C20.223 16.7245 20.287 18.3346 19.3004 19.3046C18.3089 20.2795 16.7213 20.1916 15.7762 19.1263C13.241 16.2681 10.698 13.4162 8.15891 10.5615C8.10711 10.5028 8.06313 10.4374 7.99814 10.3518H7.99667ZM8.68276 9.71902C8.79124 9.84216 8.90168 9.96824 9.01309 10.0933C9.91712 11.1078 10.8207 12.1228 11.7257 13.1367C13.3505 14.957 14.9728 16.7792 16.6045 18.5936C17.0404 19.0784 17.7348 19.1668 18.3226 18.8507C18.8655 18.5589 19.1338 17.931 19.015 17.3075C18.9188 16.8022 18.5445 16.5188 18.199 16.2104C15.8607 14.1233 13.5195 12.0392 11.1793 9.95456C10.6926 9.52111 10.204 9.08865 9.73045 8.6684C9.37568 9.02414 9.04193 9.35888 8.68276 9.71902ZM6.82975 3.47928C5.71315 4.59637 4.60047 5.70954 3.49755 6.81294C4.59705 7.91243 5.7112 9.0261 6.7887 10.1041C7.89845 8.99824 9.017 7.8836 10.1272 6.77678C9.0385 5.68804 7.93119 4.58073 6.82975 3.47928ZM2.12295 6.85839C1.76915 7.19361 1.40119 7.52395 1.05619 7.87676C0.88956 8.04731 0.913993 8.26036 1.06304 8.44459C1.15002 8.55209 1.25068 8.64934 1.34841 8.74707C2.44888 9.84803 3.54935 10.9485 4.6508 12.0485C4.8189 12.2166 4.987 12.3857 5.16292 12.5454C5.32857 12.696 5.54847 12.7419 5.70484 12.5899C6.07036 12.2347 6.40217 11.8447 6.74228 11.4748C5.21618 9.94967 3.66028 8.39474 2.12246 6.85741L2.12295 6.85839ZM6.88741 2.09686C8.42426 3.63321 9.98456 5.19302 11.5185 6.72596C11.861 6.40637 12.2334 6.08093 12.5745 5.72469C12.6566 5.63917 12.6849 5.4354 12.6448 5.31714C12.595 5.1681 12.4611 5.04007 12.3438 4.92231C11.1344 3.707 9.92054 2.49512 8.70768 1.28323C8.63047 1.20602 8.55277 1.12881 8.46824 1.0604C8.27375 0.903052 8.05531 0.878131 7.87549 1.05503C7.53049 1.39416 7.20748 1.75626 6.88692 2.09637L6.88741 2.09686Z" fill="#88CFE0"/>
<path d="M5.24394 19.9946C3.69585 19.9946 2.14728 19.9946 0.599197 19.9946C0.0719297 19.9946 -0.107898 19.7254 0.0641111 19.2235C0.288896 18.5677 0.50684 17.9095 0.716476 17.2488C0.91976 16.6082 1.46804 16.185 2.13604 16.1845C4.20015 16.1821 6.26476 16.1826 8.32887 16.1845C9.00176 16.185 9.55346 16.6018 9.75723 17.2381C9.97469 17.9173 10.199 18.5941 10.4262 19.2699C10.5762 19.7151 10.3866 19.9946 9.918 19.9951C8.35965 19.9966 6.8018 19.9956 5.24345 19.9956L5.24394 19.9946ZM1.13722 19.0271H9.34089C9.15031 18.4715 8.98905 17.931 8.77111 17.4145C8.71589 17.283 8.48182 17.1491 8.32887 17.1477C6.2672 17.1301 4.20553 17.1301 2.14386 17.1477C1.9914 17.1491 1.75879 17.285 1.70358 17.4174C1.48661 17.9344 1.32584 18.4744 1.13722 19.0271Z" fill="#88CFE0"/>
</g>
<defs>
<clipPath id="clip0_8933_11386">
<rect width="20" height="19.9946" fill="white"/>
</clipPath>
</defs>
</svg>
