<svg width="20" height="23" viewBox="0 0 20 23" fill="none" xmlns="http://www.w3.org/2000/svg">
<g clip-path="url(#clip0_8933_11346)">
<path d="M8.67734 22.5731C8.32709 22.5466 7.97683 22.5172 7.62598 22.4936C5.17006 22.327 2.76712 21.8867 0.429514 21.1067C0.0763135 20.989 -0.0184621 20.863 0.00155261 20.4933C0.0886755 18.8768 0.578447 17.4028 1.56093 16.103C1.69221 15.9294 1.84997 15.8293 2.06954 15.8787C2.25085 15.92 2.38448 16.0442 2.39155 16.2249C2.39625 16.3591 2.3521 16.521 2.27205 16.6275C1.60096 17.5276 1.1783 18.5289 0.986983 19.6333C0.866895 20.3244 0.859242 20.3261 1.52326 20.518C1.95829 20.644 2.39625 20.76 2.86189 20.8889C2.86189 20.3244 2.86189 19.7969 2.86189 19.2701C2.86189 18.8715 3.01259 18.6602 3.29927 18.6543C3.59537 18.6484 3.74784 18.8603 3.74784 19.2765C3.74784 19.8705 3.74784 20.4651 3.74784 21.0743C5.19714 21.3775 6.65056 21.5517 8.15932 21.6371C8.08161 21.4205 8.02745 21.2186 7.93798 21.0343C7.74901 20.6446 7.75843 20.2567 7.8432 19.8393C8.14519 18.3517 8.42539 16.8595 8.70619 15.3678C8.72797 15.2524 8.71325 15.1176 8.67499 15.0058C8.49545 14.4871 8.30177 13.9732 8.10045 13.4234C7.6925 13.5164 7.28455 13.5765 6.89839 13.7048C6.27381 13.9126 5.66513 14.1669 5.04762 14.3971C4.92635 14.4424 4.79567 14.5013 4.67322 14.4936C4.47366 14.4807 4.34239 14.35 4.29883 14.1463C4.25586 13.9456 4.33415 13.7513 4.5496 13.6601C5.15593 13.4034 5.76991 13.1626 6.3833 12.9236C6.54519 12.8606 6.71826 12.8247 6.92488 12.7647C6.83658 12.7041 6.773 12.6611 6.70943 12.6175C5.52267 11.8028 4.67322 10.7491 4.34887 9.31627C4.33356 9.24917 4.25409 9.17146 4.18639 9.14556C3.08088 8.72054 2.54224 7.39074 3.04261 6.31995C3.15799 6.07271 3.32753 5.94262 3.6095 5.95969C3.81377 5.97205 4.0198 5.96204 4.25939 5.96204C4.25939 5.72599 4.26233 5.5017 4.25939 5.27683C4.24762 4.47036 4.40538 3.70038 4.77506 2.98162C5.44614 1.67713 6.52753 0.852403 7.89206 0.388532C9.58389 -0.186597 11.2604 -0.147744 12.874 0.660497C14.4781 1.46403 15.354 2.8109 15.6336 4.55866C15.706 5.01193 15.7178 5.47521 15.759 5.96087C15.968 5.96087 16.1935 5.96911 16.4183 5.95851C16.6815 5.94674 16.8433 6.06977 16.9528 6.29935C17.4544 7.3513 16.901 8.72231 15.802 9.12378C15.6666 9.17323 15.6142 9.23798 15.5807 9.37808C15.2481 10.7673 14.4269 11.8122 13.2678 12.6134C13.2089 12.654 13.1512 12.6952 13.0735 12.75C13.4974 12.8883 13.9024 13.0037 14.2956 13.1514C15.8991 13.7531 17.2972 14.6514 18.3639 16.0171C19.4058 17.3516 19.9156 18.8798 19.9974 20.5598C20.0116 20.8489 19.9109 20.9854 19.6289 21.0826C18.0919 21.6124 16.5184 21.9997 14.9084 22.2122C13.7817 22.3612 12.6456 22.4336 11.5135 22.5413C11.4488 22.5478 11.3846 22.5631 11.3199 22.5743H8.67617L8.67734 22.5731ZM6.93783 5.58942C6.78536 5.96028 6.58522 6.29523 6.23673 6.4783C5.90001 6.65608 5.5315 6.77323 5.14828 6.92805C5.14828 7.39898 5.12826 7.92054 5.15534 8.43975C5.173 8.78059 5.2201 9.12967 5.31958 9.45461C6.0201 11.7398 9.03467 13.5882 11.8526 12.3679C13.246 11.7645 14.2838 10.7962 14.6759 9.28625C14.806 8.7853 14.7742 8.24019 14.803 7.71451C14.8183 7.43195 14.806 7.14762 14.806 6.84681C14.7112 6.84681 14.6464 6.84681 14.5817 6.84681C13.2678 6.84446 11.9527 6.86565 10.6394 6.83327C9.34313 6.80148 8.1393 6.43886 7.07676 5.66771C7.03673 5.63886 6.99081 5.61826 6.93783 5.58824V5.58942ZM11.8979 13.4193C11.6966 13.9703 11.5024 14.4836 11.324 15.0028C11.2834 15.1205 11.2716 15.2636 11.2946 15.386C11.5942 16.9854 11.9068 18.5825 12.2017 20.1825C12.2341 20.3585 12.2035 20.5587 12.1546 20.7347C12.0722 21.0337 11.9527 21.3222 11.8408 21.6371C13.2872 21.5588 14.6871 21.391 16.0857 21.1091C16.0857 21.0113 16.0857 20.9313 16.0857 20.8518C16.0857 20.2867 16.0828 19.7216 16.0875 19.1565C16.0899 18.8615 16.2794 18.6578 16.5343 18.659C16.7927 18.6596 16.9699 18.8562 16.9729 19.1594C16.977 19.6074 16.974 20.0548 16.974 20.5027C16.974 20.6317 16.974 20.7606 16.974 20.9366C17.7028 20.7329 18.391 20.5404 19.0862 20.3461C19.0803 20.2361 19.0803 20.156 19.0715 20.0765C18.9031 18.5578 18.3356 17.2156 17.2843 16.0954C16.1517 14.8886 14.74 14.1581 13.1653 13.7172C12.7515 13.6012 12.3283 13.52 11.8985 13.4205L11.8979 13.4193ZM5.16888 5.94321C5.80052 5.86903 6.1343 5.5176 6.16962 4.89184C6.17256 4.84063 6.17315 4.78883 6.1755 4.73761C6.18492 4.53099 6.26086 4.36675 6.46572 4.28669C6.66174 4.21017 6.82657 4.27256 6.96726 4.41208C8.06807 5.50406 9.42495 5.94556 10.9425 5.9591C12.1764 5.97028 13.4102 5.96263 14.6435 5.96263C14.7006 5.96263 14.7577 5.95616 14.8654 5.94909C14.8289 5.51642 14.8207 5.0914 14.7524 4.6758C14.4798 3.024 13.588 1.85255 12.0074 1.24504C11.0373 0.871829 10.0354 0.812373 9.01818 1.0031C8.16167 1.16381 7.37403 1.48875 6.68588 2.03209C5.41789 3.03224 5.01877 4.37382 5.16829 5.94321H5.16888ZM9.58154 15.5985C9.57094 15.6327 9.56035 15.6592 9.55505 15.6868C9.26307 17.2056 8.96991 18.7238 8.68205 20.2431C8.66616 20.3255 8.67205 20.4215 8.69854 20.5004C8.81568 20.8471 8.94813 21.1891 9.06586 21.5358C9.10236 21.6424 9.1524 21.686 9.26837 21.6842C9.75284 21.6783 10.2367 21.6765 10.7212 21.6848C10.8519 21.6871 10.8978 21.6306 10.9349 21.5205C11.0385 21.2156 11.1651 20.9177 11.2563 20.6093C11.2999 20.4621 11.3158 20.2926 11.2904 20.1419C11.1939 19.5638 11.0762 18.9893 10.9661 18.4136C10.7871 17.4787 10.607 16.5434 10.4257 15.5991H9.58036L9.58154 15.5985ZM9.11943 13.6141C9.16005 13.7266 9.20008 13.8496 9.24894 13.9697C9.34666 14.2105 9.38669 14.5448 9.56682 14.6631C9.75284 14.785 10.0772 14.6949 10.3409 14.6979C10.3556 14.6979 10.3733 14.7032 10.3845 14.6967C10.4298 14.669 10.4981 14.6478 10.514 14.6072C10.6417 14.2758 10.7601 13.9403 10.8778 13.6153H9.12002L9.11943 13.6141ZM15.7066 6.86035V8.15307C16.1187 7.93879 16.3518 7.30597 16.1905 6.86035H15.7066ZM3.81377 6.85741C3.64717 7.3201 3.8591 7.95174 4.24114 8.13894V6.85741H3.81377Z" fill="#88CFE0"/>
<path d="M2.72624 15.0729C2.73036 14.825 2.93227 14.6325 3.18305 14.6378C3.42499 14.6425 3.6116 14.8333 3.61219 15.0752C3.61277 15.3225 3.41204 15.5232 3.16539 15.5226C2.91344 15.522 2.72153 15.3254 2.72565 15.0723L2.72624 15.0729Z" fill="#88CFE0"/>
</g>
<defs>
<clipPath id="clip0_8933_11346">
<rect width="20" height="22.5731" fill="white"/>
</clipPath>
</defs>
</svg>
