<svg width="16" height="16" viewBox="0 0 16 16" fill="none" xmlns="http://www.w3.org/2000/svg">
<path d="M16 3.42853C16 2.82232 15.7592 2.24094 15.3305 1.81228C14.9019 1.38363 14.3205 1.14281 13.7143 1.14281H13.1429V0.58745C13.1429 0.279949 12.9064 0.0160193 12.5989 0.000662138C12.5217 -0.00306045 12.4445 0.0089422 12.372 0.0359429C12.2995 0.0629436 12.2332 0.10438 12.1772 0.157742C12.1212 0.211103 12.0766 0.275279 12.0462 0.346379C12.0157 0.41748 12 0.494026 12 0.571378V1.14281H4V0.58745C4 0.279949 3.76357 0.0160193 3.45607 0.000662138C3.37881 -0.00306045 3.3016 0.0089422 3.22911 0.0359429C3.15662 0.0629436 3.09037 0.10438 3.03437 0.157742C2.97837 0.211103 2.93379 0.275279 2.90333 0.346379C2.87286 0.41748 2.85715 0.494026 2.85714 0.571378V1.14281H2.28571C1.67951 1.14281 1.09812 1.38363 0.66947 1.81228C0.240816 2.24094 0 2.82232 0 3.42853V3.8571C0 3.89499 0.015051 3.93133 0.0418419 3.95812C0.0686328 3.98491 0.104969 3.99996 0.142857 3.99996H15.8571C15.895 3.99996 15.9314 3.98491 15.9582 3.95812C15.985 3.93133 16 3.89499 16 3.8571V3.42853ZM0 13.7143C0 14.3205 0.240816 14.9019 0.66947 15.3305C1.09812 15.7592 1.67951 16 2.28571 16H13.7143C14.3205 16 14.9019 15.7592 15.3305 15.3305C15.7592 14.9019 16 14.3205 16 13.7143V5.24996C16 5.22155 15.9887 5.1943 15.9686 5.1742C15.9485 5.15411 15.9213 5.14282 15.8929 5.14282H0.107143C0.0787268 5.14282 0.0514747 5.15411 0.0313815 5.1742C0.0112883 5.1943 0 5.22155 0 5.24996V13.7143ZM12.2857 6.28568C12.4552 6.28568 12.621 6.33595 12.7619 6.43014C12.9029 6.52432 13.0127 6.65819 13.0776 6.81481C13.1425 6.97144 13.1595 7.14378 13.1264 7.31005C13.0933 7.47632 13.0117 7.62905 12.8918 7.74892C12.7719 7.8688 12.6192 7.95043 12.4529 7.9835C12.2867 8.01658 12.1143 7.9996 11.9577 7.93473C11.8011 7.86985 11.6672 7.75999 11.573 7.61903C11.4788 7.47808 11.4286 7.31236 11.4286 7.14283C11.4286 6.9155 11.5189 6.69748 11.6796 6.53673C11.8404 6.37599 12.0584 6.28568 12.2857 6.28568ZM12.2857 9.14283C12.4552 9.14283 12.621 9.19311 12.7619 9.28729C12.9029 9.38147 13.0127 9.51534 13.0776 9.67197C13.1425 9.82859 13.1595 10.0009 13.1264 10.1672C13.0933 10.3335 13.0117 10.4862 12.8918 10.6061C12.7719 10.7259 12.6192 10.8076 12.4529 10.8407C12.2867 10.8737 12.1143 10.8568 11.9577 10.7919C11.8011 10.727 11.6672 10.6171 11.573 10.4762C11.4788 10.3352 11.4286 10.1695 11.4286 9.99998C11.4286 9.77265 11.5189 9.55463 11.6796 9.39389C11.8404 9.23314 12.0584 9.14283 12.2857 9.14283ZM9.42857 6.28568C9.5981 6.28568 9.76382 6.33595 9.90477 6.43014C10.0457 6.52432 10.1556 6.65819 10.2205 6.81481C10.2853 6.97144 10.3023 7.14378 10.2692 7.31005C10.2362 7.47632 10.1545 7.62905 10.0347 7.74892C9.91479 7.8688 9.76206 7.95043 9.59579 7.9835C9.42952 8.01658 9.25718 7.9996 9.10056 7.93473C8.94394 7.86985 8.81007 7.75999 8.71588 7.61903C8.6217 7.47808 8.57143 7.31236 8.57143 7.14283C8.57143 6.9155 8.66174 6.69748 8.82248 6.53673C8.98323 6.37599 9.20124 6.28568 9.42857 6.28568ZM9.42857 9.14283C9.5981 9.14283 9.76382 9.19311 9.90477 9.28729C10.0457 9.38147 10.1556 9.51534 10.2205 9.67197C10.2853 9.82859 10.3023 10.0009 10.2692 10.1672C10.2362 10.3335 10.1545 10.4862 10.0347 10.6061C9.91479 10.7259 9.76206 10.8076 9.59579 10.8407C9.42952 10.8737 9.25718 10.8568 9.10056 10.7919C8.94394 10.727 8.81007 10.6171 8.71588 10.4762C8.6217 10.3352 8.57143 10.1695 8.57143 9.99998C8.57143 9.77265 8.66174 9.55463 8.82248 9.39389C8.98323 9.23314 9.20124 9.14283 9.42857 9.14283ZM9.42857 12C9.5981 12 9.76382 12.0503 9.90477 12.1444C10.0457 12.2386 10.1556 12.3725 10.2205 12.5291C10.2853 12.6857 10.3023 12.8581 10.2692 13.0244C10.2362 13.1906 10.1545 13.3434 10.0347 13.4632C9.91479 13.5831 9.76206 13.6647 9.59579 13.6978C9.42952 13.7309 9.25718 13.7139 9.10056 13.649C8.94394 13.5842 8.81007 13.4743 8.71588 13.3333C8.6217 13.1924 8.57143 13.0267 8.57143 12.8571C8.57143 12.6298 8.66174 12.4118 8.82248 12.251C8.98323 12.0903 9.20124 12 9.42857 12ZM6.57143 9.14283C6.74096 9.14283 6.90668 9.19311 7.04763 9.28729C7.18859 9.38147 7.29845 9.51534 7.36333 9.67197C7.4282 9.82859 7.44518 10.0009 7.4121 10.1672C7.37903 10.3335 7.29739 10.4862 7.17752 10.6061C7.05765 10.7259 6.90492 10.8076 6.73865 10.8407C6.57238 10.8737 6.40004 10.8568 6.24341 10.7919C6.08679 10.727 5.95292 10.6171 5.85874 10.4762C5.76456 10.3352 5.71429 10.1695 5.71429 9.99998C5.71429 9.77265 5.80459 9.55463 5.96534 9.39389C6.12608 9.23314 6.3441 9.14283 6.57143 9.14283ZM6.57143 12C6.74096 12 6.90668 12.0503 7.04763 12.1444C7.18859 12.2386 7.29845 12.3725 7.36333 12.5291C7.4282 12.6857 7.44518 12.8581 7.4121 13.0244C7.37903 13.1906 7.29739 13.3434 7.17752 13.4632C7.05765 13.5831 6.90492 13.6647 6.73865 13.6978C6.57238 13.7309 6.40004 13.7139 6.24341 13.649C6.08679 13.5842 5.95292 13.4743 5.85874 13.3333C5.76456 13.1924 5.71429 13.0267 5.71429 12.8571C5.71429 12.6298 5.80459 12.4118 5.96534 12.251C6.12608 12.0903 6.3441 12 6.57143 12ZM3.71429 9.14283C3.88381 9.14283 4.04953 9.19311 4.19049 9.28729C4.33145 9.38147 4.44131 9.51534 4.50618 9.67197C4.57106 9.82859 4.58803 10.0009 4.55496 10.1672C4.52189 10.3335 4.44025 10.4862 4.32038 10.6061C4.2005 10.7259 4.04778 10.8076 3.88151 10.8407C3.71524 10.8737 3.54289 10.8568 3.38627 10.7919C3.22965 10.727 3.09578 10.6171 3.0016 10.4762C2.90741 10.3352 2.85714 10.1695 2.85714 9.99998C2.85714 9.77265 2.94745 9.55463 3.10819 9.39389C3.26894 9.23314 3.48696 9.14283 3.71429 9.14283ZM3.71429 12C3.88381 12 4.04953 12.0503 4.19049 12.1444C4.33145 12.2386 4.44131 12.3725 4.50618 12.5291C4.57106 12.6857 4.58803 12.8581 4.55496 13.0244C4.52189 13.1906 4.44025 13.3434 4.32038 13.4632C4.2005 13.5831 4.04778 13.6647 3.88151 13.6978C3.71524 13.7309 3.54289 13.7139 3.38627 13.649C3.22965 13.5842 3.09578 13.4743 3.0016 13.3333C2.90741 13.1924 2.85714 13.0267 2.85714 12.8571C2.85714 12.6298 2.94745 12.4118 3.10819 12.251C3.26894 12.0903 3.48696 12 3.71429 12Z" fill="#009C8A"/>
</svg>
