<svg width="20" height="23" viewBox="0 0 20 23" fill="none" xmlns="http://www.w3.org/2000/svg">
<g clip-path="url(#clip0_8933_11353)">
<path d="M3.99895 16.5656C3.37371 15.5934 3.44358 14.663 4.18228 14.0247C4.84575 13.4514 5.8275 13.4466 6.50052 14.0127C7.24818 14.6421 7.32163 15.5702 6.70774 16.5501C6.92332 16.6916 7.1383 16.8326 7.37717 16.989C7.63217 16.5842 7.99585 16.2832 8.51121 16.1428C8.08184 15.5791 7.91642 14.9724 8.1117 14.294C8.24009 13.8473 8.49986 13.4932 8.87787 13.2274C9.63688 12.6942 10.6628 12.7724 11.3454 13.4114C12.0895 14.1083 12.1462 15.0667 11.4959 16.1422C11.9808 16.282 12.3594 16.5638 12.6132 16.9926C12.8431 16.8403 13.0587 16.6982 13.2916 16.5447C12.9202 16.0754 12.7589 15.5313 12.9208 14.9204C13.0294 14.5102 13.2593 14.1787 13.6039 13.9297C14.2978 13.4287 15.2402 13.4884 15.8648 14.0712C16.5599 14.7198 16.6083 15.5916 16.0099 16.5465C16.1933 16.6701 16.3915 16.7764 16.5558 16.921C16.9505 17.2679 17.1488 17.7164 17.1505 18.2437C17.1541 19.2792 17.1523 20.3147 17.1511 21.3502C17.1511 21.6984 17.0305 21.8166 16.6788 21.8166C15.4946 21.8172 14.3098 21.8166 13.1256 21.8166C13.0438 21.8166 12.9626 21.8166 12.8855 21.8166C12.7535 22.1325 12.6926 22.1743 12.3648 22.1743C10.793 22.1743 9.22125 22.1707 7.64948 22.1779C7.37956 22.1791 7.17951 22.1152 7.12158 21.8172C5.87528 21.8172 4.63912 21.8172 3.40297 21.8172C2.9318 21.8172 2.84461 21.7294 2.84461 21.2576C2.84461 20.3189 2.85894 19.3801 2.84043 18.442C2.82311 17.5641 3.18858 16.9413 3.99895 16.5656ZM10.4819 16.82C10.5076 16.9198 10.5273 17.0058 10.5512 17.0906C10.7118 17.6555 10.8826 18.218 11.0265 18.7877C11.0588 18.9149 11.0349 19.0893 10.9686 19.2028C10.7745 19.5366 10.55 19.8537 10.3308 20.1726C10.1331 20.461 9.86381 20.461 9.66615 20.1738C9.47206 19.8919 9.29649 19.5963 9.09166 19.3222C8.93281 19.1102 8.91191 18.909 8.99134 18.657C9.18064 18.0556 9.34128 17.4453 9.52223 16.8099C9.34367 16.8099 9.1896 16.8099 9.03612 16.8099C8.29145 16.8111 7.85372 17.2458 7.85312 17.9869C7.85252 19.0672 7.85312 20.1475 7.85312 21.2278C7.85312 21.3 7.85969 21.3717 7.86327 21.4446H12.1408C12.1408 20.2156 12.1534 19.0015 12.1349 17.7887C12.1277 17.3008 11.7222 16.8887 11.2301 16.826C10.9907 16.7956 10.744 16.8206 10.4831 16.8206L10.4819 16.82ZM4.84575 17.1819C4.06285 17.1204 3.56182 17.5725 3.56003 18.316C3.55824 19.0385 3.56003 19.7605 3.56003 20.4831C3.56003 20.6826 3.56003 20.8814 3.56003 21.0892H7.12994C7.12994 20.0878 7.15861 19.0977 7.11979 18.1105C7.09531 17.4901 6.44856 17.0577 5.85796 17.204C6.03174 17.7266 6.21626 18.2443 6.36974 18.7716C6.40796 18.9024 6.38407 19.0875 6.31659 19.2064C6.12489 19.5414 5.89857 19.8573 5.6794 20.1762C5.48174 20.4628 5.2142 20.4604 5.01534 20.1714C4.8129 19.877 4.62479 19.5724 4.41638 19.2828C4.28141 19.0953 4.25872 18.9185 4.33755 18.6993C4.5167 18.2037 4.67436 17.7009 4.84634 17.1831L4.84575 17.1819ZM15.1506 17.1879C15.3232 17.7051 15.4898 18.2204 15.669 18.7316C15.737 18.9257 15.7149 19.0863 15.5955 19.2541C15.3847 19.5515 15.1918 19.8615 14.9864 20.163C14.7815 20.4634 14.514 20.464 14.3092 20.1648C14.1157 19.8824 13.9383 19.5885 13.7353 19.3132C13.5836 19.1078 13.5538 18.9155 13.6445 18.6707C13.8255 18.184 13.976 17.6865 14.1402 17.1909C13.4319 17.0864 12.8646 17.5611 12.8598 18.2562C12.8539 19.0905 12.858 19.9242 12.858 20.7584C12.858 20.8677 12.858 20.9764 12.858 21.0869H16.4345C16.4345 20.1344 16.4387 19.1968 16.4333 18.2592C16.4292 17.5623 15.8738 17.0959 15.1506 17.1879ZM8.7459 14.8398C8.7447 15.5278 9.30724 16.0927 9.99459 16.0933C10.6825 16.0945 11.2469 15.5319 11.2481 14.844C11.2487 14.1554 10.6873 13.5917 9.99937 13.5905C9.31083 13.5893 8.74769 14.1507 8.7465 14.8392L8.7459 14.8398ZM6.4199 15.3719C6.41691 14.7879 5.93619 14.3083 5.35215 14.3059C4.75856 14.3035 4.27246 14.7908 4.27544 15.3844C4.27843 15.9679 4.75915 16.448 5.3426 16.4504C5.93559 16.4528 6.42289 15.9643 6.4199 15.3713V15.3719ZM14.6424 16.451C15.2264 16.4528 15.7119 15.9756 15.7185 15.3934C15.7257 14.7992 15.2426 14.3077 14.6502 14.3059C14.0655 14.3041 13.5812 14.7801 13.5741 15.3629C13.5669 15.9571 14.0494 16.4486 14.6424 16.4504V16.451ZM10.0239 17.8549L9.9725 17.8436C9.90382 18.0849 9.86441 18.3398 9.7599 18.5644C9.59448 18.9209 9.81604 19.121 10.0053 19.3676C10.0728 19.2673 10.1361 19.1926 10.1779 19.1072C10.2269 19.0069 10.3057 18.8869 10.286 18.7937C10.2191 18.4766 10.114 18.1673 10.0239 17.8549ZM5.37365 18.0251C5.35693 18.0251 5.33961 18.0251 5.32289 18.0251C5.26377 18.1983 5.22913 18.3846 5.14135 18.5417C4.94607 18.891 5.14792 19.1138 5.35514 19.3664C5.42919 19.2583 5.49906 19.1717 5.55041 19.075C5.59221 18.9961 5.65253 18.894 5.63342 18.8212C5.56295 18.5518 5.46263 18.2897 5.37365 18.0251ZM14.6711 18.0227C14.6544 18.0245 14.637 18.0263 14.6203 18.0281C14.5564 18.2168 14.4913 18.4049 14.428 18.5942C14.3181 18.9239 14.3767 19.1066 14.6699 19.3461C14.7242 19.2661 14.7845 19.1902 14.8293 19.106C14.8759 19.0194 14.9553 18.9125 14.9362 18.8355C14.8669 18.5596 14.7624 18.2933 14.6711 18.0233V18.0227Z" fill="#88CFE0"/>
<path d="M9.63953 10.0134C9.63953 9.32429 9.63953 8.66919 9.63953 8.01409C9.63953 6.82213 9.63774 5.63016 9.64192 4.4382C9.64192 4.30205 9.61027 4.22501 9.48367 4.13961C9.31168 4.02257 9.18747 3.83744 9.03758 3.68696C8.9922 3.64097 8.93009 3.58066 8.87455 3.57946C8.38367 3.5711 7.8922 3.57469 7.36071 3.57469C7.48313 3.82132 7.59301 4.04407 7.70409 4.26681C7.78351 4.42686 7.86413 4.5863 7.94236 4.74635C8.01343 4.89265 8.06956 5.02105 8.28633 5.02523C8.49355 5.02881 8.58373 5.22946 8.56163 5.50834C8.50191 6.26496 7.93758 6.92544 7.20306 7.09981C6.45121 7.27837 5.65339 6.97441 5.27538 6.30796C5.1231 6.03983 5.05562 5.71317 5.00008 5.40443C4.95828 5.17153 5.10996 5.04672 5.34823 5.00074C5.42527 4.98581 5.52022 4.92132 5.55545 4.85264C5.83612 4.3116 6.1168 3.76877 6.37239 3.21578C6.49361 2.95362 6.67277 2.85449 6.94806 2.85748C7.56614 2.86465 8.18422 2.85748 8.80289 2.86166C8.92472 2.86226 8.99936 2.83956 9.06386 2.71655C9.13432 2.58278 9.2454 2.46095 9.36364 2.36362C9.62281 2.15162 9.62938 2.15938 9.6473 1.80406H10.3281C10.3323 1.81003 10.349 1.82257 10.3478 1.83273C10.3131 2.08473 10.3932 2.25612 10.6374 2.37616C10.7598 2.43587 10.859 2.5786 10.9253 2.70639C10.9921 2.83598 11.0698 2.86405 11.2023 2.86226C11.8055 2.85569 12.4092 2.86584 13.0124 2.85688C13.302 2.8527 13.4979 2.93989 13.6269 3.22594C13.8753 3.77474 14.1566 4.30802 14.4325 4.84428C14.4671 4.91117 14.5441 4.98701 14.6128 5.00014C14.9198 5.05867 15.0183 5.17153 14.9998 5.48565C14.9484 6.35334 14.2282 7.0813 13.3552 7.14759C12.4767 7.21447 11.6568 6.61192 11.4747 5.76095C11.4484 5.63793 11.4317 5.51073 11.4311 5.38532C11.4293 5.16914 11.5517 5.02045 11.7637 5.01448C11.904 5.0103 11.9566 4.9452 12.0085 4.83771C12.2092 4.42506 12.4158 4.0154 12.6344 3.57648C12.0951 3.57648 11.5905 3.57409 11.0865 3.58066C11.0441 3.58066 10.9987 3.63918 10.9611 3.6768C10.7951 3.84162 10.6291 4.00644 10.469 4.17664C10.4206 4.22859 10.3591 4.29846 10.3591 4.36057C10.3538 6.2154 10.355 8.07022 10.3555 9.92505C10.3555 9.94595 10.3633 9.96745 10.3723 10.014C10.6876 10.014 11.0053 10.0134 11.323 10.014C11.6257 10.0152 11.7189 10.0857 11.7941 10.3771C11.9028 10.8023 12.0103 11.2275 12.1142 11.6539C12.1889 11.9602 12.0438 12.1573 11.7338 12.1585C10.5717 12.1621 9.41022 12.1621 8.24812 12.1585C7.95132 12.1573 7.80441 11.9572 7.87548 11.6652C7.98237 11.2245 8.09345 10.7844 8.20631 10.3455C8.27081 10.0958 8.37531 10.017 8.63568 10.0146C8.96174 10.0122 9.2878 10.0146 9.63894 10.0146L9.63953 10.0134ZM11.1492 10.7372H8.84469C8.78796 10.9695 8.73242 11.1964 8.6739 11.4341H11.3104C11.3045 11.3869 11.3027 11.3493 11.2943 11.3141C11.2483 11.1266 11.2006 10.9391 11.1498 10.7372H11.1492ZM5.80388 5.73228C5.9048 6.13597 6.327 6.43635 6.77906 6.43635C7.23232 6.43635 7.65273 6.13597 7.75246 5.73228H5.80328H5.80388ZM12.2277 5.72989C12.4003 6.20704 12.8667 6.49069 13.3444 6.43038C13.7594 6.37843 14.144 6.05535 14.1787 5.72989H12.2277ZM7.26636 4.99537C7.10393 4.66991 6.95165 4.36535 6.77787 4.01779C6.6023 4.37251 6.45121 4.67707 6.29356 4.99537H7.26636ZM13.2166 4.01839C13.0416 4.37132 12.89 4.67648 12.7353 4.9882H13.7009C13.5409 4.66752 13.3928 4.37072 13.2166 4.01839ZM10.0008 3.57349C10.1943 3.5711 10.3549 3.40688 10.3532 3.21399C10.3508 3.01991 10.1871 2.85987 9.99366 2.86166C9.79958 2.86405 9.63953 3.02708 9.64133 3.22116C9.64371 3.41524 9.80734 3.57588 10.0008 3.57349Z" fill="#88CFE0"/>
<path d="M9.64302 0.71243C9.39818 0.732137 9.19156 0.748858 8.95568 0.76737C8.92761 0.530292 8.90073 0.306351 8.87207 0.0615091C9.1193 0.0406079 9.34623 0.0214983 9.60421 0C9.61735 0.24305 9.62989 0.468185 9.64302 0.71243Z" fill="#88CFE0"/>
<path d="M0.977339 12.2976C1.04422 12.5317 1.10215 12.7354 1.16605 12.9599C0.940911 13.0346 0.7319 13.1032 0.496613 13.1815C0.424951 12.945 0.357471 12.7228 0.282227 12.4744C0.517514 12.4147 0.73608 12.3591 0.977339 12.2976Z" fill="#88CFE0"/>
<path d="M7.41309 0.330833C7.67405 0.273504 7.8962 0.224535 8.13627 0.171387C8.18046 0.415034 8.22106 0.637183 8.26346 0.871276C8.03057 0.923828 7.82275 0.970407 7.59702 1.02117C7.5367 0.794241 7.47818 0.57448 7.41309 0.330833Z" fill="#88CFE0"/>
<path d="M11.8298 0.162432C12.08 0.218566 12.3027 0.268132 12.5506 0.323669C12.4897 0.557165 12.4329 0.775731 12.3708 1.01162C12.1415 0.960855 11.9283 0.913678 11.7002 0.863516C11.7426 0.631812 11.7826 0.413843 11.8292 0.161835L11.8298 0.162432Z" fill="#88CFE0"/>
<path d="M13.6744 1.46308C13.4474 1.3747 13.2539 1.30005 13.0342 1.21406C13.1088 0.997282 13.1817 0.783493 13.2647 0.542831C13.497 0.631213 13.7144 0.714221 13.9586 0.80738C13.8601 1.03431 13.7705 1.24153 13.6744 1.46308Z" fill="#88CFE0"/>
<path d="M0.344727 7.32376C0.422359 7.0813 0.491632 6.86393 0.569862 6.62029C0.7944 6.69971 1.0058 6.77495 1.2387 6.85796C1.17062 7.07593 1.10613 7.28375 1.03446 7.51366C0.808732 7.45155 0.59136 7.39184 0.344727 7.32376Z" fill="#88CFE0"/>
<path d="M1.80487 5.60031C1.69857 5.8153 1.60482 6.0058 1.49972 6.21779C1.28712 6.12284 1.08169 6.03088 0.850586 5.92697C0.959869 5.70363 1.06199 5.49462 1.17605 5.26231C1.38745 5.37578 1.58571 5.48267 1.80487 5.60031Z" fill="#88CFE0"/>
<path d="M14.8983 2.10325C14.6917 1.98441 14.5072 1.87752 14.3018 1.75928C14.4098 1.55206 14.5144 1.35201 14.6308 1.12866C14.85 1.25347 15.053 1.36873 15.2758 1.49533C15.148 1.70076 15.0285 1.89364 14.8983 2.10325Z" fill="#88CFE0"/>
<path d="M3.49962 2.3893C3.69788 2.23284 3.88241 2.08713 4.08067 1.93007C4.22519 2.12594 4.35955 2.30868 4.50288 2.50276C4.32432 2.64489 4.15771 2.77686 3.96363 2.93153C3.81075 2.75298 3.66026 2.57681 3.49902 2.3893H3.49962Z" fill="#88CFE0"/>
<path d="M19.7195 12.4416C19.6455 12.6948 19.5816 12.9133 19.5117 13.1522C19.2818 13.077 19.068 13.0077 18.8369 12.9324C18.8996 12.7121 18.9581 12.5084 19.0244 12.2755C19.2531 12.3305 19.4723 12.3824 19.7195 12.4416Z" fill="#88CFE0"/>
<path d="M20.0001 9.49689V10.2231H19.3115V9.53331C19.5265 9.52197 19.751 9.51062 20.0001 9.49748V9.49689Z" fill="#88CFE0"/>
<path d="M17.8283 4.98581C17.6904 4.78934 17.5721 4.61915 17.4336 4.42148C17.6163 4.28294 17.7967 4.14678 18.0027 3.99092C18.1442 4.19277 18.278 4.38386 18.4285 4.59765C18.226 4.72843 18.0361 4.85145 17.8289 4.98581H17.8283Z" fill="#88CFE0"/>
<path d="M0.872979 8.18966C0.83476 8.42375 0.801915 8.62739 0.763696 8.86208C0.533784 8.8364 0.31044 8.81191 0.0566406 8.78385C0.0966514 8.53423 0.133079 8.30372 0.17309 8.05231C0.412557 8.09948 0.634109 8.14308 0.872979 8.18966Z" fill="#88CFE0"/>
<path d="M18.3047 14.2038C18.4044 13.9894 18.4964 13.7912 18.5949 13.5798C18.8117 13.6699 19.0147 13.7547 19.2494 13.8521C19.1461 14.079 19.0476 14.2952 18.9419 14.5263C18.7185 14.4128 18.5167 14.3107 18.3047 14.2038Z" fill="#88CFE0"/>
<path d="M1.97765 4.01064C2.17173 4.15635 2.35387 4.2925 2.54735 4.43762C2.41418 4.6311 2.28997 4.81205 2.1568 5.00493C1.95735 4.87654 1.76625 4.75412 1.55664 4.61976C1.69877 4.41373 1.83254 4.22025 1.97705 4.01004L1.97765 4.01064Z" fill="#88CFE0"/>
<path d="M19.1362 5.90188C18.9105 6.0034 18.7098 6.09357 18.4871 6.1939C18.3826 5.98668 18.284 5.792 18.1777 5.58119C18.3832 5.46893 18.5772 5.36263 18.8036 5.23901C18.9117 5.454 19.0162 5.66241 19.1356 5.90188H19.1362Z" fill="#88CFE0"/>
<path d="M1.83799 15.8228C1.70064 15.6161 1.57345 15.425 1.42773 15.2059C1.63137 15.0811 1.82426 14.9628 2.03506 14.8338C2.16166 15.0243 2.28408 15.2077 2.41725 15.4083C2.22257 15.5475 2.03685 15.68 1.83799 15.8228Z" fill="#88CFE0"/>
<path d="M19.8149 8.02724C19.8567 8.27686 19.8943 8.5008 19.9361 8.75101C19.6955 8.78207 19.4709 8.81013 19.2303 8.84119C19.1915 8.61068 19.1556 8.3951 19.1162 8.1628C19.3533 8.11681 19.5748 8.07382 19.8149 8.02724Z" fill="#88CFE0"/>
<path d="M19.8694 11.713C19.6222 11.6706 19.4054 11.6336 19.1689 11.593C19.1994 11.3648 19.2281 11.1487 19.2597 10.9122C19.4956 10.9343 19.7195 10.9558 19.968 10.9791C19.9345 11.2269 19.9041 11.458 19.87 11.7124L19.8694 11.713Z" fill="#88CFE0"/>
<path d="M5.07685 2.11878C4.94846 1.91275 4.83201 1.72643 4.69824 1.51205C4.90964 1.38963 5.11089 1.27258 5.33662 1.1418C5.44829 1.35081 5.55459 1.54907 5.67164 1.76883C5.47815 1.8823 5.29064 1.99277 5.07625 2.11878H5.07685Z" fill="#88CFE0"/>
<path d="M15.4727 2.48843C15.6148 2.29375 15.7486 2.11101 15.8931 1.91335C16.0925 2.0704 16.2759 2.21552 16.4741 2.37138C16.3135 2.56188 16.1678 2.73506 16.0149 2.9166C15.8304 2.77089 15.6584 2.63473 15.4733 2.48843H15.4727Z" fill="#88CFE0"/>
<path d="M18.7422 6.83826C18.9679 6.75585 19.1733 6.6806 19.411 6.59341C19.4881 6.83049 19.5609 7.05503 19.6403 7.29748C19.3979 7.36556 19.1871 7.42528 18.9584 7.48977C18.8867 7.2736 18.8198 7.07235 18.7422 6.83826Z" fill="#88CFE0"/>
<path d="M18.5809 15.1784C18.4453 15.3856 18.3175 15.5821 18.1772 15.7971C17.9783 15.6579 17.7938 15.5284 17.5938 15.3886C17.7192 15.1963 17.8386 15.013 17.9706 14.8105C18.1748 14.9336 18.3689 15.0506 18.5809 15.1778V15.1784Z" fill="#88CFE0"/>
<path d="M16.5234 3.37942C16.6918 3.21878 16.8513 3.0665 17.0346 2.89093C17.1929 3.05635 17.3577 3.22893 17.5333 3.41226C17.3434 3.57828 17.172 3.72817 16.9946 3.88403C16.8334 3.71145 16.6823 3.54961 16.5234 3.37942Z" fill="#88CFE0"/>
<path d="M0 9.51958C0.241856 9.53451 0.456242 9.54764 0.686752 9.56198V10.2434H0V9.51958Z" fill="#88CFE0"/>
<path d="M6.93473 1.22361C6.71557 1.3108 6.51671 1.38962 6.29755 1.47681C6.20439 1.26362 6.11362 1.05461 6.0127 0.823501C6.24082 0.733328 6.45819 0.647931 6.70064 0.552383C6.78245 0.786476 6.8565 0.999071 6.93473 1.22361Z" fill="#88CFE0"/>
<path d="M0.132229 11.7399C0.0963983 11.4897 0.0641508 11.2645 0.0283203 11.0137C0.264205 10.9886 0.488145 10.9647 0.733584 10.9379C0.767623 11.163 0.798676 11.372 0.835701 11.6163C0.605789 11.6569 0.379459 11.6963 0.132229 11.7399Z" fill="#88CFE0"/>
<path d="M1.40901 13.6048C1.50814 13.8174 1.6007 14.0151 1.70043 14.2283C1.48783 14.3376 1.29196 14.4379 1.06981 14.552C0.964709 14.3298 0.864981 14.1196 0.753906 13.8843C0.978444 13.7888 1.18507 13.7004 1.40901 13.6048Z" fill="#88CFE0"/>
<path d="M10.3506 0.712426V0.00119019C10.602 0.0197026 10.8331 0.0370207 11.0881 0.0555331C11.0636 0.298584 11.0409 0.517747 11.0158 0.76438C10.7806 0.745868 10.5572 0.72855 10.3506 0.712426Z" fill="#88CFE0"/>
<path d="M2.98472 3.90313C2.7984 3.7401 2.63239 3.59499 2.44727 3.43256C2.61746 3.25102 2.77691 3.08082 2.93994 2.90704C3.10655 3.07604 3.2636 3.23668 3.43738 3.41285C3.29645 3.56573 3.14835 3.72637 2.98532 3.90313H2.98472Z" fill="#88CFE0"/>
</g>
<defs>
<clipPath id="clip0_8933_11353">
<rect width="20" height="22.1785" fill="white"/>
</clipPath>
</defs>
</svg>
