<svg width="20" height="25" viewBox="0 0 20 25" fill="none" xmlns="http://www.w3.org/2000/svg">
<g clip-path="url(#clip0_8933_11349)">
<path d="M11.1927 2.61771e-06C11.7857 0.196671 12.1665 0.591796 12.3375 1.19551C12.3536 1.25272 12.4406 1.30695 12.5062 1.3302C14.5056 2.02748 15.7059 3.41608 16.1177 5.49004C16.1273 5.53652 16.1398 5.5842 16.1374 5.63068C16.1267 5.8357 16.219 5.94416 16.405 6.04488C17.1857 6.46682 17.3734 7.47222 16.8204 8.1683C16.7667 8.23565 16.7113 8.3018 16.694 8.32266C16.8394 8.67368 17.026 8.98001 17.0921 9.31077C17.3246 10.4729 16.4777 11.5003 15.2661 11.5558C15.0986 11.5635 15.0212 11.6046 14.9687 11.7727C14.6844 12.6935 14.1761 13.4754 13.4722 14.1339C13.3977 14.2036 13.3441 14.3306 13.3387 14.4337C13.3227 14.7811 13.3328 15.1298 13.3328 15.5112C13.4836 15.5112 13.623 15.5106 13.7625 15.5112C14.5301 15.5166 15.3024 15.4617 16.0528 15.6888C18.1679 16.3295 19.4295 17.7639 19.886 19.8993C20.0022 20.4422 19.9784 21.0173 19.9909 21.5787C20.007 22.3082 19.9963 23.0376 19.9945 23.7671C19.9933 24.1884 19.8211 24.3607 19.3997 24.3607C13.1349 24.3613 6.87073 24.3613 0.605944 24.3607C0.184001 24.3607 0.0111709 24.1879 0.010575 23.7677C0.00878708 22.8004 -0.0150515 21.832 0.0153427 20.8653C0.0808989 18.755 1.03683 17.1626 2.87478 16.1137C3.62808 15.684 4.4523 15.516 5.31347 15.5106C5.75628 15.5082 6.19908 15.5106 6.66989 15.5106C6.66989 15.1012 6.67466 14.7078 6.66512 14.3145C6.66393 14.2567 6.60374 14.1899 6.55487 14.1452C5.8421 13.4855 5.32837 12.6982 5.03695 11.7709C4.99106 11.6255 4.93325 11.5605 4.76161 11.554C3.97374 11.526 3.37659 11.1648 3.04702 10.4425C2.73116 9.75 2.82413 9.0843 3.28779 8.47523C3.30686 8.4502 3.32295 8.42278 3.33904 8.39537C3.34262 8.38941 3.34143 8.37987 3.28302 8.39656C3.15131 8.09083 2.96954 7.79702 2.89803 7.47758C2.76691 6.89353 3.09946 6.28327 3.64298 6.02223C3.79138 5.95072 3.84263 5.85834 3.86587 5.70101C4.18054 3.58414 5.35162 2.14905 7.34452 1.38741C7.54298 1.31172 7.66694 1.23723 7.73786 1.01612C7.90652 0.491674 8.29568 0.169257 8.81358 -0.00178528H11.1927V2.61771e-06ZM5.72052 8.71778C5.72052 9.13973 5.72707 9.53545 5.71933 9.93117C5.69966 10.9187 5.94639 11.8317 6.50898 12.644C7.30817 13.799 8.40117 14.4832 9.82016 14.5511C11.6534 14.6387 13.3644 13.4486 14.0009 11.6917C14.1916 11.1648 14.2881 10.6231 14.2869 10.0635C14.2857 9.61531 14.2869 9.16714 14.2869 8.71838H5.72052V8.71778ZM5.72052 16.4647V16.749C5.72052 17.5738 5.72052 18.3986 5.72052 19.2235C5.72052 19.2789 5.72171 19.3343 5.72052 19.3897C5.71098 19.7163 5.52087 19.9339 5.24553 19.9344C4.9702 19.9344 4.77234 19.7169 4.77055 19.3909C4.76638 18.5184 4.76936 17.6459 4.76876 16.774C4.76876 16.6882 4.76876 16.6024 4.76876 16.4796C4.50117 16.544 4.26577 16.6096 4.02619 16.656C3.85157 16.69 3.81283 16.7818 3.81283 16.9504C3.81879 19.028 3.81641 21.1061 3.81641 23.1837V23.3958H4.76817C4.76817 23.0484 4.76399 22.7164 4.76936 22.3845C4.77472 22.0591 4.97258 21.8415 5.24792 21.8445C5.52325 21.8475 5.71158 22.065 5.71873 22.3928C5.72231 22.5436 5.71933 22.6944 5.71933 22.8445C5.71933 23.0311 5.71933 23.217 5.71933 23.397H9.50311C9.51265 23.369 9.52218 23.3553 9.52218 23.341C9.52397 21.9929 9.52635 20.6448 9.52218 19.2968C9.52218 19.2211 9.47689 19.1287 9.42325 19.0715C8.63419 18.2354 7.84096 17.4028 7.04356 16.5738C6.98992 16.5184 6.89934 16.4707 6.82425 16.4683C6.46846 16.4576 6.11207 16.4635 5.71992 16.4635L5.72052 16.4647ZM14.2857 16.4647C13.9216 16.4647 13.5962 16.4522 13.272 16.4713C13.1534 16.4784 13.0092 16.5321 12.9281 16.6155C12.1486 17.4171 11.3774 18.227 10.6134 19.0429C10.5377 19.1239 10.4853 19.2616 10.4847 19.3736C10.4757 20.6425 10.4793 21.9113 10.4793 23.1801V23.3976H14.2881C14.2881 23.0281 14.2786 22.6723 14.2911 22.3177C14.3006 22.0495 14.4949 21.8606 14.7387 21.8463C14.9693 21.8326 15.1821 22.0036 15.2244 22.2486C15.2417 22.3493 15.2369 22.4536 15.2375 22.5567C15.2393 22.8386 15.2375 23.1205 15.2375 23.4H16.1785V16.7079C15.8734 16.634 15.5706 16.5607 15.2375 16.4796V16.7788C15.2375 17.6197 15.2375 18.46 15.2375 19.3009C15.2375 19.7056 15.0593 19.9392 14.7565 19.9344C14.455 19.9303 14.2863 19.7002 14.2863 19.2896C14.2863 18.5917 14.2863 17.8939 14.2863 17.196V16.4641L14.2857 16.4647ZM12.3822 2.31473C12.3822 2.39698 12.3822 2.45955 12.3822 2.52213C12.3822 3.14074 12.3864 3.75935 12.3798 4.37737C12.3763 4.68608 12.1736 4.89765 11.906 4.89705C11.6385 4.89705 11.443 4.68548 11.4317 4.37677C11.4257 4.21825 11.4305 4.05972 11.4305 3.90119C11.4305 3.15564 11.4334 2.41068 11.4293 1.66513C11.4263 1.18061 11.1945 0.951759 10.7225 0.951759C10.1992 0.951759 9.67535 0.957719 9.15268 0.948779C8.9441 0.945204 8.78855 1.03221 8.7075 1.20504C8.63598 1.35761 8.58354 1.53402 8.58115 1.70089C8.56864 2.54895 8.57579 3.3976 8.5746 4.24626C8.5746 4.33327 8.57579 4.42207 8.5597 4.50669C8.51619 4.73137 8.32727 4.89109 8.11153 4.89765C7.88924 4.9042 7.68422 4.74031 7.63953 4.50729C7.62165 4.41491 7.62403 4.31777 7.62403 4.22301C7.62284 3.59129 7.62344 2.95957 7.62344 2.32129C6.08465 2.77661 4.86829 4.44888 4.8367 5.84285H15.1791C15.0974 4.40419 13.9502 2.81951 12.3816 2.31414L12.3822 2.31473ZM10.0037 7.75649C11.8357 7.75649 13.6671 7.75649 15.4991 7.75649C15.5784 7.75649 15.6582 7.76007 15.7369 7.75113C15.9985 7.72133 16.1869 7.52049 16.1857 7.28032C16.1845 7.03776 15.9985 6.84168 15.7357 6.8101C15.6731 6.80235 15.6088 6.80533 15.5456 6.80533C11.8506 6.80533 8.15504 6.80533 4.46005 6.80533C4.0536 6.80533 3.81999 6.98054 3.82118 7.28151C3.82237 7.58426 4.0536 7.7559 4.46124 7.75649C4.50892 7.75649 4.5566 7.75649 4.60368 7.75649H10.0037ZM2.85869 17.2419C1.89085 17.9701 1.28236 18.8796 1.06424 20.0209C0.85327 21.1258 0.99213 22.248 0.968887 23.3624C0.968887 23.3744 0.98617 23.3869 0.990342 23.3928H2.85869V17.2419ZM19.0421 23.4012C19.0421 22.5364 19.0535 21.6902 19.0392 20.8445C19.0207 19.7509 18.6381 18.786 17.9295 17.9582C17.7096 17.7014 17.4396 17.4868 17.1529 17.2151V23.4012H19.0421ZM12.3816 14.9158C10.7826 15.7055 9.21228 15.7007 7.62344 14.9176C7.62344 15.1447 7.63595 15.3342 7.61986 15.5219C7.60317 15.7204 7.67171 15.8604 7.81057 16.0023C8.43037 16.6382 9.03766 17.286 9.65151 17.9272C9.76474 18.0458 9.89049 18.1525 10.0216 18.2759C10.785 17.4749 11.5503 16.6733 12.3125 15.8682C12.3512 15.8271 12.3769 15.7573 12.3786 15.7007C12.3858 15.4558 12.3816 15.2102 12.3816 14.9164V14.9158ZM4.76042 10.5992V8.71957C4.21034 8.7446 3.81522 9.14926 3.8182 9.66537C3.82118 10.1815 4.22345 10.5849 4.76042 10.5998V10.5992ZM15.2399 10.5915C15.7643 10.6064 16.1922 10.1779 16.1869 9.65047C16.1815 9.13258 15.759 8.7148 15.2399 8.7297V10.5915Z" fill="#88CFE0"/>
<path d="M5.24052 21.3618C4.99081 21.36 4.76971 21.1353 4.7715 20.8868C4.77328 20.6371 4.99796 20.416 5.24648 20.4178C5.49559 20.4196 5.71729 20.6442 5.7155 20.8928C5.71372 21.1425 5.48904 21.3636 5.24052 21.3618Z" fill="#88CFE0"/>
<path d="M15.2331 20.8945C15.2301 21.1443 15.0048 21.3648 14.7563 21.3618C14.506 21.3588 14.2861 21.1341 14.2891 20.885C14.2921 20.6347 14.5168 20.4148 14.7659 20.4178C15.0156 20.4207 15.2361 20.6454 15.2331 20.8945Z" fill="#88CFE0"/>
</g>
<defs>
<clipPath id="clip0_8933_11349">
<rect width="20" height="24.3631" fill="white"/>
</clipPath>
</defs>
</svg>
