<?xml version="1.0" encoding="utf-8"?>
<!-- Generator: Adobe Illustrator 27.9.0, SVG Export Plug-In . SVG Version: 6.00 Build 0)  -->
<svg version="1.1" id="Capa_1" xmlns="http://www.w3.org/2000/svg" xmlns:xlink="http://www.w3.org/1999/xlink" x="0px" y="0px"
	 viewBox="0 0 203.6 85" style="enable-background:new 0 0 203.6 85;" xml:space="preserve">
<style type="text/css">
	.st0{fill:#98989A;}
	.st1{fill:#6CC5D1;}
</style>
<g>
	<path class="st0" d="M6.3,82.7v-1.3H5.3c-0.1,0-0.1,0-0.1-0.1c0,0-0.1-0.1-0.1-0.1v-0.5H7V83c-0.6,0.4-1.3,0.6-2.2,0.6
		c-0.9,0-1.6-0.3-2.1-0.8c-0.5-0.6-0.8-1.3-0.8-2.2c0-0.9,0.3-1.7,0.8-2.2c0.6-0.6,1.3-0.8,2.2-0.8c0.6,0,1.3,0.1,2.1,0.4v1.4H6.5
		c-0.1,0-0.2-0.1-0.2-0.1c0,0,0-0.1,0-0.2c0-0.1,0-0.3-0.1-0.6C6.1,78.5,6,78.4,6,78.4c-0.3-0.1-0.7-0.1-1.1-0.1
		c-0.4,0-0.7,0.1-1,0.2c-0.3,0.1-0.5,0.3-0.7,0.5c-0.4,0.4-0.6,1-0.6,1.7c0,0.7,0.2,1.3,0.6,1.8C3.6,82.8,4.2,83,4.8,83
		C5.3,83,5.8,82.9,6.3,82.7"/>
	<path class="st0" d="M10.3,79.5c0.2,0.1,0.5,0.2,0.6,0.4c0.2,0.2,0.3,0.4,0.4,0.7c0.1,0.3,0.1,0.6,0.1,0.9c0,0.3-0.1,0.6-0.1,0.9
		c-0.1,0.3-0.2,0.5-0.4,0.7c-0.2,0.2-0.4,0.3-0.6,0.4s-0.5,0.2-0.8,0.2s-0.6-0.1-0.8-0.2c-0.2-0.1-0.5-0.2-0.6-0.4
		c-0.2-0.2-0.3-0.4-0.4-0.7c-0.1-0.2-0.1-0.5-0.1-0.9c0-0.4,0.1-0.7,0.1-0.9c0.1-0.3,0.2-0.5,0.4-0.7c0.2-0.2,0.4-0.3,0.6-0.4
		c0.2-0.1,0.5-0.2,0.8-0.2C9.8,79.3,10.1,79.4,10.3,79.5 M10.4,82.7c0.2-0.3,0.3-0.7,0.3-1.2c0-0.5-0.1-0.9-0.3-1.2
		c-0.2-0.3-0.5-0.4-0.9-0.4c-0.2,0-0.4,0-0.6,0.1c-0.1,0.1-0.3,0.2-0.4,0.3c-0.1,0.2-0.2,0.3-0.2,0.5c-0.1,0.2-0.1,0.4-0.1,0.7
		c0,0.2,0,0.4,0.1,0.7c0.1,0.2,0.1,0.3,0.2,0.5c0.1,0.1,0.2,0.2,0.4,0.3c0.2,0.1,0.4,0.1,0.6,0.1C9.9,83.1,10.2,83,10.4,82.7"/>
	<path class="st0" d="M16,81.5c0,0.3-0.1,0.7-0.1,0.9c-0.1,0.3-0.2,0.5-0.4,0.7s-0.4,0.3-0.6,0.4c-0.2,0.1-0.5,0.2-0.7,0.2
		c-0.5,0-1.1-0.1-1.9-0.2v-5.3l-0.2,0L11.8,78c0,0-0.1,0-0.1-0.1c0,0,0-0.1,0-0.1v-0.3h1.4V80c0.2-0.2,0.4-0.4,0.6-0.5
		c0.2-0.1,0.5-0.2,0.8-0.2c0.2,0,0.5,0.1,0.7,0.1c0.2,0.1,0.4,0.2,0.5,0.4c0.1,0.2,0.2,0.4,0.3,0.7C16,80.8,16,81.1,16,81.5L16,81.5
		L16,81.5L16,81.5z M15.2,82.2c0.1-0.2,0.1-0.4,0.1-0.6v-0.1c0-0.3,0-0.5-0.1-0.7c-0.1-0.2-0.1-0.3-0.2-0.5
		c-0.1-0.1-0.2-0.2-0.3-0.3c-0.1-0.1-0.3-0.1-0.5-0.1c-0.2,0-0.5,0.1-0.6,0.2c-0.2,0.1-0.3,0.3-0.5,0.5V83c0.1,0,0.2,0.1,0.4,0.1
		c0.2,0,0.3,0.1,0.5,0.1h0.2c0.2,0,0.3-0.1,0.4-0.1c0.1-0.1,0.3-0.2,0.4-0.3l0,0C15.1,82.5,15.1,82.4,15.2,82.2"/>
	<path class="st0" d="M18.4,83.2C18.4,83.2,18.4,83.2,18.4,83.2l0,0.4h-1.9v-0.3c0,0,0-0.1,0-0.1s0.1-0.1,0.1-0.1l0.5-0.1v-3
		l-0.5-0.1c0,0-0.1,0-0.1-0.1c0,0,0-0.1,0-0.1v-0.3h1.3V83L18.4,83.2C18.3,83.1,18.4,83.1,18.4,83.2 M17,78.3c0-0.1,0-0.1,0-0.2
		c0-0.1,0-0.2,0-0.2c0-0.1,0.1-0.1,0.1-0.2c0,0,0.1-0.1,0.2-0.1c0.1,0,0.1,0,0.2,0s0.1,0,0.2,0c0.1,0,0.1,0.1,0.2,0.1
		c0,0,0.1,0.1,0.1,0.2c0,0.1,0,0.1,0,0.2s0,0.1,0,0.2c0,0.1-0.1,0.1-0.1,0.2c0,0.1-0.1,0.1-0.2,0.1s-0.1,0-0.2,0s-0.1,0-0.2,0
		c-0.1,0-0.1-0.1-0.2-0.1C17,78.4,17,78.4,17,78.3"/>
	<path class="st0" d="M21.4,79.5c0.2,0.1,0.4,0.2,0.5,0.4c0.2,0.2,0.3,0.4,0.4,0.6c0.1,0.2,0.1,0.5,0.1,0.8c0,0.1,0,0.2,0,0.2
		c0,0-0.1,0.1-0.1,0.1h-2.8c0,0.3,0,0.5,0.1,0.7c0.1,0.2,0.1,0.3,0.3,0.5c0.1,0.1,0.3,0.2,0.4,0.3c0.2,0.1,0.3,0.1,0.5,0.1
		s0.4,0,0.5-0.1c0.1,0,0.2-0.1,0.4-0.1c0.1-0.1,0.2-0.1,0.2-0.1c0.1-0.1,0.1-0.1,0.2-0.1c0.1,0,0.1,0,0.1,0.1l0.2,0.3
		c-0.1,0.1-0.2,0.2-0.3,0.3c-0.2,0.1-0.3,0.2-0.4,0.2c-0.2,0.1-0.3,0.1-0.5,0.1c-0.2,0-0.3,0-0.5,0c-0.3,0-0.5-0.1-0.8-0.2
		c-0.2-0.1-0.5-0.2-0.6-0.4c-0.2-0.2-0.3-0.4-0.4-0.7c-0.1-0.3-0.1-0.6-0.1-1c0-0.3,0-0.6,0.1-0.8c0.1-0.3,0.2-0.5,0.4-0.7
		s0.4-0.3,0.6-0.4c0.2-0.1,0.5-0.2,0.8-0.2C21,79.3,21.2,79.4,21.4,79.5 M19.9,80.2c-0.2,0.2-0.3,0.5-0.4,0.9h2.3
		c0-0.2,0-0.3-0.1-0.5c-0.1-0.2-0.1-0.3-0.2-0.4c-0.1-0.1-0.2-0.2-0.3-0.2c-0.1-0.1-0.3-0.1-0.5-0.1l0,0
		C20.4,79.9,20.1,80,19.9,80.2"/>
	<path class="st0" d="M25.5,79.3c0.2,0,0.4,0.1,0.6,0.2L26,80c0,0.1,0,0.1-0.1,0.1c0,0-0.1,0-0.2,0s-0.2-0.1-0.3-0.1
		c-0.5,0-0.9,0.3-1.1,0.9V83l0.5,0.1c0.1,0,0.1,0.1,0.1,0.2v0.3H23v-0.3c0-0.1,0-0.1,0.1-0.2l0.5-0.1v-3c-0.3-0.1-0.4-0.1-0.5-0.1
		c-0.1,0-0.1-0.1-0.1-0.2v-0.3h1c0.1,0,0.1,0,0.2,0s0,0.1,0.1,0.2l0,0.7h0C24.6,79.7,25,79.3,25.5,79.3"/>
	<path class="st0" d="M29.2,79.3c0.5,0,0.8,0.2,1,0.4c0.2,0.3,0.4,0.7,0.4,1.2V83c0.3,0.1,0.4,0.1,0.5,0.1c0.1,0,0.1,0.1,0.1,0.2
		v0.3h-1.3v-2.7c0-0.7-0.3-1-0.9-1c-0.4,0-0.8,0.2-1.1,0.6V83c0,0,0.2,0,0.5,0.1c0.1,0,0.1,0.1,0.1,0.2v0.3h-1.9v-0.3
		c0-0.1,0-0.1,0.1-0.2l0.5-0.1v-3c-0.3-0.1-0.4-0.1-0.5-0.1c-0.1,0-0.1-0.1-0.1-0.2v-0.3h1c0.1,0,0.2,0.1,0.2,0.2l0.1,0.5v0
		C28.3,79.6,28.7,79.3,29.2,79.3"/>
	<path class="st0" d="M34.5,79.5c0.2,0.1,0.5,0.2,0.6,0.4c0.2,0.2,0.3,0.4,0.4,0.7c0.1,0.3,0.1,0.6,0.1,0.9c0,0.3,0,0.6-0.1,0.9
		c-0.1,0.3-0.2,0.5-0.4,0.7c-0.2,0.2-0.4,0.3-0.6,0.4s-0.5,0.2-0.8,0.2c-0.3,0-0.6-0.1-0.8-0.2c-0.2-0.1-0.5-0.2-0.6-0.4
		c-0.2-0.2-0.3-0.4-0.4-0.7c-0.1-0.2-0.1-0.5-0.1-0.9c0-0.4,0-0.7,0.1-0.9c0.1-0.3,0.2-0.5,0.4-0.7c0.2-0.2,0.4-0.3,0.6-0.4
		c0.2-0.1,0.5-0.2,0.8-0.2C33.9,79.3,34.2,79.4,34.5,79.5 M34.6,82.7c0.2-0.3,0.3-0.7,0.3-1.2c0-0.5-0.1-0.9-0.3-1.2
		c-0.2-0.3-0.5-0.4-0.9-0.4c-0.2,0-0.4,0-0.5,0.1c-0.1,0.1-0.3,0.2-0.4,0.3c-0.1,0.2-0.2,0.3-0.2,0.5c-0.1,0.2-0.1,0.4-0.1,0.7
		c0,0.2,0,0.4,0.1,0.7c0,0.2,0.1,0.3,0.2,0.5c0.1,0.1,0.2,0.2,0.4,0.3c0.2,0.1,0.4,0.1,0.5,0.1C34.1,83.1,34.4,83,34.6,82.7"/>
	<path class="st0" d="M40.8,79.8v-1.7L40.2,78c-0.1,0-0.1-0.1-0.1-0.2v-0.4h1.4V83c0.3,0.1,0.4,0.1,0.5,0.1c0.1,0,0.1,0.1,0.1,0.2
		v0.4h-1c-0.1,0-0.2-0.1-0.2-0.2L40.8,83c-0.4,0.5-0.9,0.7-1.4,0.7c-0.5,0-0.9-0.2-1.2-0.6c-0.3-0.4-0.4-0.9-0.4-1.6
		c0-0.6,0.2-1.2,0.5-1.6c0.3-0.4,0.8-0.6,1.3-0.6C40.1,79.3,40.5,79.5,40.8,79.8 M40.8,82.4v-2c-0.2-0.3-0.6-0.5-1-0.5
		c-0.4,0-0.7,0.1-0.9,0.4c-0.2,0.3-0.3,0.7-0.3,1.2c0,0.8,0.2,1.3,0.6,1.5c0.1,0.1,0.3,0.1,0.5,0.1l0,0
		C40.1,83.1,40.4,82.9,40.8,82.4"/>
	<path class="st0" d="M45.1,79.5c0.2,0.1,0.4,0.2,0.5,0.4c0.2,0.2,0.3,0.4,0.4,0.6c0.1,0.2,0.1,0.5,0.1,0.8c0,0.1,0,0.2,0,0.2
		c0,0-0.1,0.1-0.2,0.1h-2.8c0,0.3,0,0.5,0.1,0.7c0.1,0.2,0.2,0.3,0.3,0.5c0.1,0.1,0.3,0.2,0.4,0.3c0.2,0.1,0.3,0.1,0.5,0.1
		s0.4,0,0.5-0.1s0.2-0.1,0.3-0.1c0.1-0.1,0.2-0.1,0.2-0.1c0.1-0.1,0.1-0.1,0.2-0.1c0.1,0,0.1,0,0.1,0.1l0.2,0.3
		c-0.1,0.1-0.2,0.2-0.3,0.3c-0.2,0.1-0.3,0.2-0.4,0.2c-0.2,0.1-0.3,0.1-0.5,0.1c-0.2,0-0.3,0-0.5,0c-0.3,0-0.5-0.1-0.8-0.2
		c-0.2-0.1-0.5-0.2-0.6-0.4c-0.2-0.2-0.3-0.4-0.4-0.7c-0.1-0.3-0.2-0.6-0.2-1c0-0.3,0-0.6,0.1-0.8c0.1-0.3,0.2-0.5,0.4-0.7
		s0.4-0.3,0.6-0.4c0.2-0.1,0.5-0.2,0.8-0.2C44.7,79.3,44.9,79.4,45.1,79.5 M43.6,80.2c-0.2,0.2-0.3,0.5-0.4,0.9h2.3
		c0-0.2,0-0.3-0.1-0.5c-0.1-0.2-0.1-0.3-0.2-0.4C45.1,80.1,45,80,44.9,80s-0.3-0.1-0.5-0.1l0,0C44.1,79.9,43.8,80,43.6,80.2"/>
	<path class="st0" d="M50.3,83.3v0.4h-1.9v-0.4c0-0.1,0-0.1,0.1-0.2L49,83v-4.9c-0.2-0.1-0.4-0.1-0.5-0.1c-0.1,0-0.1-0.1-0.1-0.2
		v-0.3h1.3V83c0.2,0.1,0.4,0.1,0.5,0.1C50.3,83.1,50.3,83.2,50.3,83.3"/>
	<path class="st0" d="M54.5,83.1C54.6,83.2,54.6,83.2,54.5,83.1l0,0.4h-0.9c0,0-0.1,0-0.2,0c0,0-0.1-0.1-0.1-0.1L53.4,83l-0.3,0.3
		c-0.1,0.1-0.2,0.1-0.3,0.2c-0.1,0.1-0.2,0.1-0.4,0.1c-0.1,0-0.3,0-0.5,0c-0.2,0-0.3,0-0.5-0.1c-0.2-0.1-0.3-0.1-0.4-0.2
		c-0.1-0.1-0.2-0.2-0.2-0.3c-0.1-0.1-0.1-0.3-0.1-0.5c0-0.2,0-0.3,0.1-0.5c0.1-0.2,0.2-0.3,0.5-0.4c0.2-0.1,0.5-0.2,0.8-0.3
		s0.7-0.1,1.2-0.1v-0.3c0-0.3-0.1-0.6-0.2-0.7c-0.1-0.2-0.3-0.3-0.6-0.3c-0.2,0-0.3,0-0.5,0.1c-0.1,0.1-0.2,0.1-0.3,0.2
		c0,0-0.1,0.1-0.1,0.1c0,0-0.1,0.1-0.1,0.1c-0.1,0.1-0.1,0.1-0.2,0.1c-0.1,0-0.1,0-0.1,0c0,0-0.1-0.1-0.1-0.1L50.9,80
		c0.2-0.2,0.5-0.4,0.8-0.5c0.2-0.1,0.5-0.2,0.9-0.2c0.2,0,0.5,0,0.6,0.1c0.2,0.1,0.3,0.2,0.5,0.3s0.2,0.3,0.3,0.5
		c0.1,0.2,0.1,0.4,0.1,0.7V83c0.3,0.1,0.4,0.1,0.4,0.1v0C54.5,83.1,54.5,83.1,54.5,83.1 M52.5,81.8c-0.2,0-0.4,0.1-0.6,0.2
		c-0.2,0.1-0.3,0.2-0.3,0.2c-0.1,0.1-0.1,0.2-0.1,0.3c0,0.1,0,0.2,0.1,0.3c0,0.1,0.1,0.2,0.2,0.2c0.1,0.1,0.1,0.1,0.2,0.1
		c0.1,0,0.2,0,0.3,0c0.1,0,0.2,0,0.3,0c0.1,0,0.2-0.1,0.3-0.1c0.1,0,0.2-0.1,0.3-0.2c0-0.1,0.1-0.1,0.2-0.2v-0.9
		C53,81.7,52.7,81.7,52.5,81.8"/>
	<path class="st0" d="M61.9,83.2C61.9,83.2,61.9,83.2,61.9,83.2l0,0.5H61c-0.2,0-0.2-0.1-0.3-0.2l-1.5-2.1c0-0.1-0.1-0.1-0.2-0.1
		c0,0-0.1-0.1-0.2-0.1h-0.5V83l0.5,0.1c0,0,0.1,0,0.1,0.1c0,0,0,0.1,0,0.1v0.4h-2v-0.4c0,0,0-0.1,0-0.1s0,0,0.1-0.1l0.5-0.1v-4.7
		L57,78.2c0,0-0.1,0-0.1-0.1c0,0,0-0.1,0-0.1v-0.4H59c0.4,0,0.7,0,1,0.1c0.3,0.1,0.5,0.2,0.7,0.3c0.2,0.2,0.3,0.3,0.4,0.5
		s0.1,0.4,0.1,0.7c0,0.2,0,0.4-0.1,0.6s-0.2,0.3-0.3,0.5c-0.1,0.2-0.3,0.3-0.5,0.4c-0.2,0.1-0.4,0.2-0.6,0.2
		c0.1,0.1,0.2,0.1,0.3,0.2l1.3,1.8c0.3,0.1,0.4,0.1,0.5,0.1h0C61.8,83.1,61.8,83.1,61.9,83.2 M59.6,80.5c0.2-0.1,0.3-0.1,0.5-0.2
		c0.1-0.1,0.2-0.2,0.3-0.4c0.1-0.1,0.1-0.3,0.1-0.5c0-0.3-0.1-0.6-0.3-0.8s-0.6-0.3-1-0.3h-0.8v2.2H59
		C59.2,80.6,59.5,80.5,59.6,80.5"/>
	<path class="st0" d="M64.7,79.5c0.2,0.1,0.4,0.2,0.6,0.4c0.2,0.2,0.3,0.4,0.4,0.6c0.1,0.2,0.1,0.5,0.1,0.8c0,0.1,0,0.2,0,0.2
		c0,0-0.1,0.1-0.2,0.1h-2.8c0,0.3,0,0.5,0.1,0.7c0.1,0.2,0.2,0.3,0.3,0.5c0.1,0.1,0.3,0.2,0.4,0.3c0.2,0.1,0.3,0.1,0.5,0.1
		s0.4,0,0.5-0.1s0.2-0.1,0.3-0.1c0.1-0.1,0.2-0.1,0.2-0.1c0.1-0.1,0.1-0.1,0.2-0.1c0.1,0,0.1,0,0.1,0.1l0.2,0.3
		c-0.1,0.1-0.2,0.2-0.3,0.3c-0.2,0.1-0.3,0.2-0.4,0.2c-0.2,0.1-0.3,0.1-0.4,0.1c-0.2,0-0.3,0-0.5,0c-0.3,0-0.5-0.1-0.8-0.2
		c-0.2-0.1-0.5-0.2-0.6-0.4c-0.2-0.2-0.3-0.4-0.4-0.7c-0.1-0.3-0.2-0.6-0.2-1c0-0.3,0-0.6,0.1-0.8c0.1-0.3,0.2-0.5,0.4-0.7
		s0.4-0.3,0.6-0.4c0.2-0.1,0.5-0.2,0.8-0.2C64.2,79.3,64.5,79.4,64.7,79.5 M63.2,80.2c-0.2,0.2-0.3,0.5-0.4,0.9h2.3
		c0-0.2,0-0.3-0.1-0.5c-0.1-0.2-0.1-0.3-0.2-0.4c-0.1-0.1-0.2-0.2-0.3-0.2s-0.3-0.1-0.5-0.1l0,0C63.7,79.9,63.4,80,63.2,80.2"/>
	<path class="st0" d="M68.8,79.3c0.5,0,0.9,0.2,1.2,0.6c0.3,0.4,0.4,0.9,0.4,1.6c0,0.6-0.2,1.2-0.5,1.6c-0.3,0.4-0.8,0.6-1.3,0.6
		c-0.5,0-0.9-0.2-1.2-0.5v1.2l0.2,0.1l0.2,0.1c0.1,0,0.1,0.1,0.1,0.2v0.4h-1.9v-0.4c0-0.1,0.1-0.1,0.1-0.2l0.5-0.1V80
		c-0.2-0.1-0.4-0.1-0.5-0.1c-0.1,0-0.1-0.1-0.1-0.2v-0.3h1.1c0.1,0,0.2,0.1,0.2,0.2l0.1,0.5h0C67.8,79.6,68.2,79.3,68.8,79.3
		 M68.4,83.1c0.4,0,0.7-0.1,0.9-0.4c0.2-0.3,0.3-0.7,0.3-1.2c0-0.5-0.1-0.9-0.3-1.2c-0.2-0.3-0.4-0.4-0.8-0.4
		c-0.4,0-0.8,0.2-1.1,0.6v2C67.7,82.9,68,83.1,68.4,83.1"/>
	<path class="st0" d="M74,82.5V80c-0.1,0-0.2-0.1-0.5-0.1c-0.1,0-0.1-0.1-0.1-0.2v-0.4h1.3V83c0.2,0.1,0.4,0.1,0.5,0.1
		c0.1,0,0.1,0.1,0.1,0.2v0.3h-1c-0.1,0-0.2-0.1-0.2-0.2L74.1,83c-0.4,0.4-0.9,0.7-1.4,0.7c-0.4,0-0.8-0.2-1.1-0.4
		c-0.2-0.3-0.4-0.7-0.4-1.2V80c-0.3-0.1-0.4-0.1-0.5-0.1c-0.1,0-0.1-0.1-0.1-0.2v-0.3H72v2.7c0,0.3,0.1,0.6,0.2,0.7s0.4,0.3,0.7,0.3
		l0,0C73.3,83.1,73.7,82.9,74,82.5 M73.2,78.8c-0.1,0-0.1,0-0.1,0h-0.4l0.6-1c0-0.1,0.1-0.1,0.1-0.1c0.1,0,0.1-0.1,0.2-0.1h0.7
		l-1,1.1C73.3,78.7,73.2,78.8,73.2,78.8"/>
	<path class="st0" d="M80.1,81.5c0,0.3-0.1,0.7-0.2,0.9c-0.1,0.3-0.2,0.5-0.4,0.7s-0.3,0.3-0.6,0.4c-0.2,0.1-0.5,0.2-0.7,0.2
		c-0.5,0-1.1-0.1-1.9-0.2v-5.3l-0.2,0L75.8,78c0,0-0.1,0-0.1-0.1c0,0,0-0.1,0-0.1v-0.3h1.4V80c0.2-0.2,0.4-0.4,0.6-0.5
		c0.2-0.1,0.5-0.2,0.8-0.2c0.2,0,0.5,0.1,0.7,0.1c0.2,0.1,0.4,0.2,0.5,0.4c0.1,0.2,0.2,0.4,0.3,0.7C80,80.8,80,81.1,80.1,81.5
		L80.1,81.5L80.1,81.5L80.1,81.5z M79.2,82.2c0.1-0.2,0.1-0.4,0.1-0.6v-0.1c0-0.3,0-0.5-0.1-0.7c-0.1-0.2-0.1-0.3-0.2-0.5
		c-0.1-0.1-0.2-0.2-0.3-0.3c-0.1-0.1-0.3-0.1-0.5-0.1c-0.2,0-0.5,0.1-0.6,0.2c-0.2,0.1-0.3,0.3-0.5,0.5V83c0.1,0,0.2,0.1,0.3,0.1
		c0.2,0,0.3,0.1,0.5,0.1h0.2c0.2,0,0.3-0.1,0.4-0.1c0.1-0.1,0.3-0.2,0.4-0.3l0,0C79.1,82.5,79.2,82.4,79.2,82.2"/>
	<path class="st0" d="M82.4,83.3v0.4h-1.9v-0.4c0-0.1,0.1-0.1,0.1-0.2l0.5-0.1v-4.9c-0.2-0.1-0.4-0.1-0.5-0.1
		c-0.1,0-0.1-0.1-0.1-0.2v-0.3h1.3V83c0.2,0.1,0.4,0.1,0.5,0.1C82.4,83.1,82.4,83.2,82.4,83.3"/>
	<path class="st0" d="M84.8,83.2C84.8,83.2,84.8,83.2,84.8,83.2l0,0.4h-1.9v-0.3c0,0,0-0.1,0-0.1s0.1-0.1,0.1-0.1l0.5-0.1v-3
		L83,79.9c0,0-0.1,0-0.1-0.1c0,0,0-0.1,0-0.1v-0.3h1.3V83L84.8,83.2C84.8,83.1,84.8,83.1,84.8,83.2 M83.4,78.3
		c0-0.1-0.1-0.1-0.1-0.2c0-0.1,0-0.2,0.1-0.2c0-0.1,0.1-0.1,0.1-0.2c0.1,0,0.1-0.1,0.2-0.1c0.1,0,0.1,0,0.2,0c0.1,0,0.1,0,0.2,0
		c0.1,0,0.1,0.1,0.2,0.1s0.1,0.1,0.1,0.2c0,0.1,0.1,0.1,0.1,0.2s0,0.1-0.1,0.2c0,0.1-0.1,0.1-0.1,0.2c-0.1,0.1-0.1,0.1-0.2,0.1
		c-0.1,0-0.1,0-0.2,0c-0.1,0-0.1,0-0.2,0c-0.1,0-0.1-0.1-0.2-0.1C83.5,78.4,83.4,78.4,83.4,78.3"/>
	<path class="st0" d="M87.1,83.7c-0.5,0-1-0.2-1.3-0.6c-0.4-0.4-0.5-0.9-0.5-1.6c0-0.6,0.2-1.2,0.5-1.6c0.3-0.4,0.8-0.6,1.5-0.6
		c0.3,0,0.7,0.1,1.2,0.3v1.1h-0.3c-0.1,0-0.1,0-0.1-0.1c0,0,0-0.1,0-0.3l0-0.3c-0.1,0-0.1,0-0.2-0.1s-0.1,0-0.1,0
		c-0.2,0-0.3,0-0.5,0c-0.2,0-0.3,0-0.4,0.1c-0.2,0.1-0.3,0.2-0.4,0.3C86.1,80.6,86,81,86,81.5s0.1,0.9,0.3,1.2
		c0.2,0.3,0.5,0.4,0.9,0.4c0.3,0,0.7-0.1,0.9-0.3c0-0.1,0.1-0.1,0.2-0.1c0.1,0,0.1,0,0.1,0.1l0.2,0.3C88.3,83.5,87.8,83.7,87.1,83.7
		"/>
	<path class="st0" d="M92.8,83.1C92.8,83.2,92.8,83.2,92.8,83.1l0,0.4H92c-0.1,0-0.1,0-0.2,0c0,0-0.1-0.1-0.1-0.1L91.6,83l-0.3,0.3
		c-0.1,0.1-0.2,0.1-0.3,0.2c-0.1,0.1-0.2,0.1-0.4,0.1c-0.1,0-0.3,0-0.4,0c-0.2,0-0.3,0-0.4-0.1c-0.2-0.1-0.3-0.1-0.4-0.2
		c-0.1-0.1-0.2-0.2-0.2-0.3C89,82.9,89,82.7,89,82.5c0-0.2,0-0.3,0.1-0.5c0.1-0.2,0.2-0.3,0.4-0.4c0.2-0.1,0.5-0.2,0.8-0.3
		s0.7-0.1,1.2-0.1v-0.3c0-0.3-0.1-0.6-0.2-0.7c-0.1-0.2-0.3-0.3-0.6-0.3c-0.2,0-0.3,0-0.5,0.1C90.2,80,90,80.1,90,80.1
		c0,0-0.1,0.1-0.1,0.1c-0.1,0-0.1,0.1-0.1,0.1c-0.1,0.1-0.1,0.1-0.2,0.1c-0.1,0-0.1,0-0.1,0c0,0-0.1-0.1-0.1-0.1L89.2,80
		c0.2-0.2,0.5-0.4,0.8-0.5c0.2-0.1,0.6-0.2,0.9-0.2c0.2,0,0.5,0,0.6,0.1c0.2,0.1,0.3,0.2,0.5,0.3s0.2,0.3,0.3,0.5
		c0.1,0.2,0.1,0.4,0.1,0.7V83c0.3,0.1,0.4,0.1,0.4,0.1v0C92.8,83.1,92.8,83.1,92.8,83.1 M90.7,81.8c-0.2,0-0.4,0.1-0.6,0.2
		c-0.2,0.1-0.3,0.2-0.3,0.2s-0.1,0.2-0.1,0.3c0,0.1,0,0.2,0.1,0.3c0,0.1,0.1,0.2,0.2,0.2c0.1,0.1,0.1,0.1,0.2,0.1c0.1,0,0.2,0,0.3,0
		c0.1,0,0.2,0,0.3,0c0.1,0,0.2-0.1,0.3-0.1c0.1,0,0.2-0.1,0.3-0.2c0.1-0.1,0.1-0.1,0.2-0.2v-0.9C91.2,81.7,90.9,81.7,90.7,81.8"/>
	<polygon class="st0" points="7.8,38.5 7.8,49.5 5,49.5 5,38.5 0.4,38.5 0.4,35.7 12.2,35.7 12.2,38.5 	"/>
	<path class="st0" d="M14.6,42.2c0-0.6-0.1-1.1-0.7-1.1c-0.4,0-0.9,0.2-1.1,0.3l-0.1-2.2c0.1-0.1,1.2-0.5,2.3-0.5
		c1.2,0,2,0.5,2.3,1.6c0.5-1,1.3-1.6,2.7-1.6c1,0,1.8,0.4,1.9,0.6l-0.4,2.6c-0.2-0.2-1-0.5-2-0.5c-1.4,0-1.9,1.2-2.1,2.4v5.8h-2.8
		L14.6,42.2L14.6,42.2z"/>
	<path class="st0" d="M34.2,46.2c0,0.6,0.2,1.1,0.7,1.1c0.4,0,0.7-0.1,1.1-0.3l0.1,2.2c-0.5,0.2-1.4,0.5-2.3,0.5
		c-1.2,0-2-0.5-2.2-1.5c-0.7,0.8-1.9,1.5-3.4,1.5c-3,0-5-2.3-5-5.5c0-3.2,2-5.5,5-5.5c1.4,0,2.5,0.4,3.2,1.1v-0.9h2.8L34.2,46.2
		L34.2,46.2z M31.4,42.1c-0.5-0.5-1.4-1-2.4-1c-1.8,0-2.9,1.2-2.9,3c0,1.8,1.1,3,2.9,3c0.9,0,1.8-0.4,2.4-1
		C31.4,46.3,31.4,42.1,31.4,42.1z"/>
	<path class="st0" d="M44.5,49.7c-1.4,0-2.5-0.5-3.2-1.2v1h-2.8V35.1h2.8v4.7c0.7-0.7,1.8-1.1,3.2-1.1c3,0,5,2.3,5,5.5
		C49.5,47.4,47.5,49.7,44.5,49.7 M43.7,41.2c-1,0-1.8,0.5-2.4,1v4.1c0.5,0.5,1.4,1,2.4,1c1.8,0,2.9-1.2,2.9-3
		C46.6,42.4,45.4,41.2,43.7,41.2"/>
	<path class="st0" d="M62.5,46.2c0,0.6,0.2,1.1,0.7,1.1c0.4,0,0.7-0.1,1.1-0.3l0.1,2.2c-0.5,0.2-1.4,0.5-2.3,0.5
		c-1.2,0-2-0.5-2.2-1.5c-0.7,0.8-1.9,1.5-3.4,1.5c-3,0-5-2.3-5-5.5c0-3.2,2-5.5,5-5.5c1.4,0,2.5,0.4,3.2,1.1v-0.9h2.8L62.5,46.2
		L62.5,46.2z M59.7,42.1c-0.5-0.5-1.4-1-2.4-1c-1.8,0-2.9,1.2-2.9,3c0,1.8,1.1,3,2.9,3c0.9,0,1.8-0.4,2.4-1V42.1z"/>
	<path class="st0" d="M69.6,48.5c0,2.7-1.4,4.1-2.9,5L65,51.7c1-0.6,1.8-1.4,1.8-3v-9.8h2.8L69.6,48.5L69.6,48.5z M68.2,34.5
		c1,0,1.6,0.4,1.6,1.4s-0.6,1.4-1.6,1.4c-1,0-1.7-0.4-1.7-1.4S67.2,34.5,68.2,34.5"/>
	<path class="st0" d="M78,38.6c3.3,0,5.7,2.4,5.7,5.6c0,3.2-2.4,5.6-5.7,5.6c-3.3,0-5.7-2.4-5.7-5.6C72.3,41,74.7,38.6,78,38.6
		 M78,47.2c1.8,0,3-1.3,3-3c0-1.7-1.2-3-3-3c-1.8,0-2.9,1.3-2.9,3C75,45.9,76.2,47.2,78,47.2"/>
	<path class="st0" d="M3.2,57.5L6.1,65l2.8-7.5h2.9L7.4,68.2c-1.1,2.7-2.1,3.9-4.5,3.9c-1,0-1.9-0.4-2.4-0.7l0.4-2.3
		c0.5,0.3,1.2,0.6,2,0.6c0.9,0,1.4-0.4,1.8-1.4l0.2-0.6L0,57.5H3.2z"/>
	<path class="st0" d="M21.6,62c-2.1-0.5-3.2-1.8-3.2-3.7c0-2.3,1.7-4.2,5.5-4.2c2,0,3.9,0.5,5,1.1l-0.8,2.7c-1-0.7-2.7-1.2-4.2-1.2
		c-1.8,0-2.5,0.5-2.5,1.3c0,0.8,0.5,1.1,1.5,1.3l2.6,0.7c2.5,0.7,3.7,1.8,3.7,3.8c0,2.6-2.3,4.4-5.6,4.4c-2,0-4-0.7-4.9-1.2l0.7-2.7
		c1,0.7,2.6,1.3,4.3,1.3s2.6-0.6,2.6-1.6c0-0.8-0.7-1.1-2-1.5L21.6,62z"/>
	<path class="st0" d="M41.4,67c-1.1,0.9-2.7,1.4-4.5,1.4c-4,0-5.8-2.4-5.8-5.6c0-3.2,2.2-5.6,5.6-5.6c3.2,0,4.8,2,4.8,4.4
		c0,0.7-0.1,1.7-0.2,2.1H34c0.3,1.5,1.2,2.3,3,2.3c1.3,0,2.6-0.6,3.3-1.1L41.4,67z M38.7,61.2c0-0.9-0.7-1.6-2.1-1.6
		c-1.5,0-2.3,0.9-2.5,2h4.6C38.7,61.4,38.7,61.2,38.7,61.2"/>
	<path class="st0" d="M48.5,57.3c1.4,0,2.5,0.4,3.2,1.1v-0.9h2.8v9.3c0,3.6-2.2,5.3-5.5,5.3c-2.1,0-3.4-0.7-4.2-1.1l0.6-2.5
		c0.7,0.4,2,1.1,3.5,1.1c1.4,0,2.6-0.5,2.6-2.3v-1c-0.8,0.7-1.8,1.1-3.2,1.1c-3,0-5-2.3-5-5.1C43.5,59.6,45.6,57.3,48.5,57.3
		 M49.3,65c1,0,1.8-0.4,2.4-1v-3.3c-0.5-0.5-1.4-1-2.4-1c-1.8,0-2.9,1.1-2.9,2.6C46.5,64,47.6,65,49.3,65"/>
	<path class="st0" d="M68,57.5v7.4c0,0.6,0.1,1.1,0.7,1.1c0.4,0,0.7-0.1,1.1-0.3l0.1,2.2c-0.5,0.3-1.4,0.5-2.3,0.5
		c-1.1,0-1.9-0.4-2.2-1.4c-0.8,0.9-2,1.4-3.6,1.4c-2.7,0-3.9-1.9-3.9-4.7v-6.1h2.8v5.7c0,1.8,0.5,2.5,2.2,2.5c1.2,0,2-0.8,2.4-1.4
		v-6.8L68,57.5L68,57.5z"/>
	<path class="st0" d="M73.1,60.8c0-0.6-0.1-1.1-0.7-1.1c-0.4,0-0.9,0.2-1.1,0.3l-0.1-2.2c0.1-0.1,1.2-0.5,2.3-0.5
		c1.2,0,2,0.5,2.3,1.6c0.5-1,1.3-1.6,2.7-1.6c1,0,1.8,0.4,1.9,0.6L80,60.5c-0.2-0.2-1-0.5-1.9-0.5c-1.4,0-1.9,1.2-2.1,2.4v5.8h-2.9
		V60.8z"/>
	<path class="st0" d="M83.9,53.1c1,0,1.6,0.4,1.6,1.4c0,1-0.7,1.4-1.6,1.4c-1,0-1.7-0.4-1.7-1.4C82.2,53.5,82.9,53.1,83.9,53.1
		 M85.3,64.8c0,0.6,0.1,1.1,0.7,1.1c0.4,0,0.9-0.2,1.1-0.3l0.1,2.3c-0.1,0.1-1.2,0.5-2.3,0.5c-1.6,0-2.4-0.8-2.4-2.8v-8h2.8
		L85.3,64.8L85.3,64.8z"/>
	<path class="st0" d="M99.9,53.7v11.2c0,0.6,0.1,1.1,0.7,1.1c0.3,0,0.7-0.1,1.1-0.3l0.1,2.2c-0.5,0.2-1.4,0.5-2.3,0.5
		c-1.1,0-1.9-0.4-2.2-1.4c-0.7,0.8-1.8,1.4-3.4,1.4c-2.9,0-5-2.3-5-5.5s2-5.5,5-5.5c1.4,0,2.4,0.4,3.2,1.1v-4.7
		C97.1,53.7,99.9,53.7,99.9,53.7z M94.7,65.8c0.9,0,1.9-0.5,2.4-1v-4.1c-0.6-0.5-1.4-1-2.4-1c-1.8,0-2.9,1.2-2.9,3
		C91.8,64.6,92.9,65.8,94.7,65.8"/>
	<path class="st0" d="M114.5,64.8c0,0.6,0.2,1.1,0.7,1.1c0.4,0,0.7-0.1,1.1-0.3l0.1,2.2c-0.5,0.2-1.4,0.5-2.3,0.5
		c-1.2,0-1.9-0.5-2.2-1.5c-0.7,0.8-1.9,1.5-3.4,1.5c-3,0-5-2.3-5-5.5c0-3.2,2-5.5,5-5.5c1.4,0,2.5,0.4,3.2,1.1v-0.9h2.8L114.5,64.8
		L114.5,64.8z M111.6,60.7c-0.5-0.5-1.4-1-2.4-1c-1.8,0-2.9,1.2-2.9,3c0,1.8,1.1,3,2.9,3c0.9,0,1.8-0.4,2.4-1V60.7z"/>
	<path class="st0" d="M129,53.7v11.2c0,0.6,0.1,1.1,0.7,1.1c0.3,0,0.7-0.1,1.1-0.3l0.1,2.2c-0.5,0.2-1.4,0.5-2.3,0.5
		c-1.1,0-1.9-0.4-2.2-1.4c-0.7,0.8-1.8,1.4-3.4,1.4c-2.9,0-5-2.3-5-5.5s2-5.5,5-5.5c1.4,0,2.4,0.4,3.2,1.1v-4.7
		C126.2,53.7,129,53.7,129,53.7z M123.8,65.8c0.9,0,1.9-0.5,2.4-1v-4.1c-0.6-0.5-1.4-1-2.4-1c-1.8,0-2.9,1.2-2.9,3
		C120.9,64.6,122,65.8,123.8,65.8"/>
	<path class="st0" d="M141.1,62c-2.1-0.5-3.2-1.8-3.2-3.7c0-2.3,1.7-4.2,5.5-4.2c2,0,3.9,0.5,5,1.1l-0.8,2.7c-1-0.7-2.7-1.2-4.2-1.2
		c-1.8,0-2.5,0.5-2.5,1.3c0,0.8,0.5,1.1,1.5,1.3l2.6,0.7c2.5,0.7,3.7,1.8,3.7,3.8c0,2.6-2.3,4.4-5.6,4.4c-2,0-4-0.7-4.9-1.2l0.7-2.7
		c1,0.7,2.6,1.3,4.3,1.3s2.6-0.6,2.6-1.6c0-0.8-0.7-1.1-2-1.5L141.1,62z"/>
	<path class="st0" d="M156.3,57.2c3.3,0,5.7,2.4,5.7,5.6c0,3.2-2.4,5.6-5.7,5.6c-3.3,0-5.7-2.4-5.7-5.6
		C150.6,59.6,153,57.2,156.3,57.2 M156.3,65.8c1.8,0,3-1.3,3-3c0-1.7-1.2-3-3-3c-1.8,0-2.9,1.3-2.9,3
		C153.4,64.5,154.6,65.8,156.3,65.8"/>
	<path class="st0" d="M174.3,66.9c-1.1,0.9-2.7,1.5-4.5,1.5c-4,0-5.8-2.4-5.8-5.6c0-3.2,2.2-5.6,5.6-5.6c3.1,0,4.7,1.7,4.8,4.2
		l-2.5,0.6c-0.1-1.4-0.7-2.2-2.3-2.2c-1.7,0-2.7,1.3-2.7,3c0,1.7,0.9,3.2,3.2,3.2c1.1,0,2.3-0.6,3.1-1.2L174.3,66.9z"/>
	<path class="st0" d="M178.5,53.1c1,0,1.6,0.4,1.6,1.4c0,1-0.6,1.4-1.6,1.4c-1,0-1.7-0.4-1.7-1.4C176.8,53.5,177.5,53.1,178.5,53.1
		 M179.9,64.8c0,0.6,0.1,1.1,0.7,1.1c0.4,0,0.9-0.2,1.1-0.3l0.1,2.3c-0.1,0.1-1.2,0.5-2.3,0.5c-1.6,0-2.4-0.8-2.4-2.8v-8h2.8
		L179.9,64.8L179.9,64.8z"/>
	<path class="st0" d="M194.5,64.8c0,0.6,0.2,1.1,0.7,1.1c0.4,0,0.7-0.1,1.1-0.3l0.1,2.2c-0.5,0.2-1.4,0.5-2.3,0.5
		c-1.2,0-1.9-0.5-2.2-1.5c-0.7,0.8-1.9,1.5-3.4,1.5c-3,0-5-2.3-5-5.5c0-3.2,2-5.5,5-5.5c1.4,0,2.5,0.4,3.2,1.1v-0.9h2.8L194.5,64.8
		L194.5,64.8z M191.6,60.7c-0.5-0.5-1.4-1-2.4-1c-1.8,0-2.9,1.2-2.9,3c0,1.8,1.1,3,2.9,3c0.9,0,1.8-0.4,2.4-1V60.7z"/>
	<path class="st0" d="M201.5,53.7v11.1c0,0.7,0.3,1.2,0.9,1.2c0.4,0,0.8-0.1,1.1-0.3l0.1,2.2c-0.5,0.2-1.4,0.5-2.4,0.5
		c-1.6,0-2.6-0.8-2.6-2.9V53.7H201.5z"/>
	<polygon class="st1" points="20,8.6 21,12 24.5,12 21.7,14 22.8,17.4 20,15.3 17.1,17.4 18.2,14 15.4,12 18.9,12 	"/>
	<polygon class="st1" points="35.2,17.3 36.3,20.6 39.8,20.6 36.9,22.6 38,26 35.2,23.9 32.4,26 33.4,22.6 30.6,20.6 34.1,20.6 	"/>
	<polygon class="st1" points="4.7,17.3 5.8,20.6 9.3,20.6 6.5,22.6 7.6,26 4.7,23.9 1.9,26 3,22.6 0.2,20.6 3.7,20.6 	"/>
	<polygon class="st1" points="35.2,0 36.3,3.3 39.8,3.3 36.9,5.4 38,8.7 35.2,6.7 32.4,8.7 33.4,5.4 30.6,3.3 34.1,3.3 	"/>
	<polygon class="st1" points="4.7,0 5.8,3.3 9.3,3.3 6.5,5.4 7.6,8.7 4.7,6.7 1.9,8.7 3,5.4 0.2,3.3 3.7,3.3 	"/>
	<polygon class="st1" points="65.6,16 54.7,16 54.7,26 47.4,26 47.4,0 54.7,0 54.7,9.7 65.6,9.7 65.6,0 72.9,0 72.9,26 65.6,26 	"/>
</g>
</svg>
