<svg id="svg" version="1.1" xmlns="http://www.w3.org/2000/svg" xmlns:xlink="http://www.w3.org/1999/xlink" width="400" height="87.76019983347211" viewBox="0, 0, 400,87.76019983347211"><g id="svgg"><path id="path0" d="M39.917 0.102 C 36.616 0.439,30.022 2.508,29.467 3.381 C 29.396 3.492,29.337 3.518,29.336 3.438 C 29.334 3.358,29.240 3.369,29.125 3.463 C 29.010 3.557,28.513 3.856,28.019 4.128 C 23.297 6.726,18.896 11.478,16.171 16.917 C 14.459 20.334,14.434 20.460,15.320 21.074 C 22.143 25.803,22.089 35.338,15.210 40.511 C 14.696 40.897,14.529 41.307,14.783 41.560 C 14.846 41.624,14.913 41.768,14.932 41.880 C 15.430 44.944,20.542 52.014,24.237 54.750 C 24.485 54.933,24.812 55.215,24.964 55.375 C 25.116 55.535,25.325 55.667,25.428 55.667 C 25.531 55.667,25.755 55.821,25.925 56.010 C 27.099 57.306,32.814 60.020,36.253 60.913 C 44.884 63.156,50.218 61.464,50.226 56.481 C 50.232 53.068,48.140 51.471,43.394 51.263 C 25.148 50.465,16.582 29.021,29.407 16.247 C 37.206 8.479,49.387 8.187,57.639 15.569 C 60.580 18.200,63.415 18.527,65.723 16.501 C 68.482 14.079,67.946 10.514,64.355 7.401 C 61.913 5.284,56.493 1.945,55.997 2.252 C 55.923 2.298,55.837 2.267,55.806 2.183 C 55.718 1.944,52.399 0.890,50.485 0.494 C 48.797 0.144,41.979 -0.108,39.917 0.102 M6.694 22.005 C -0.002 23.759,-2.250 32.335,2.704 37.227 C 6.967 41.436,14.219 40.429,16.942 35.250 C 20.719 28.067,14.455 19.972,6.694 22.005 M229.500 76.117 C 229.064 76.276,228.333 77.051,228.333 77.355 C 228.333 77.952,228.983 78.189,229.523 77.790 L 230.003 77.435 231.047 77.993 C 232.284 78.654,233.084 78.619,233.667 77.878 C 234.379 76.973,233.725 75.908,232.921 76.663 L 232.493 77.065 231.455 76.532 C 230.450 76.017,230.024 75.927,229.500 76.117 M99.700 76.367 C 99.033 77.033,99.590 78.167,100.583 78.167 C 101.424 78.167,101.667 77.942,101.667 77.167 C 101.667 76.391,101.424 76.167,100.583 76.167 C 100.207 76.167,99.810 76.257,99.700 76.367 M196.500 78.066 L 196.500 79.817 195.792 79.496 C 192.321 77.920,189.001 81.350,190.301 85.167 C 190.988 87.183,193.808 88.200,195.840 87.163 L 196.500 86.827 196.500 87.172 C 196.500 87.484,196.585 87.513,197.375 87.467 L 198.250 87.417 198.250 81.917 L 198.250 76.417 197.375 76.366 L 196.500 76.316 196.500 78.066 M257.167 78.065 L 257.167 79.797 256.548 79.482 C 252.946 77.646,249.277 82.114,251.405 85.745 C 252.318 87.303,255.122 88.113,256.656 87.263 C 257.000 87.073,257.099 87.075,257.301 87.277 C 257.458 87.434,257.807 87.499,258.312 87.467 L 259.083 87.417 259.127 81.875 L 259.171 76.333 258.169 76.333 L 257.167 76.333 257.167 78.065 M342.706 81.875 L 342.750 87.417 343.578 87.469 C 344.195 87.508,344.456 87.452,344.605 87.249 C 344.787 87.000,344.847 86.999,345.310 87.238 C 346.068 87.630,348.167 87.592,348.991 87.172 C 351.540 85.871,351.763 81.417,349.361 79.751 C 348.404 79.088,346.306 78.944,345.292 79.472 L 344.667 79.797 344.667 78.065 L 344.667 76.333 343.664 76.333 L 342.662 76.333 342.706 81.875 M379.167 81.342 C 379.167 87.618,379.127 87.500,381.250 87.500 C 382.727 87.500,382.833 87.436,382.833 86.555 L 382.833 85.813 382.098 85.923 C 381.008 86.087,381.000 86.051,381.000 80.844 L 381.000 76.333 380.083 76.333 L 379.167 76.333 379.167 81.342 M92.033 76.915 C 89.725 77.565,88.700 80.487,90.319 81.797 C 91.030 82.373,91.399 82.529,93.106 82.977 C 95.283 83.548,95.630 83.713,95.762 84.239 C 96.161 85.827,93.410 86.435,90.947 85.302 C 90.031 84.880,89.928 84.944,89.740 86.059 C 89.614 86.807,89.686 86.881,90.905 87.251 C 93.956 88.176,97.385 87.089,97.762 85.076 C 98.167 82.921,97.136 81.915,93.668 81.079 C 92.097 80.700,91.317 80.054,91.705 79.454 C 92.356 78.448,94.097 78.261,96.017 78.991 C 96.512 79.179,96.963 79.333,97.020 79.333 C 97.189 79.333,97.548 77.866,97.445 77.598 C 97.191 76.935,93.580 76.480,92.033 76.915 M278.155 76.884 C 273.392 78.237,272.665 84.808,277.037 86.992 C 279.776 88.361,284.800 87.061,283.647 85.283 C 283.165 84.540,283.221 84.543,282.154 85.206 C 279.940 86.582,276.969 85.627,276.331 83.333 C 275.325 79.717,279.398 77.103,282.433 79.418 L 283.018 79.864 283.427 79.390 C 284.283 78.398,284.119 78.058,282.393 77.234 C 281.334 76.729,279.293 76.560,278.155 76.884 M157.706 82.125 L 157.750 87.417 158.667 87.417 L 159.583 87.417 159.630 85.208 L 159.676 83.000 162.667 83.000 L 165.657 83.000 165.703 85.208 L 165.750 87.417 166.667 87.417 L 167.583 87.417 167.627 82.125 L 167.671 76.833 166.669 76.833 L 165.667 76.833 165.667 79.083 L 165.667 81.333 162.667 81.333 L 159.667 81.333 159.667 79.083 L 159.667 76.833 158.664 76.833 L 157.662 76.833 157.706 82.125 M325.000 82.170 L 325.000 87.506 328.708 87.462 L 332.417 87.417 332.467 86.625 L 332.518 85.833 329.676 85.833 L 326.833 85.833 326.833 81.333 L 326.833 76.833 325.917 76.833 L 325.000 76.833 325.000 82.170 M112.911 78.250 L 112.795 79.333 112.064 79.333 L 111.333 79.333 111.333 80.083 L 111.333 80.833 112.083 80.833 L 112.833 80.833 112.833 83.342 C 112.833 86.062,112.941 86.501,113.769 87.152 C 114.520 87.742,117.413 87.589,118.134 86.921 C 118.461 86.618,117.904 85.265,117.520 85.431 C 115.079 86.481,114.669 86.077,114.668 82.625 L 114.667 80.833 116.250 80.833 L 117.833 80.833 117.833 80.083 L 117.833 79.333 116.250 79.333 L 114.667 79.333 114.667 78.250 L 114.667 77.167 113.847 77.167 L 113.027 77.167 112.911 78.250 M121.945 79.260 C 118.608 80.329,118.150 85.580,121.250 87.218 C 122.615 87.939,126.531 87.560,127.092 86.653 C 127.202 86.475,126.524 85.123,126.366 85.206 C 123.969 86.468,122.281 86.339,121.475 84.833 L 121.163 84.250 124.121 84.167 L 127.078 84.083 127.198 83.417 C 127.755 80.317,125.129 78.239,121.945 79.260 M172.495 79.245 C 168.263 80.610,168.868 87.120,173.270 87.592 C 176.810 87.971,179.234 85.325,178.347 82.049 C 177.735 79.784,174.954 78.452,172.495 79.245 M220.417 79.156 C 216.789 80.039,216.097 85.474,219.391 87.207 C 220.855 87.978,225.167 87.492,225.167 86.557 C 225.167 86.360,224.749 85.395,224.579 85.197 C 224.554 85.168,224.169 85.327,223.725 85.549 C 221.779 86.525,219.890 86.082,219.424 84.542 L 219.311 84.167 222.221 84.167 C 225.534 84.167,225.333 84.264,225.333 82.648 C 225.333 79.971,223.224 78.472,220.417 79.156 M239.697 79.306 C 236.238 80.543,235.960 85.463,239.250 87.218 C 240.175 87.712,242.633 87.728,243.500 87.246 C 248.363 84.541,244.956 77.426,239.697 79.306 M263.778 79.260 C 259.896 80.504,260.164 86.686,264.136 87.511 C 265.852 87.867,268.652 87.333,268.935 86.596 C 269.036 86.332,268.378 85.107,268.190 85.209 C 265.981 86.409,264.104 86.329,263.419 85.005 C 262.991 84.178,262.992 84.177,266.041 84.129 L 268.915 84.083 269.070 83.350 C 269.697 80.374,266.943 78.246,263.778 79.260 M305.417 79.156 C 300.887 80.259,301.271 87.092,305.891 87.587 C 308.963 87.916,311.069 86.257,311.069 83.508 C 311.069 80.398,308.485 78.409,305.417 79.156 M355.197 79.306 C 351.009 80.804,351.698 87.091,356.105 87.590 C 358.775 87.892,360.708 86.645,361.198 84.303 C 361.928 80.822,358.632 78.078,355.197 79.306 M386.750 79.145 C 383.298 80.058,382.438 85.346,385.454 87.114 C 387.303 88.198,392.135 87.387,391.473 86.104 C 391.007 85.200,390.879 85.159,389.989 85.621 C 388.234 86.531,385.675 85.744,385.667 84.292 C 385.667 84.223,386.929 84.167,388.472 84.167 C 391.798 84.167,391.753 84.195,391.640 82.188 C 391.508 79.863,389.280 78.477,386.750 79.145 M105.070 79.483 C 104.014 79.962,103.666 80.521,103.670 81.731 C 103.676 83.257,104.176 83.715,106.435 84.263 C 108.260 84.707,108.629 85.037,108.000 85.667 C 107.546 86.120,106.148 86.113,104.911 85.650 C 103.815 85.240,103.815 85.240,103.778 86.259 C 103.742 87.277,104.191 87.469,106.652 87.487 C 109.189 87.506,110.250 86.797,110.250 85.083 C 110.250 83.694,109.573 83.098,107.395 82.569 C 105.573 82.127,105.204 81.796,105.833 81.167 C 106.238 80.762,107.413 80.727,108.417 81.088 C 109.506 81.481,110.000 81.099,110.000 79.862 C 110.000 79.227,106.267 78.939,105.070 79.483 M131.775 79.579 C 131.032 79.974,131.000 79.977,131.000 79.662 C 131.000 79.375,130.885 79.333,130.080 79.333 L 129.161 79.333 129.205 83.375 L 129.250 87.417 130.083 87.417 L 130.917 87.417 131.000 84.917 C 131.051 83.378,131.163 82.277,131.291 82.055 C 131.930 80.937,133.482 80.627,134.417 81.430 L 134.917 81.860 134.973 84.688 L 135.028 87.516 135.889 87.467 L 136.750 87.417 136.796 84.877 L 136.842 82.338 137.479 81.669 C 138.038 81.081,138.206 81.000,138.868 81.000 C 140.470 81.000,140.831 81.776,140.832 85.217 L 140.833 87.517 141.708 87.467 L 142.583 87.417 142.629 84.485 C 142.681 81.105,142.398 80.135,141.169 79.477 C 140.014 78.859,137.820 79.151,136.864 80.050 C 136.510 80.382,136.455 80.391,136.275 80.146 C 135.506 79.094,133.227 78.806,131.775 79.579 M145.917 79.388 C 145.261 79.596,145.250 79.613,145.260 80.379 C 145.274 81.394,145.338 81.436,146.351 81.109 C 148.020 80.570,149.277 80.886,149.567 81.917 C 149.656 82.232,149.578 82.251,148.122 82.260 C 145.218 82.280,143.740 83.843,144.517 86.072 C 144.997 87.448,147.637 88.076,149.125 87.168 L 149.667 86.838 149.667 87.178 C 149.667 87.483,149.756 87.512,150.542 87.467 L 151.417 87.417 151.462 84.238 C 151.512 80.724,151.445 80.463,150.280 79.599 C 149.704 79.172,147.012 79.042,145.917 79.388 M183.042 79.567 C 182.371 79.958,182.333 79.963,182.333 79.657 C 182.333 79.372,182.212 79.333,181.330 79.333 L 180.327 79.333 180.372 83.375 L 180.417 87.417 180.981 87.471 C 182.353 87.602,182.333 87.642,182.333 84.752 L 182.333 82.178 182.922 81.589 C 183.431 81.080,183.619 81.000,184.302 81.000 C 185.946 81.000,186.227 81.529,186.333 84.833 L 186.417 87.417 186.981 87.471 C 187.292 87.500,187.732 87.478,187.958 87.421 L 188.371 87.318 188.307 84.450 C 188.237 81.273,187.976 80.341,186.946 79.592 C 186.180 79.035,183.976 79.021,183.042 79.567 M213.833 79.284 C 213.696 79.334,213.377 79.567,213.125 79.802 L 212.667 80.229 212.667 79.781 C 212.667 79.349,212.634 79.333,211.747 79.333 L 210.827 79.333 210.872 83.375 L 210.917 87.417 211.792 87.467 L 212.667 87.517 212.667 85.167 C 212.667 82.694,212.777 82.219,213.549 81.375 C 213.915 80.974,215.372 80.825,215.583 81.167 C 215.900 81.678,216.847 80.376,216.609 79.756 C 216.421 79.267,214.691 78.972,213.833 79.284 M229.945 79.561 C 229.215 79.930,229.167 79.935,229.167 79.644 C 229.167 79.375,229.031 79.333,228.167 79.333 L 227.167 79.333 227.167 83.330 L 227.167 87.327 227.560 87.426 C 227.777 87.480,228.208 87.500,228.519 87.471 L 229.083 87.417 229.167 84.917 C 229.272 81.763,229.699 81.002,231.367 81.001 C 232.924 80.999,233.167 81.523,233.167 84.884 C 233.167 87.624,233.155 87.601,234.519 87.471 L 235.083 87.417 235.132 84.833 C 235.185 81.978,235.035 81.048,234.382 80.191 C 233.546 79.094,231.454 78.797,229.945 79.561 M286.667 79.389 L 285.917 79.585 285.951 80.318 C 285.997 81.319,286.133 81.406,287.176 81.096 C 288.629 80.664,289.587 80.791,290.120 81.486 C 290.534 82.025,290.358 82.125,288.873 82.196 C 286.259 82.321,285.167 83.183,285.167 85.122 C 285.167 87.135,287.471 88.213,289.743 87.264 C 290.236 87.058,290.320 87.059,290.402 87.273 C 290.472 87.455,290.721 87.505,291.373 87.467 L 292.250 87.417 292.250 84.250 C 292.250 80.592,292.093 80.086,290.766 79.484 C 289.970 79.122,287.874 79.074,286.667 79.389 M295.892 79.349 C 294.718 79.689,293.978 81.179,294.330 82.489 C 294.567 83.367,295.098 83.716,297.009 84.250 C 298.676 84.715,299.073 84.948,298.914 85.365 C 298.648 86.057,297.035 86.196,295.578 85.650 C 294.498 85.246,294.565 85.220,294.361 86.125 C 294.123 87.184,294.799 87.500,297.306 87.500 C 299.838 87.500,300.833 86.805,300.833 85.038 C 300.833 83.673,300.144 83.055,298.090 82.579 C 296.654 82.246,296.167 82.010,296.167 81.649 C 296.167 80.895,297.719 80.597,299.083 81.088 C 300.048 81.436,300.277 81.398,300.392 80.875 C 300.447 80.623,300.539 80.253,300.596 80.053 C 300.795 79.357,297.544 78.870,295.892 79.349 M314.203 79.376 C 312.972 79.770,312.275 81.294,312.725 82.604 C 312.998 83.399,313.758 83.867,315.412 84.261 C 317.254 84.699,317.633 85.034,317.000 85.667 C 316.546 86.120,315.148 86.113,313.911 85.650 C 313.397 85.458,312.956 85.327,312.930 85.359 C 312.718 85.621,312.564 86.844,312.727 86.971 C 313.440 87.525,316.914 87.727,317.800 87.266 C 320.069 86.085,319.622 83.458,317.031 82.741 C 315.116 82.211,314.777 82.077,314.599 81.781 C 314.127 80.997,315.932 80.553,317.417 81.088 C 318.506 81.480,319.000 81.068,319.000 79.766 C 319.000 79.303,315.356 79.006,314.203 79.376 M334.750 79.389 C 334.088 79.600,334.084 79.607,334.112 80.398 C 334.148 81.426,334.151 81.428,335.298 81.107 C 336.779 80.691,337.435 80.743,338.013 81.321 C 338.824 82.132,338.692 82.249,336.957 82.256 C 333.969 82.267,332.225 84.488,333.581 86.557 C 334.200 87.501,336.612 87.881,337.867 87.233 C 338.341 86.987,338.396 86.987,338.534 87.233 C 338.686 87.505,339.702 87.604,340.236 87.399 C 340.842 87.166,340.539 81.245,339.876 80.357 C 339.048 79.248,336.630 78.792,334.750 79.389 M365.773 79.578 C 365.198 79.969,365.167 79.973,365.167 79.662 C 365.167 79.371,365.050 79.333,364.167 79.333 L 363.167 79.333 363.167 83.417 L 363.167 87.500 363.903 87.500 C 365.215 87.500,365.167 87.605,365.167 84.744 L 365.167 82.190 365.744 81.578 C 366.340 80.946,366.949 80.859,368.095 81.241 C 368.487 81.372,369.130 80.246,368.942 79.756 C 368.674 79.058,366.704 78.947,365.773 79.578 M371.083 79.397 L 370.417 79.602 370.460 80.414 C 370.515 81.450,370.507 81.445,371.558 81.113 C 373.119 80.621,374.283 80.808,374.648 81.610 C 374.936 82.241,374.919 82.250,373.374 82.255 C 370.334 82.266,368.741 84.226,369.919 86.505 C 370.444 87.519,373.055 87.922,374.275 87.178 C 374.794 86.862,374.802 86.862,374.885 87.179 C 374.975 87.525,376.181 87.644,376.641 87.353 C 377.087 87.070,376.840 81.229,376.349 80.439 C 375.619 79.264,373.123 78.770,371.083 79.397 M394.892 79.349 C 392.442 80.058,392.769 83.552,395.333 84.066 C 395.563 84.112,395.938 84.195,396.167 84.251 C 396.396 84.307,396.658 84.369,396.750 84.389 C 396.842 84.410,397.010 84.485,397.125 84.556 C 397.240 84.628,397.333 84.633,397.333 84.568 C 397.333 84.502,397.479 84.617,397.656 84.821 C 398.571 85.876,396.086 86.431,394.294 85.572 C 393.563 85.222,393.564 85.221,393.362 86.123 C 393.126 87.170,393.556 87.400,395.883 87.473 C 398.655 87.561,399.667 86.945,399.667 85.172 C 399.667 83.555,399.333 83.249,396.777 82.519 C 395.432 82.135,395.243 82.034,395.193 81.676 C 395.077 80.860,396.593 80.551,398.083 81.088 C 398.450 81.220,398.832 81.329,398.932 81.331 C 399.098 81.333,399.500 80.295,399.500 79.862 C 399.500 79.337,396.202 78.969,394.892 79.349 M99.705 83.375 L 99.750 87.417 100.583 87.417 L 101.417 87.417 101.461 83.375 L 101.506 79.333 100.583 79.333 L 99.661 79.333 99.705 83.375 M200.667 82.255 C 200.667 85.857,200.895 86.590,202.219 87.251 C 202.989 87.635,205.109 87.584,205.796 87.166 C 206.463 86.759,206.442 86.759,206.548 87.167 C 206.621 87.445,206.776 87.500,207.484 87.500 L 208.333 87.500 208.333 83.417 L 208.333 79.333 207.417 79.333 L 206.500 79.333 206.500 81.936 L 206.500 84.539 205.853 85.186 C 205.103 85.936,204.273 86.082,203.361 85.624 C 202.626 85.255,202.500 84.715,202.500 81.925 L 202.500 79.333 201.583 79.333 L 200.667 79.333 200.667 82.255 M123.977 80.770 C 124.632 80.901,125.333 81.592,125.333 82.106 C 125.333 82.498,125.325 82.500,123.333 82.500 C 121.715 82.500,121.333 82.455,121.333 82.263 C 121.333 81.859,122.167 81.010,122.722 80.850 C 123.416 80.649,123.380 80.651,123.977 80.770 M222.577 80.925 C 223.100 81.173,223.500 81.751,223.500 82.258 C 223.500 82.457,223.127 82.500,221.417 82.500 C 219.204 82.500,219.131 82.468,219.694 81.754 C 220.498 80.732,221.539 80.432,222.577 80.925 M266.242 80.903 C 266.842 81.153,267.167 81.593,267.167 82.156 C 267.167 82.485,267.077 82.500,265.167 82.500 C 263.007 82.500,262.831 82.412,263.458 81.649 C 264.122 80.841,265.324 80.519,266.242 80.903 M388.734 80.899 C 389.341 81.153,389.833 81.737,389.833 82.204 C 389.833 82.472,389.635 82.500,387.750 82.500 C 385.508 82.500,385.514 82.502,385.979 81.740 C 386.548 80.808,387.684 80.461,388.734 80.899 M175.520 81.347 C 176.723 82.204,176.934 83.898,175.981 85.054 C 174.061 87.383,170.448 84.882,171.827 82.179 C 172.504 80.852,174.267 80.455,175.520 81.347 M195.914 81.350 L 196.506 81.750 196.461 83.500 L 196.417 85.250 195.667 85.636 C 194.580 86.195,193.499 86.079,192.833 85.333 C 190.661 82.900,193.254 79.550,195.914 81.350 M242.821 81.324 C 244.383 82.437,244.212 84.759,242.503 85.625 C 239.853 86.968,237.517 83.583,239.693 81.552 C 240.553 80.749,241.877 80.652,242.821 81.324 M256.340 81.208 L 257.083 81.583 257.130 83.441 L 257.177 85.298 256.411 85.670 C 254.533 86.579,252.724 85.314,252.880 83.201 C 253.022 81.276,254.634 80.348,256.340 81.208 M307.521 81.049 C 310.605 82.465,308.905 86.964,305.742 85.756 C 303.704 84.978,303.583 82.154,305.546 81.182 C 306.337 80.791,306.878 80.754,307.521 81.049 M347.489 81.016 C 350.161 81.817,349.152 86.267,346.370 85.954 C 344.940 85.792,344.750 85.493,344.750 83.399 L 344.750 81.583 345.494 81.208 C 346.334 80.784,346.622 80.757,347.489 81.016 M357.933 81.151 C 358.803 81.546,359.389 82.458,359.389 83.418 C 359.389 85.962,355.939 86.894,354.697 84.686 C 353.457 82.480,355.630 80.105,357.933 81.151 M149.469 83.811 C 149.611 83.901,149.670 84.209,149.636 84.683 C 149.515 86.366,146.333 86.672,146.333 85.000 C 146.333 84.055,148.536 83.219,149.469 83.811 M290.301 84.558 C 290.400 86.098,287.698 86.813,287.156 85.389 C 286.935 84.807,286.951 84.737,287.417 84.234 C 287.646 83.987,287.833 83.831,287.833 83.887 C 287.833 83.943,288.002 83.920,288.208 83.835 C 288.415 83.750,288.958 83.696,289.417 83.715 L 290.250 83.750 290.301 84.558 M338.467 84.539 C 338.571 86.152,335.623 86.796,335.234 85.246 C 334.996 84.299,335.979 83.661,337.583 83.720 L 338.417 83.750 338.467 84.539 M374.799 84.585 C 374.878 85.933,372.671 86.742,371.811 85.680 C 370.952 84.620,371.957 83.644,373.833 83.715 L 374.750 83.750 374.799 84.585 " stroke="none" fill="#e45c2c" fill-rule="evenodd"></path><path id="path1" d="M265.000 8.644 C 265.000 8.702,264.385 8.757,263.633 8.766 C 262.882 8.775,262.245 8.850,262.217 8.933 C 262.189 9.016,261.867 9.077,261.500 9.070 C 261.133 9.063,260.833 9.109,260.833 9.172 C 260.833 9.236,260.646 9.267,260.417 9.242 C 260.189 9.217,259.958 9.266,259.906 9.351 C 259.853 9.436,259.737 9.460,259.648 9.405 C 259.559 9.350,259.362 9.405,259.211 9.527 C 258.976 9.717,258.957 9.713,259.076 9.500 C 259.185 9.304,259.170 9.292,259.004 9.445 C 258.888 9.553,258.677 9.596,258.536 9.542 C 258.367 9.477,258.320 9.510,258.399 9.638 C 258.525 9.842,258.392 9.882,257.625 9.866 C 257.373 9.861,257.167 9.924,257.167 10.006 C 257.167 10.089,257.042 10.108,256.889 10.050 C 256.692 9.974,256.650 10.005,256.744 10.156 C 256.842 10.316,256.781 10.339,256.500 10.250 C 256.265 10.175,256.163 10.193,256.228 10.298 C 256.326 10.456,255.580 10.760,255.272 10.688 C 255.193 10.669,254.930 10.785,254.689 10.946 C 254.448 11.106,254.175 11.242,254.083 11.247 C 253.734 11.267,253.064 11.557,252.583 11.897 C 252.308 12.091,252.046 12.256,252.000 12.264 C 251.685 12.319,251.201 12.626,250.879 12.973 C 250.655 13.215,250.500 13.291,250.500 13.159 C 250.500 13.019,250.409 13.056,250.255 13.260 C 250.121 13.438,250.008 13.516,250.005 13.434 C 250.002 13.352,249.816 13.483,249.591 13.726 C 249.367 13.968,249.062 14.167,248.915 14.167 C 248.768 14.167,248.681 14.223,248.723 14.292 C 248.821 14.455,248.400 14.844,248.268 14.712 C 248.212 14.657,248.167 14.711,248.167 14.833 C 248.167 14.956,248.122 15.010,248.066 14.955 C 247.922 14.811,247.193 15.553,247.299 15.737 C 247.348 15.821,247.261 15.841,247.105 15.782 C 246.908 15.706,246.778 15.786,246.675 16.045 C 246.593 16.249,246.165 16.729,245.722 17.110 C 244.487 18.172,244.211 18.431,244.492 18.260 C 244.634 18.174,244.355 18.499,243.873 18.981 C 243.391 19.464,243.028 19.910,243.066 19.973 C 243.149 20.106,242.708 20.750,242.534 20.750 C 242.470 20.750,242.435 20.806,242.458 20.875 C 242.481 20.944,242.425 21.000,242.333 21.000 C 242.242 21.000,242.176 21.056,242.186 21.125 C 242.239 21.457,242.150 21.676,242.000 21.583 C 241.908 21.527,241.833 21.597,241.833 21.740 C 241.833 21.883,241.760 22.000,241.671 22.000 C 241.535 22.000,240.955 22.899,240.919 23.167 C 240.875 23.498,239.751 25.667,239.624 25.667 C 239.536 25.667,239.507 25.777,239.558 25.912 C 239.610 26.047,239.538 26.271,239.399 26.411 C 239.260 26.550,239.184 26.726,239.231 26.802 C 239.278 26.878,239.212 27.141,239.085 27.387 C 238.957 27.632,238.895 27.833,238.947 27.833 C 238.999 27.833,238.957 27.934,238.855 28.057 C 238.753 28.180,238.719 28.330,238.779 28.390 C 238.840 28.451,238.783 28.501,238.653 28.503 C 238.458 28.505,238.461 28.534,238.667 28.667 C 238.804 28.756,238.831 28.829,238.726 28.831 C 238.564 28.833,238.371 29.274,238.249 29.917 C 238.232 30.008,238.201 30.121,238.181 30.167 C 238.162 30.212,238.116 30.475,238.080 30.750 C 237.986 31.465,237.923 31.725,237.792 31.934 C 237.728 32.036,237.707 32.278,237.745 32.473 C 237.782 32.667,237.749 32.866,237.672 32.913 C 237.594 32.961,237.547 33.413,237.567 33.917 C 237.587 34.421,237.552 34.833,237.489 34.833 C 237.301 34.833,237.356 35.732,237.560 35.990 C 237.707 36.176,237.702 36.202,237.536 36.102 C 237.366 36.000,237.327 36.388,237.344 37.987 C 237.360 39.379,237.426 40.001,237.558 40.003 C 237.675 40.004,237.660 40.062,237.520 40.151 C 237.383 40.238,237.344 40.383,237.425 40.513 C 237.498 40.632,237.579 41.146,237.605 41.656 C 237.674 43.062,237.769 43.524,238.021 43.683 C 238.147 43.763,238.171 43.829,238.075 43.831 C 237.974 43.832,237.929 44.078,237.968 44.415 C 238.009 44.765,238.106 44.954,238.210 44.890 C 238.314 44.825,238.335 44.863,238.261 44.982 C 238.194 45.091,238.226 45.287,238.333 45.417 C 238.441 45.546,238.478 45.734,238.417 45.833 C 238.355 45.933,238.373 46.105,238.456 46.216 C 238.540 46.326,238.704 46.754,238.821 47.167 C 238.939 47.579,239.108 48.007,239.198 48.118 C 239.288 48.228,239.314 48.397,239.255 48.493 C 239.195 48.588,239.220 48.667,239.310 48.667 C 239.400 48.667,239.525 48.902,239.588 49.190 C 239.652 49.477,239.952 50.190,240.256 50.773 C 240.560 51.356,240.758 51.836,240.696 51.839 C 240.634 51.842,240.737 51.973,240.925 52.131 C 241.113 52.288,241.282 52.454,241.299 52.500 C 241.317 52.546,241.423 52.827,241.535 53.125 C 241.648 53.423,241.798 53.667,241.870 53.667 C 241.941 53.667,242.000 53.784,242.000 53.927 C 242.000 54.069,242.064 54.147,242.142 54.098 C 242.221 54.050,242.376 54.211,242.488 54.456 C 242.600 54.702,242.837 55.004,243.015 55.129 C 243.193 55.254,243.301 55.418,243.254 55.494 C 243.207 55.570,243.291 55.679,243.441 55.736 C 243.592 55.794,243.673 55.883,243.621 55.934 C 243.570 55.985,243.840 56.321,244.222 56.680 C 244.603 57.039,244.847 57.333,244.765 57.333 C 244.552 57.333,245.180 57.999,245.401 58.006 C 245.501 58.010,245.735 58.254,245.919 58.548 C 246.104 58.842,246.423 59.107,246.628 59.137 C 246.832 59.166,247.000 59.284,247.000 59.400 C 247.000 59.516,247.185 59.709,247.411 59.830 C 247.637 59.951,247.783 60.114,247.734 60.192 C 247.686 60.270,247.806 60.333,248.000 60.333 C 248.194 60.333,248.307 60.408,248.250 60.500 C 248.193 60.592,248.268 60.667,248.417 60.667 C 248.578 60.667,248.639 60.744,248.567 60.859 C 248.496 60.974,248.521 61.006,248.630 60.939 C 248.730 60.877,249.129 61.128,249.517 61.497 C 249.904 61.865,250.321 62.167,250.444 62.167 C 250.566 62.167,250.667 62.250,250.667 62.351 C 250.667 62.453,250.783 62.491,250.925 62.436 C 251.074 62.379,251.141 62.407,251.082 62.502 C 251.026 62.593,251.097 62.667,251.240 62.667 C 251.383 62.667,251.500 62.729,251.500 62.806 C 251.500 62.882,251.594 62.947,251.708 62.950 C 251.823 62.953,252.398 63.231,252.987 63.568 C 253.575 63.905,254.154 64.143,254.273 64.098 C 254.392 64.052,254.541 64.098,254.604 64.200 C 254.678 64.320,254.641 64.337,254.500 64.250 C 254.355 64.160,254.322 64.180,254.402 64.310 C 254.469 64.418,254.601 64.457,254.697 64.398 C 254.792 64.339,254.924 64.377,254.989 64.483 C 255.054 64.588,255.286 64.709,255.504 64.751 C 255.722 64.793,256.129 64.934,256.408 65.065 C 256.688 65.196,257.104 65.329,257.333 65.360 C 257.563 65.391,257.789 65.469,257.837 65.532 C 257.886 65.596,258.272 65.671,258.696 65.699 C 259.121 65.727,259.434 65.806,259.392 65.874 C 259.349 65.942,259.488 65.991,259.699 65.983 C 260.143 65.966,260.750 66.095,261.026 66.266 C 261.150 66.343,261.173 66.311,261.089 66.176 C 260.987 66.011,261.036 66.008,261.324 66.162 C 262.432 66.755,270.455 66.750,273.333 66.155 C 273.837 66.050,274.400 65.942,274.583 65.913 C 274.767 65.885,274.917 65.849,274.917 65.834 C 274.917 65.791,275.374 65.686,276.000 65.586 C 276.882 65.444,280.986 63.946,280.895 63.799 C 280.852 63.728,280.916 63.709,281.037 63.755 C 281.159 63.802,281.697 63.576,282.233 63.253 C 282.769 62.931,283.310 62.667,283.437 62.667 C 283.563 62.667,283.667 62.597,283.667 62.511 C 283.667 62.426,283.835 62.303,284.042 62.239 C 284.544 62.082,287.333 60.170,287.333 59.982 C 287.333 59.900,287.441 59.833,287.572 59.833 C 287.703 59.833,287.971 59.608,288.167 59.333 C 288.362 59.058,288.630 58.833,288.761 58.833 C 288.893 58.833,289.000 58.711,289.000 58.561 C 289.000 58.213,288.357 57.167,288.143 57.167 C 288.054 57.167,288.024 57.096,288.077 57.010 C 288.130 56.924,288.041 56.776,287.879 56.682 C 287.716 56.587,287.642 56.508,287.715 56.505 C 287.864 56.499,286.512 54.446,286.303 54.361 C 286.228 54.331,286.167 54.199,286.167 54.069 C 286.167 53.940,286.092 53.833,286.000 53.833 C 285.908 53.833,285.833 53.721,285.833 53.583 C 285.833 53.446,285.758 53.333,285.667 53.333 C 285.575 53.333,285.500 53.221,285.500 53.083 C 285.500 52.946,285.425 52.833,285.333 52.833 C 285.242 52.833,285.167 52.725,285.167 52.592 C 285.167 52.459,285.035 52.273,284.875 52.180 C 284.715 52.087,284.640 52.008,284.710 52.005 C 284.846 52.000,283.676 50.167,283.537 50.167 C 283.491 50.167,282.808 50.597,282.019 51.123 C 280.061 52.427,276.740 54.109,276.292 54.024 C 276.223 54.011,276.167 54.087,276.167 54.194 C 276.167 54.301,276.123 54.345,276.070 54.292 C 276.016 54.239,275.716 54.302,275.403 54.433 C 275.090 54.564,274.833 54.634,274.833 54.590 C 274.833 54.545,274.628 54.586,274.377 54.682 C 274.126 54.777,273.357 54.960,272.668 55.088 C 271.980 55.216,271.192 55.370,270.917 55.431 C 270.128 55.603,264.550 55.653,263.954 55.493 C 263.440 55.354,262.699 55.193,262.167 55.103 C 262.029 55.080,261.700 54.970,261.436 54.859 C 261.171 54.748,260.834 54.637,260.686 54.612 C 260.538 54.587,260.258 54.480,260.064 54.373 C 259.869 54.266,259.663 54.226,259.605 54.284 C 259.547 54.342,259.500 54.306,259.500 54.206 C 259.500 54.026,258.872 53.735,258.625 53.800 C 258.556 53.818,258.500 53.763,258.500 53.678 C 258.500 53.592,258.337 53.471,258.138 53.408 C 257.939 53.344,257.695 53.226,257.596 53.145 C 257.497 53.064,256.760 52.468,255.958 51.821 C 255.156 51.173,254.500 50.587,254.500 50.518 C 254.500 50.449,254.201 50.097,253.836 49.738 C 253.471 49.378,253.171 48.990,253.169 48.875 C 253.168 48.760,253.097 48.667,253.011 48.667 C 252.926 48.667,252.808 48.517,252.750 48.334 C 252.692 48.152,252.551 47.908,252.436 47.793 C 252.161 47.517,250.747 44.687,250.621 44.160 C 250.279 42.727,250.146 42.221,250.054 42.000 C 249.933 41.710,249.925 41.646,249.696 39.364 C 249.584 38.245,249.578 37.081,249.679 36.031 C 249.920 33.534,249.956 33.333,250.409 32.012 C 250.642 31.332,250.833 30.638,250.833 30.471 C 250.833 30.304,250.900 30.167,250.982 30.167 C 251.127 30.167,251.415 29.374,251.361 29.125 C 251.346 29.056,251.413 29.000,251.510 29.000 C 251.607 29.000,251.640 28.925,251.583 28.833 C 251.527 28.742,251.560 28.667,251.657 28.667 C 251.754 28.667,251.833 28.554,251.833 28.417 C 251.833 28.279,251.913 28.167,252.010 28.167 C 252.107 28.167,252.145 28.100,252.095 28.019 C 252.045 27.938,252.120 27.774,252.263 27.656 C 252.405 27.538,252.641 27.210,252.786 26.929 C 252.931 26.647,253.188 26.319,253.358 26.199 C 253.528 26.079,253.667 25.925,253.667 25.856 C 253.667 25.685,256.165 23.167,256.335 23.167 C 256.411 23.167,256.497 23.110,256.528 23.042 C 256.657 22.750,259.962 20.833,260.335 20.833 C 260.403 20.833,260.750 20.709,261.105 20.556 C 261.460 20.403,261.862 20.260,262.000 20.238 C 262.137 20.215,262.438 20.148,262.667 20.089 C 263.679 19.829,264.076 19.796,266.833 19.742 C 268.438 19.711,270.162 19.755,270.667 19.840 C 271.171 19.924,271.846 20.028,272.167 20.070 C 272.487 20.112,272.994 20.221,273.292 20.312 C 273.590 20.402,273.833 20.429,273.833 20.372 C 273.833 20.314,273.923 20.357,274.033 20.467 C 274.143 20.577,274.428 20.667,274.667 20.667 C 274.905 20.667,275.171 20.735,275.258 20.818 C 275.345 20.901,275.679 21.045,276.000 21.139 C 277.480 21.570,281.378 23.537,282.000 24.167 C 282.737 24.914,284.127 25.444,283.751 24.835 C 283.694 24.742,283.726 24.667,283.823 24.667 C 283.921 24.667,284.000 24.554,284.000 24.417 C 284.000 24.279,284.075 24.167,284.167 24.167 C 284.258 24.167,284.333 24.060,284.333 23.931 C 284.333 23.801,284.397 23.669,284.475 23.639 C 284.601 23.589,285.898 21.653,288.220 18.048 C 288.917 16.966,289.080 16.333,288.661 16.333 C 288.585 16.333,288.425 16.239,288.304 16.123 C 288.182 16.007,287.746 15.652,287.333 15.335 C 286.921 15.018,286.546 14.713,286.500 14.658 C 286.131 14.210,282.552 12.063,282.292 12.133 C 282.223 12.152,282.167 12.087,282.167 11.990 C 282.167 11.893,282.100 11.855,282.019 11.905 C 281.938 11.955,281.776 11.881,281.659 11.741 C 281.542 11.600,281.346 11.523,281.223 11.571 C 281.100 11.618,281.000 11.580,281.000 11.487 C 281.000 11.395,280.869 11.341,280.708 11.368 C 280.545 11.395,280.435 11.325,280.458 11.208 C 280.483 11.086,280.328 11.000,280.083 11.000 C 279.854 11.000,279.667 10.925,279.667 10.833 C 279.667 10.742,279.448 10.667,279.181 10.667 C 278.913 10.667,278.666 10.582,278.632 10.479 C 278.598 10.376,278.366 10.292,278.118 10.292 C 277.870 10.292,277.667 10.239,277.667 10.174 C 277.667 10.054,277.502 10.014,276.750 9.951 C 276.521 9.932,276.333 9.863,276.333 9.797 C 276.333 9.731,276.209 9.725,276.056 9.784 C 275.903 9.842,275.821 9.821,275.873 9.737 C 275.926 9.652,275.707 9.569,275.387 9.551 C 275.067 9.533,274.699 9.430,274.570 9.322 C 274.385 9.169,274.333 9.176,274.331 9.355 C 274.329 9.546,274.304 9.545,274.181 9.351 C 274.095 9.215,273.889 9.157,273.684 9.210 C 273.491 9.261,273.333 9.234,273.333 9.150 C 273.333 9.066,273.015 9.000,272.625 9.002 C 271.726 9.008,271.121 8.928,270.867 8.771 C 270.757 8.703,270.667 8.729,270.667 8.829 C 270.667 8.960,270.567 8.958,270.316 8.824 C 270.119 8.719,269.716 8.683,269.399 8.742 C 269.037 8.810,268.833 8.783,268.833 8.666 C 268.833 8.544,268.207 8.493,266.917 8.511 C 265.862 8.526,265.000 8.585,265.000 8.644 M109.592 8.797 C 109.563 8.826,109.024 8.883,108.394 8.922 C 107.045 9.007,106.638 9.081,106.188 9.322 C 105.955 9.447,105.821 9.448,105.745 9.326 C 105.671 9.205,105.564 9.211,105.404 9.344 C 105.276 9.450,105.064 9.496,104.933 9.446 C 104.802 9.396,104.659 9.446,104.616 9.559 C 104.572 9.674,104.274 9.755,103.935 9.743 C 103.604 9.732,103.333 9.786,103.333 9.862 C 103.333 9.938,103.277 9.983,103.208 9.963 C 103.003 9.901,101.498 10.368,101.403 10.523 C 101.354 10.602,101.131 10.667,100.907 10.667 C 100.638 10.667,100.500 10.761,100.500 10.944 C 100.500 11.097,100.453 11.175,100.396 11.118 C 100.276 10.998,99.393 11.415,98.958 11.796 C 98.718 12.007,98.666 12.011,98.661 11.817 C 98.657 11.644,98.599 11.659,98.435 11.875 C 98.313 12.035,98.128 12.167,98.023 12.167 C 97.919 12.167,97.833 12.246,97.833 12.343 C 97.833 12.440,97.764 12.477,97.680 12.425 C 97.596 12.373,97.260 12.582,96.933 12.890 C 96.607 13.198,96.307 13.418,96.268 13.379 C 96.229 13.340,96.147 13.465,96.087 13.657 C 96.026 13.848,95.906 13.962,95.821 13.909 C 95.736 13.857,95.667 13.933,95.667 14.079 C 95.667 14.225,95.535 14.390,95.375 14.447 C 95.096 14.546,94.167 15.433,94.167 15.601 C 94.167 15.645,93.983 15.879,93.759 16.121 C 93.535 16.363,93.389 16.623,93.436 16.698 C 93.483 16.774,93.404 16.881,93.261 16.936 C 93.117 16.991,93.000 17.135,93.000 17.256 C 93.000 17.377,92.899 17.577,92.776 17.700 C 92.435 18.041,92.140 18.656,92.240 18.818 C 92.290 18.897,92.219 19.054,92.083 19.167 C 91.948 19.279,91.878 19.438,91.928 19.519 C 91.979 19.600,91.928 19.667,91.815 19.667 C 91.703 19.667,91.660 19.716,91.721 19.776 C 91.781 19.837,91.765 19.968,91.686 20.068 C 91.540 20.252,91.040 22.203,91.021 22.667 C 91.015 22.804,90.967 23.254,90.915 23.667 C 90.831 24.327,90.817 26.181,90.883 27.792 C 90.895 28.090,90.953 28.333,91.013 28.333 C 91.072 28.333,91.088 28.505,91.047 28.715 C 90.881 29.587,92.980 34.500,93.519 34.500 C 93.600 34.500,93.667 34.601,93.667 34.724 C 93.667 34.847,94.173 35.416,94.792 35.989 C 96.334 37.416,96.517 37.566,97.042 37.828 C 97.294 37.953,97.500 38.123,97.500 38.205 C 97.500 38.286,97.567 38.312,97.648 38.262 C 97.729 38.211,97.888 38.282,98.002 38.419 C 98.115 38.555,98.311 38.667,98.437 38.667 C 98.563 38.667,98.667 38.746,98.667 38.843 C 98.667 38.940,98.742 38.973,98.833 38.917 C 98.925 38.860,99.000 38.898,99.000 39.000 C 99.000 39.102,99.075 39.140,99.167 39.083 C 99.258 39.027,99.333 39.064,99.333 39.167 C 99.333 39.269,99.408 39.307,99.500 39.250 C 99.592 39.193,99.667 39.226,99.667 39.323 C 99.667 39.421,99.723 39.488,99.792 39.473 C 100.064 39.413,100.833 39.713,100.833 39.879 C 100.833 39.976,100.881 40.008,100.939 39.950 C 100.996 39.892,101.203 39.934,101.397 40.042 C 101.591 40.150,101.806 40.250,101.875 40.265 C 101.944 40.280,102.056 40.312,102.125 40.338 C 102.194 40.363,102.325 40.395,102.417 40.408 C 102.508 40.421,102.752 40.525,102.958 40.639 C 103.165 40.752,103.333 40.807,103.333 40.760 C 103.333 40.713,103.540 40.755,103.792 40.853 C 104.223 41.020,104.762 41.158,105.333 41.248 C 105.471 41.269,105.696 41.330,105.833 41.382 C 106.308 41.562,108.074 42.031,108.419 42.067 C 108.609 42.088,108.860 42.163,108.976 42.235 C 109.093 42.308,109.233 42.322,109.287 42.268 C 109.342 42.214,109.475 42.243,109.583 42.333 C 109.692 42.423,109.999 42.525,110.265 42.560 C 110.532 42.595,110.862 42.667,111.000 42.722 C 111.397 42.879,114.559 43.651,115.270 43.764 C 115.624 43.821,116.118 43.972,116.366 44.100 C 116.614 44.228,116.891 44.333,116.981 44.333 C 117.071 44.333,117.356 44.421,117.614 44.528 C 117.872 44.635,118.127 44.728,118.180 44.736 C 118.234 44.744,118.751 45.031,119.330 45.375 C 119.909 45.719,120.428 46.001,120.483 46.003 C 120.694 46.008,121.861 47.762,121.950 48.207 C 122.001 48.464,122.100 48.709,122.169 48.752 C 122.239 48.795,122.260 49.262,122.217 49.790 C 122.174 50.318,122.128 50.881,122.117 51.042 C 122.105 51.202,122.036 51.333,121.964 51.333 C 121.892 51.333,121.833 51.442,121.833 51.575 C 121.833 52.037,120.173 54.156,120.164 53.707 C 120.163 53.639,120.106 53.663,120.039 53.761 C 119.972 53.859,119.526 54.131,119.049 54.366 C 118.572 54.601,118.216 54.827,118.258 54.869 C 118.299 54.910,118.240 54.948,118.125 54.953 C 118.010 54.957,117.729 55.007,117.500 55.062 C 117.271 55.117,116.783 55.232,116.417 55.317 C 116.050 55.402,115.563 55.526,115.333 55.593 C 114.748 55.764,108.159 55.822,107.733 55.660 C 107.540 55.587,106.918 55.486,106.350 55.435 C 105.782 55.385,105.251 55.302,105.169 55.251 C 105.087 55.201,104.697 55.116,104.302 55.062 C 103.907 55.008,103.501 54.897,103.401 54.817 C 103.301 54.736,103.172 54.717,103.114 54.775 C 103.056 54.833,102.912 54.802,102.796 54.706 C 102.597 54.543,100.638 53.915,100.538 53.983 C 100.512 54.000,100.287 53.907,100.038 53.777 C 99.536 53.516,99.223 53.377,97.750 52.767 C 96.541 52.266,95.369 51.668,95.590 51.664 C 95.761 51.662,95.169 51.295,94.529 51.007 C 94.316 50.911,94.024 50.714,93.880 50.570 C 93.614 50.304,93.243 50.553,93.438 50.867 C 93.483 50.940,93.448 51.000,93.360 51.000 C 93.273 51.000,93.117 51.481,93.015 52.069 C 92.912 52.657,92.717 53.454,92.581 53.839 C 92.445 54.224,92.261 54.994,92.171 55.551 C 92.082 56.107,91.857 57.054,91.671 57.656 C 91.183 59.240,90.691 61.605,90.812 61.781 C 90.948 61.976,93.379 63.167,93.643 63.167 C 93.754 63.167,94.021 63.282,94.235 63.422 C 94.450 63.563,94.803 63.717,95.021 63.765 C 95.661 63.907,95.914 63.972,95.958 64.008 C 95.981 64.027,96.075 64.060,96.167 64.083 C 96.258 64.106,96.390 64.143,96.458 64.166 C 96.527 64.188,96.640 64.197,96.708 64.186 C 96.777 64.176,96.833 64.237,96.833 64.323 C 96.833 64.409,97.172 64.530,97.585 64.592 C 97.999 64.654,98.374 64.764,98.419 64.837 C 98.464 64.909,98.651 64.929,98.834 64.881 C 99.018 64.833,99.267 64.875,99.387 64.975 C 99.638 65.184,101.530 65.686,102.208 65.724 C 102.460 65.738,102.667 65.806,102.667 65.875 C 102.667 65.944,102.723 65.985,102.792 65.967 C 102.860 65.949,103.432 66.028,104.061 66.142 C 104.691 66.256,105.240 66.316,105.282 66.274 C 105.324 66.232,105.578 66.260,105.846 66.337 C 106.188 66.435,106.334 66.418,106.336 66.280 C 106.338 66.155,106.392 66.168,106.486 66.316 C 106.567 66.444,106.751 66.503,106.895 66.448 C 107.038 66.393,107.196 66.412,107.245 66.491 C 107.350 66.662,114.863 66.598,115.583 66.420 C 115.858 66.352,116.365 66.293,116.708 66.289 C 117.052 66.285,117.333 66.233,117.333 66.173 C 117.333 66.113,117.540 66.078,117.792 66.095 C 118.245 66.125,119.529 65.802,120.333 65.455 C 120.563 65.356,120.814 65.291,120.893 65.310 C 120.971 65.329,121.140 65.258,121.268 65.152 C 121.395 65.046,121.500 65.021,121.500 65.096 C 121.500 65.172,121.584 65.149,121.687 65.046 C 121.790 64.944,121.990 64.904,122.131 64.958 C 122.315 65.029,122.349 64.993,122.250 64.833 C 122.149 64.671,122.186 64.639,122.387 64.715 C 122.538 64.773,122.869 64.718,123.122 64.592 C 123.376 64.466,123.977 64.194,124.458 63.987 C 124.940 63.779,125.333 63.510,125.333 63.388 C 125.333 63.266,125.390 63.184,125.458 63.206 C 125.669 63.273,126.667 62.803,126.667 62.637 C 126.667 62.551,126.737 62.524,126.823 62.577 C 126.909 62.630,127.057 62.541,127.151 62.379 C 127.246 62.216,127.325 62.156,127.328 62.245 C 127.331 62.335,127.554 62.166,127.824 61.870 C 128.094 61.575,128.378 61.333,128.455 61.333 C 128.604 61.333,130.833 59.186,130.833 59.041 C 130.833 58.994,131.040 58.769,131.292 58.541 C 131.544 58.314,131.637 58.180,131.500 58.244 C 131.362 58.308,131.456 58.170,131.708 57.938 C 131.960 57.706,132.167 57.448,132.167 57.364 C 132.167 57.280,132.314 57.024,132.495 56.795 C 132.675 56.566,132.775 56.330,132.717 56.272 C 132.659 56.214,132.694 56.167,132.794 56.167 C 132.974 56.167,133.265 55.538,133.200 55.292 C 133.182 55.223,133.248 55.167,133.347 55.167 C 133.447 55.167,133.497 55.074,133.459 54.960 C 133.421 54.846,133.486 54.656,133.605 54.538 C 133.723 54.420,133.777 54.213,133.725 54.079 C 133.673 53.944,133.712 53.833,133.810 53.833 C 133.909 53.833,133.943 53.713,133.887 53.567 C 133.831 53.420,133.867 53.249,133.968 53.187 C 134.068 53.124,134.186 52.813,134.229 52.495 C 134.272 52.177,134.344 51.758,134.389 51.565 C 134.699 50.245,134.667 45.877,134.350 46.073 C 134.288 46.111,134.232 46.016,134.225 45.863 C 134.211 45.579,134.067 44.642,133.961 44.142 C 133.928 43.991,133.793 43.735,133.659 43.575 C 133.526 43.414,133.432 43.237,133.451 43.183 C 133.522 42.979,133.292 42.333,133.149 42.333 C 133.067 42.333,133.017 42.277,133.038 42.208 C 133.095 42.021,132.294 40.667,132.126 40.667 C 132.046 40.667,132.021 40.600,132.072 40.519 C 132.245 40.239,129.780 37.667,129.339 37.667 C 129.233 37.667,129.193 37.592,129.250 37.500 C 129.307 37.408,129.236 37.333,129.093 37.333 C 128.950 37.333,128.833 37.270,128.833 37.192 C 128.833 36.923,125.877 35.167,125.424 35.167 C 125.283 35.167,125.167 35.104,125.167 35.027 C 125.167 34.914,123.500 34.114,123.174 34.071 C 123.124 34.065,122.896 33.976,122.667 33.874 C 121.786 33.482,119.975 32.996,119.799 33.104 C 119.698 33.167,119.661 33.145,119.716 33.055 C 119.772 32.965,119.430 32.797,118.950 32.679 C 118.473 32.562,117.768 32.363,117.383 32.238 C 116.998 32.112,116.510 31.972,116.300 31.927 C 116.089 31.881,115.639 31.775,115.300 31.691 C 114.961 31.608,114.642 31.580,114.592 31.631 C 114.541 31.681,114.500 31.635,114.500 31.528 C 114.500 31.421,114.444 31.349,114.375 31.367 C 114.306 31.386,113.987 31.313,113.667 31.204 C 113.346 31.095,112.933 30.979,112.750 30.945 C 112.567 30.911,112.304 30.842,112.167 30.792 C 112.029 30.742,111.279 30.533,110.500 30.327 C 104.285 28.688,102.360 26.910,103.195 23.583 C 103.382 22.837,105.000 20.590,105.000 21.076 C 105.000 21.126,105.150 21.017,105.333 20.833 C 105.517 20.650,105.839 20.500,106.050 20.500 C 106.261 20.500,106.505 20.429,106.592 20.343 C 106.679 20.257,106.957 20.149,107.210 20.104 C 107.463 20.059,107.801 19.980,107.962 19.929 C 109.444 19.459,114.514 19.453,117.500 19.919 C 118.780 20.118,119.137 20.186,119.667 20.329 C 119.987 20.416,121.112 20.722,122.167 21.008 C 123.221 21.294,124.196 21.553,124.333 21.584 C 124.471 21.614,124.921 21.785,125.333 21.964 C 126.070 22.283,126.669 22.529,126.833 22.581 C 126.879 22.595,127.104 22.690,127.333 22.791 C 127.563 22.892,127.994 23.074,128.292 23.195 C 128.590 23.316,128.833 23.464,128.833 23.524 C 128.833 23.585,129.057 23.712,129.330 23.807 C 129.867 23.994,130.011 23.894,130.102 23.266 C 130.131 23.074,130.340 22.400,130.569 21.768 C 130.797 21.136,130.976 20.574,130.965 20.518 C 130.955 20.462,131.036 20.197,131.147 19.930 C 131.257 19.662,131.307 19.339,131.259 19.213 C 131.210 19.086,131.230 19.019,131.302 19.064 C 131.374 19.109,131.535 18.794,131.660 18.364 C 131.785 17.935,132.102 16.908,132.365 16.083 C 132.812 14.681,133.002 13.930,133.059 13.335 C 133.074 13.181,132.816 13.002,132.375 12.861 C 131.985 12.737,131.703 12.576,131.748 12.503 C 131.832 12.367,131.393 12.186,130.667 12.058 C 130.438 12.018,130.167 11.876,130.065 11.742 C 129.963 11.609,129.776 11.500,129.648 11.499 C 129.521 11.498,129.203 11.386,128.941 11.250 C 128.679 11.113,128.398 11.043,128.316 11.094 C 128.234 11.145,128.167 11.099,128.167 10.992 C 128.167 10.885,128.054 10.841,127.917 10.894 C 127.779 10.946,127.667 10.912,127.667 10.818 C 127.667 10.724,127.593 10.693,127.502 10.749 C 127.411 10.805,127.018 10.709,126.627 10.536 C 126.236 10.364,125.820 10.254,125.703 10.294 C 125.585 10.333,125.394 10.286,125.278 10.190 C 125.102 10.044,124.421 9.882,122.830 9.611 C 122.691 9.587,122.473 9.503,122.346 9.425 C 122.175 9.319,122.152 9.343,122.256 9.516 C 122.376 9.715,122.355 9.716,122.115 9.521 C 121.960 9.395,121.833 9.342,121.833 9.402 C 121.833 9.462,121.683 9.431,121.500 9.333 C 121.247 9.198,121.166 9.207,121.164 9.369 C 121.163 9.501,121.114 9.519,121.039 9.417 C 120.898 9.225,120.554 9.154,119.491 9.099 C 119.074 9.078,118.661 9.022,118.575 8.975 C 118.488 8.928,118.079 8.902,117.667 8.917 C 117.254 8.932,116.803 8.889,116.664 8.821 C 116.526 8.753,116.094 8.755,115.706 8.826 C 115.288 8.903,115.000 8.892,115.000 8.800 C 115.000 8.660,109.731 8.658,109.592 8.797 M145.736 9.486 C 145.698 9.524,145.667 22.237,145.667 37.736 L 145.667 65.917 151.625 65.917 L 157.583 65.917 157.542 49.250 C 157.519 40.083,157.481 27.390,157.458 21.042 C 157.435 14.694,157.473 9.481,157.542 9.458 C 157.611 9.435,154.998 9.417,151.737 9.417 C 148.475 9.417,145.774 9.448,145.736 9.486 M172.500 37.621 L 172.500 65.825 178.417 65.871 L 184.333 65.917 184.333 54.293 L 184.333 42.670 199.292 42.627 L 214.250 42.583 214.250 54.167 L 214.250 65.750 220.083 65.794 L 225.917 65.838 225.917 37.627 L 225.917 9.417 220.043 9.462 L 214.169 9.508 214.126 20.879 L 214.083 32.250 199.167 32.293 L 184.250 32.335 184.294 20.876 L 184.338 9.417 178.419 9.417 L 172.500 9.417 172.500 37.621 M314.992 9.833 C 314.888 10.063,314.806 10.287,314.810 10.333 C 314.814 10.379,314.706 10.585,314.571 10.792 C 314.436 10.998,314.374 11.167,314.432 11.167 C 314.490 11.167,314.417 11.352,314.269 11.577 C 314.121 11.803,314.000 12.141,314.000 12.327 C 314.000 12.514,313.931 12.667,313.847 12.667 C 313.762 12.667,313.640 12.908,313.575 13.203 C 313.511 13.498,313.398 13.854,313.326 13.995 C 312.971 14.684,312.485 15.982,312.399 16.466 C 312.378 16.585,312.134 17.153,311.856 17.728 C 311.258 18.969,310.660 20.451,310.571 20.917 C 310.536 21.100,310.440 21.400,310.358 21.583 C 310.096 22.167,309.879 22.746,309.869 22.884 C 309.864 22.957,309.753 23.182,309.623 23.384 C 309.395 23.736,309.174 24.422,309.188 24.731 C 309.192 24.813,309.127 24.925,309.044 24.981 C 308.824 25.130,308.333 26.445,308.453 26.564 C 308.510 26.621,308.468 26.667,308.361 26.667 C 308.254 26.667,308.167 26.762,308.167 26.877 C 308.167 26.993,308.017 27.368,307.833 27.711 C 307.649 28.053,307.539 28.333,307.587 28.333 C 307.635 28.333,307.551 28.521,307.401 28.750 C 307.251 28.979,307.184 29.167,307.251 29.167 C 307.319 29.167,307.291 29.267,307.189 29.390 C 307.086 29.513,307.052 29.663,307.113 29.724 C 307.173 29.784,307.135 29.833,307.028 29.833 C 306.921 29.833,306.833 29.947,306.833 30.086 C 306.833 30.224,306.758 30.487,306.667 30.669 C 306.575 30.851,306.425 31.149,306.333 31.331 C 306.242 31.513,306.167 31.813,306.167 31.998 C 306.167 32.182,306.092 32.333,306.000 32.333 C 305.908 32.333,305.833 32.521,305.833 32.750 C 305.833 32.979,305.758 33.167,305.667 33.167 C 305.575 33.167,305.500 33.354,305.500 33.583 C 305.500 33.813,305.441 34.000,305.369 34.000 C 305.297 34.000,305.225 34.162,305.210 34.360 C 305.196 34.558,305.086 34.782,304.967 34.857 C 304.848 34.933,304.809 34.996,304.881 34.997 C 304.953 34.999,304.918 35.169,304.803 35.375 C 304.689 35.581,304.590 35.787,304.583 35.833 C 304.577 35.879,304.468 36.104,304.341 36.333 C 304.214 36.563,304.124 36.769,304.140 36.792 C 304.157 36.816,304.057 37.106,303.919 37.438 C 303.780 37.769,303.667 38.129,303.667 38.237 C 303.667 38.345,303.603 38.505,303.525 38.592 C 303.387 38.745,302.161 41.747,302.098 42.083 C 302.081 42.175,301.975 42.419,301.861 42.625 C 301.748 42.831,301.699 43.000,301.754 43.000 C 301.808 43.000,301.735 43.206,301.592 43.458 C 301.159 44.220,300.331 46.362,300.417 46.500 C 300.460 46.571,300.385 46.722,300.248 46.835 C 300.112 46.948,300.000 47.177,300.000 47.344 C 300.000 47.511,299.920 47.697,299.822 47.757 C 299.724 47.818,299.682 47.966,299.729 48.088 C 299.775 48.210,299.706 48.398,299.575 48.507 C 299.444 48.615,299.375 48.766,299.421 48.841 C 299.468 48.916,299.428 49.025,299.333 49.083 C 299.239 49.142,299.204 49.260,299.257 49.345 C 299.310 49.430,299.286 49.500,299.203 49.500 C 299.121 49.500,298.953 49.819,298.830 50.208 C 298.707 50.598,298.552 50.992,298.486 51.083 C 298.420 51.175,298.340 51.438,298.308 51.667 C 298.276 51.896,298.196 52.124,298.129 52.174 C 298.063 52.224,297.983 52.431,297.952 52.634 C 297.921 52.838,297.806 53.094,297.698 53.202 C 297.589 53.311,297.500 53.531,297.500 53.690 C 297.500 53.850,297.420 54.030,297.322 54.090 C 297.224 54.151,297.182 54.300,297.229 54.423 C 297.276 54.545,297.240 54.670,297.148 54.701 C 297.057 54.731,296.965 54.867,296.945 55.003 C 296.924 55.139,296.861 55.325,296.804 55.417 C 296.748 55.508,296.352 56.483,295.925 57.583 C 295.498 58.683,295.084 59.733,295.004 59.917 C 294.925 60.100,294.654 60.813,294.401 61.500 C 294.149 62.188,293.653 63.382,293.298 64.155 C 292.944 64.928,292.685 65.641,292.722 65.739 C 292.860 66.096,304.833 65.884,304.833 65.524 C 304.833 65.358,304.890 65.166,304.958 65.097 C 305.027 65.028,305.086 64.922,305.090 64.861 C 305.094 64.800,305.263 64.384,305.465 63.937 C 305.668 63.490,305.833 62.984,305.833 62.812 C 305.833 62.640,305.908 62.500,306.000 62.500 C 306.092 62.500,306.167 62.343,306.167 62.151 C 306.167 61.959,306.270 61.602,306.396 61.359 C 306.816 60.550,307.006 60.087,307.081 59.691 C 307.121 59.476,307.219 59.213,307.298 59.108 C 307.378 59.003,307.578 58.542,307.744 58.083 C 307.909 57.625,308.178 56.950,308.341 56.583 C 308.503 56.217,308.689 55.635,308.753 55.292 L 308.870 54.667 321.685 54.667 C 328.733 54.667,334.506 54.723,334.513 54.792 C 334.556 55.218,334.683 55.586,335.067 56.398 C 335.305 56.901,335.500 57.415,335.500 57.540 C 335.500 57.665,335.590 57.857,335.700 57.967 C 335.810 58.077,335.852 58.167,335.793 58.167 C 335.733 58.167,335.867 58.579,336.090 59.083 C 336.313 59.588,336.451 60.000,336.395 60.000 C 336.340 60.000,336.418 60.187,336.568 60.417 C 336.718 60.646,336.798 60.833,336.744 60.833 C 336.691 60.833,336.765 61.000,336.907 61.204 C 337.050 61.407,337.167 61.745,337.167 61.954 C 337.167 62.163,337.242 62.333,337.333 62.333 C 337.425 62.333,337.500 62.521,337.500 62.750 C 337.500 62.979,337.575 63.167,337.667 63.167 C 337.758 63.167,337.833 63.354,337.833 63.583 C 337.833 63.813,337.916 64.000,338.018 64.000 C 338.119 64.000,338.160 64.110,338.108 64.245 C 338.057 64.380,338.111 64.587,338.229 64.705 C 338.347 64.823,338.409 65.023,338.367 65.150 C 338.316 65.303,338.362 65.335,338.504 65.247 C 338.638 65.165,338.677 65.182,338.609 65.293 C 338.238 65.892,338.514 65.918,344.668 65.871 C 351.374 65.820,350.920 65.926,350.306 64.555 C 350.108 64.112,349.958 63.694,349.973 63.625 C 349.988 63.556,349.935 63.500,349.855 63.500 C 349.775 63.500,349.661 63.196,349.601 62.825 C 349.536 62.418,349.424 62.194,349.319 62.259 C 349.223 62.318,349.165 62.266,349.190 62.142 C 349.264 61.778,349.003 60.978,348.843 61.077 C 348.762 61.127,348.717 61.037,348.744 60.876 C 348.770 60.715,348.681 60.457,348.546 60.302 C 348.411 60.148,348.357 59.930,348.426 59.818 C 348.512 59.679,348.482 59.658,348.331 59.752 C 348.171 59.850,348.139 59.812,348.215 59.615 C 348.328 59.320,347.947 58.257,347.666 58.083 C 347.572 58.025,347.536 57.909,347.588 57.826 C 347.639 57.744,347.483 57.258,347.241 56.746 C 346.999 56.235,346.786 55.712,346.767 55.583 C 346.748 55.455,346.594 55.196,346.424 55.008 C 346.254 54.820,346.198 54.667,346.298 54.667 C 346.405 54.667,346.310 54.279,346.074 53.745 C 345.850 53.238,345.667 52.719,345.667 52.590 C 345.667 52.462,345.549 52.239,345.405 52.095 C 345.261 51.951,345.187 51.833,345.240 51.833 C 345.294 51.833,345.218 51.552,345.072 51.208 C 344.926 50.865,344.777 50.439,344.740 50.262 C 344.704 50.086,344.616 49.898,344.546 49.846 C 344.475 49.793,344.390 49.601,344.358 49.418 C 344.326 49.235,344.195 48.883,344.067 48.635 C 343.938 48.386,343.833 48.067,343.833 47.925 C 343.833 47.783,343.774 47.667,343.702 47.667 C 343.630 47.667,343.559 47.505,343.544 47.307 C 343.529 47.109,343.432 46.894,343.327 46.830 C 343.223 46.765,343.135 46.646,343.131 46.565 C 343.122 46.379,343.090 46.250,342.826 45.375 C 342.709 44.985,342.546 44.667,342.463 44.667 C 342.381 44.667,342.362 44.588,342.421 44.493 C 342.480 44.397,342.444 44.217,342.341 44.093 C 342.238 43.969,342.124 43.728,342.087 43.559 C 341.997 43.147,341.605 42.105,341.500 42.000 C 341.454 41.954,341.390 41.767,341.358 41.583 C 341.326 41.400,341.214 41.195,341.108 41.128 C 341.003 41.060,340.975 41.004,341.046 41.003 C 341.117 41.001,341.059 40.775,340.917 40.500 C 340.774 40.225,340.707 40.000,340.766 40.000 C 340.826 40.000,340.787 39.895,340.681 39.767 C 340.574 39.639,340.456 39.395,340.417 39.225 C 340.315 38.780,339.939 37.807,339.709 37.397 C 339.601 37.203,339.559 36.996,339.617 36.939 C 339.675 36.881,339.635 36.833,339.528 36.833 C 339.421 36.833,339.345 36.777,339.360 36.708 C 339.374 36.640,339.330 36.433,339.261 36.250 C 339.192 36.067,339.050 35.692,338.945 35.417 C 338.840 35.142,338.772 34.860,338.794 34.792 C 338.816 34.723,338.754 34.667,338.657 34.667 C 338.560 34.667,338.523 34.597,338.576 34.512 C 338.629 34.426,338.606 34.315,338.524 34.265 C 338.443 34.215,338.332 33.953,338.278 33.682 C 338.224 33.412,338.035 32.867,337.858 32.471 C 337.475 31.613,337.299 31.158,337.240 30.875 C 337.216 30.760,337.039 30.342,336.848 29.947 C 336.657 29.552,336.500 29.135,336.500 29.022 C 336.500 28.908,336.361 28.500,336.191 28.116 C 335.737 27.087,335.623 26.786,335.554 26.424 C 335.520 26.245,335.400 26.041,335.289 25.973 C 335.177 25.904,335.079 25.750,335.071 25.632 C 335.034 25.113,334.779 24.333,334.646 24.333 C 334.566 24.333,334.500 24.231,334.500 24.106 C 334.500 23.769,333.794 22.103,333.591 21.961 C 333.477 21.881,333.489 21.838,333.625 21.836 C 333.771 21.834,333.733 21.644,333.501 21.211 C 333.317 20.869,333.121 20.345,333.065 20.046 C 333.009 19.747,332.906 19.539,332.835 19.582 C 332.765 19.626,332.650 19.419,332.580 19.122 C 332.429 18.478,332.473 18.631,332.096 17.458 C 331.926 16.931,331.723 16.500,331.644 16.500 C 331.565 16.500,331.500 16.354,331.500 16.177 C 331.500 15.999,331.424 15.806,331.331 15.748 C 331.237 15.691,331.201 15.579,331.250 15.500 C 331.299 15.421,331.263 15.309,331.169 15.252 C 331.076 15.194,331.000 14.978,331.000 14.772 C 331.000 14.565,330.855 14.240,330.677 14.049 C 330.499 13.858,330.388 13.667,330.431 13.624 C 330.474 13.581,330.419 13.330,330.308 13.065 C 330.197 12.800,330.092 12.453,330.076 12.295 C 330.059 12.136,329.951 11.892,329.836 11.753 C 329.720 11.614,329.678 11.500,329.741 11.500 C 329.804 11.500,329.712 11.294,329.535 11.042 C 329.359 10.790,329.247 10.490,329.287 10.377 C 329.327 10.263,329.223 10.000,329.055 9.793 L 328.750 9.417 321.966 9.417 L 315.182 9.417 314.992 9.833 M359.101 9.597 C 359.046 9.742,359.000 22.473,359.000 37.889 L 359.000 65.917 379.504 65.917 L 400.008 65.917 399.995 60.708 L 399.982 55.500 385.407 55.500 L 370.831 55.500 370.874 32.417 L 370.917 9.333 365.059 9.333 C 359.872 9.333,359.191 9.363,359.101 9.597 M322.249 22.042 C 322.367 22.461,322.494 22.791,322.894 23.714 C 323.044 24.061,323.167 24.411,323.167 24.492 C 323.167 24.573,323.328 25.001,323.526 25.445 C 323.724 25.888,323.906 26.325,323.931 26.417 C 324.071 26.927,324.436 27.764,324.556 27.852 C 324.632 27.908,324.689 28.021,324.682 28.102 C 324.660 28.336,325.025 29.401,325.187 29.575 C 325.267 29.662,325.333 29.906,325.333 30.117 C 325.333 30.327,325.396 30.500,325.472 30.500 C 325.549 30.500,325.611 30.610,325.611 30.745 C 325.611 30.879,325.735 31.273,325.886 31.620 C 326.130 32.180,326.507 33.105,326.583 33.333 C 326.599 33.379,326.711 33.642,326.833 33.917 C 326.955 34.192,327.062 34.467,327.069 34.528 C 327.077 34.589,327.140 34.695,327.208 34.764 C 327.277 34.833,327.333 35.031,327.333 35.205 C 327.333 35.378,327.528 35.932,327.766 36.435 C 328.004 36.938,328.218 37.440,328.241 37.550 C 328.307 37.862,328.508 38.386,328.694 38.730 C 328.787 38.902,328.892 39.204,328.928 39.401 C 328.964 39.598,329.191 40.244,329.432 40.838 C 330.069 42.402,330.197 42.749,330.137 42.757 C 330.107 42.761,330.208 42.954,330.359 43.186 C 330.511 43.418,330.729 43.921,330.844 44.304 C 330.959 44.687,331.097 45.000,331.151 45.000 C 331.206 45.000,331.261 45.188,331.274 45.417 L 331.298 45.833 321.732 45.833 C 316.471 45.833,312.167 45.792,312.167 45.742 C 312.167 45.691,312.281 45.429,312.421 45.158 C 312.561 44.888,312.627 44.667,312.567 44.667 C 312.508 44.667,312.560 44.545,312.683 44.397 C 312.924 44.107,313.337 43.091,313.398 42.639 C 313.419 42.486,313.532 42.246,313.649 42.105 C 313.766 41.963,313.814 41.770,313.755 41.674 C 313.695 41.578,313.709 41.500,313.785 41.500 C 313.892 41.500,314.700 39.712,314.764 39.333 C 314.772 39.287,314.856 39.063,314.952 38.833 C 315.048 38.604,315.139 38.342,315.155 38.250 C 315.170 38.158,315.294 37.915,315.429 37.708 C 315.564 37.502,315.640 37.333,315.598 37.333 C 315.555 37.333,315.741 36.847,316.010 36.254 C 316.280 35.660,316.500 35.060,316.500 34.920 C 316.500 34.781,316.575 34.667,316.667 34.667 C 316.758 34.667,316.833 34.485,316.833 34.264 C 316.833 34.042,316.897 33.836,316.974 33.806 C 317.081 33.763,318.336 30.763,318.426 30.333 C 318.436 30.287,318.614 29.875,318.822 29.417 C 319.030 28.958,319.215 28.508,319.233 28.417 C 319.251 28.325,319.359 28.081,319.472 27.875 C 319.586 27.669,319.637 27.500,319.585 27.500 C 319.534 27.500,319.625 27.297,319.788 27.049 C 319.950 26.801,320.058 26.595,320.026 26.591 C 319.995 26.587,320.060 26.358,320.172 26.083 C 320.284 25.808,320.440 25.415,320.521 25.208 C 320.601 25.002,320.735 24.665,320.818 24.458 C 321.143 23.655,321.218 23.411,321.186 23.271 C 321.168 23.191,321.269 22.997,321.410 22.841 C 321.552 22.684,321.617 22.506,321.556 22.445 C 321.495 22.383,321.532 22.333,321.639 22.333 C 321.746 22.333,321.833 22.183,321.833 22.000 C 321.833 21.548,322.119 21.577,322.249 22.042 M42.989 25.566 C 42.941 25.614,42.309 25.687,41.584 25.729 C 40.710 25.779,40.208 25.884,40.092 26.042 C 39.995 26.172,39.842 26.255,39.750 26.226 C 39.409 26.117,38.243 26.942,37.993 27.470 C 37.851 27.769,37.670 27.954,37.591 27.882 C 37.512 27.809,37.494 27.881,37.552 28.042 C 37.609 28.202,37.591 28.333,37.510 28.333 C 37.215 28.333,36.890 29.771,36.926 30.917 C 36.961 32.053,37.287 33.333,37.541 33.333 C 37.610 33.333,37.667 33.448,37.667 33.589 C 37.667 33.729,37.779 33.887,37.916 33.939 C 38.053 33.992,38.123 34.102,38.073 34.184 C 38.022 34.266,38.102 34.333,38.250 34.333 C 38.398 34.333,38.477 34.403,38.425 34.487 C 38.372 34.572,38.686 34.816,39.123 35.029 C 39.560 35.242,39.955 35.467,40.002 35.529 C 40.197 35.786,41.728 35.991,44.000 36.063 C 45.329 36.105,46.567 36.181,46.750 36.232 C 47.812 36.525,48.414 36.636,48.532 36.563 C 48.606 36.518,48.667 36.568,48.667 36.675 C 48.667 36.782,48.770 36.829,48.896 36.781 C 49.023 36.732,49.191 36.750,49.271 36.820 C 49.351 36.891,49.889 37.120,50.466 37.331 C 51.367 37.659,52.340 38.123,53.752 38.899 C 53.937 39.000,54.324 39.252,54.611 39.458 C 54.899 39.665,55.217 39.833,55.317 39.833 C 55.418 39.833,55.501 39.890,55.502 39.958 C 55.503 40.027,56.047 40.529,56.710 41.073 C 57.374 41.617,58.292 42.527,58.750 43.096 C 59.208 43.664,59.640 44.095,59.708 44.054 C 59.777 44.014,59.833 44.086,59.833 44.214 C 59.833 44.343,59.982 44.582,60.163 44.746 C 60.344 44.910,60.456 45.103,60.412 45.175 C 60.367 45.246,60.391 45.330,60.463 45.361 C 60.536 45.392,60.925 46.054,61.328 46.833 C 61.730 47.612,62.150 48.340,62.260 48.450 C 62.370 48.560,62.513 48.935,62.578 49.282 C 62.644 49.630,62.744 49.990,62.802 50.082 C 62.860 50.174,62.924 50.361,62.945 50.497 C 62.965 50.633,63.061 50.770,63.159 50.803 C 63.256 50.835,63.300 50.920,63.256 50.991 C 63.212 51.061,63.246 51.363,63.332 51.660 C 63.588 52.555,63.738 54.146,63.744 56.041 C 63.747 57.027,63.798 57.833,63.857 57.833 C 63.956 57.833,63.913 58.057,63.508 59.625 C 63.418 59.973,63.429 60.167,63.538 60.167 C 63.636 60.167,63.620 60.272,63.500 60.417 C 63.386 60.554,63.348 60.667,63.417 60.667 C 63.485 60.667,63.467 60.760,63.376 60.875 C 63.286 60.990,63.227 61.249,63.244 61.451 C 63.262 61.653,63.214 61.779,63.138 61.732 C 63.062 61.685,63.000 61.769,63.000 61.917 C 63.000 62.353,62.319 64.316,61.698 65.667 C 61.383 66.354,61.153 66.922,61.187 66.929 C 61.222 66.935,61.119 67.072,60.958 67.232 C 60.798 67.393,60.667 67.631,60.667 67.762 C 60.667 67.893,60.604 68.000,60.528 68.000 C 60.451 68.000,60.095 68.431,59.736 68.958 C 59.016 70.017,57.695 71.393,56.416 72.417 C 55.958 72.783,55.546 73.131,55.500 73.190 C 55.353 73.379,52.589 74.999,52.414 75.000 C 52.321 75.000,51.965 75.150,51.623 75.334 C 51.280 75.517,51.000 75.628,51.000 75.579 C 51.000 75.531,50.785 75.603,50.521 75.739 C 50.258 75.875,49.995 75.940,49.938 75.882 C 49.880 75.825,49.833 75.878,49.833 76.000 C 49.833 76.122,49.788 76.177,49.733 76.122 C 49.678 76.066,49.442 76.094,49.210 76.182 C 48.978 76.270,48.517 76.385,48.186 76.438 C 47.854 76.490,47.463 76.598,47.315 76.676 C 47.168 76.755,46.681 76.858,46.232 76.905 C 45.784 76.953,45.229 77.034,45.000 77.086 C 44.008 77.310,40.338 77.166,39.083 76.852 C 38.717 76.761,38.229 76.651,38.000 76.609 C 37.771 76.567,37.246 76.407,36.833 76.254 C 36.421 76.101,35.821 75.891,35.500 75.787 C 35.179 75.682,34.877 75.540,34.827 75.471 C 34.744 75.355,33.533 74.783,33.321 74.760 C 33.269 74.755,33.095 74.619,32.935 74.458 C 32.774 74.298,32.579 74.167,32.500 74.167 C 32.421 74.167,32.258 74.073,32.137 73.958 C 31.758 73.600,30.677 72.820,30.628 72.870 C 30.602 72.896,30.239 72.579,29.821 72.167 C 29.403 71.754,28.860 71.275,28.614 71.102 C 28.368 70.928,28.167 70.703,28.167 70.602 C 28.168 70.429,27.803 70.020,26.333 68.546 C 25.408 67.618,23.953 67.000,22.692 67.000 C 21.581 67.000,19.833 67.415,19.833 67.678 C 19.833 67.764,19.739 67.833,19.623 67.833 C 19.507 67.833,19.338 68.002,19.248 68.208 C 19.157 68.415,18.914 68.658,18.706 68.749 C 18.498 68.840,18.366 69.012,18.412 69.132 C 18.459 69.252,18.422 69.305,18.331 69.249 C 18.241 69.193,18.157 69.226,18.146 69.323 C 18.134 69.421,18.116 69.578,18.104 69.673 C 18.093 69.768,18.008 69.899,17.917 69.964 C 17.825 70.030,17.728 70.233,17.700 70.417 C 17.673 70.600,17.609 70.862,17.558 71.000 C 17.474 71.225,17.453 71.846,17.488 73.093 C 17.496 73.361,17.569 73.477,17.685 73.406 C 17.809 73.329,17.832 73.407,17.757 73.646 C 17.687 73.864,17.716 74.000,17.832 74.000 C 17.935 74.000,17.973 74.075,17.917 74.167 C 17.860 74.258,17.898 74.333,18.000 74.333 C 18.102 74.333,18.140 74.408,18.083 74.500 C 18.027 74.592,18.060 74.667,18.157 74.667 C 18.254 74.667,18.333 74.821,18.333 75.010 C 18.333 75.199,18.408 75.307,18.500 75.250 C 18.592 75.193,18.667 75.297,18.667 75.480 C 18.667 75.664,18.753 75.867,18.859 75.933 C 18.986 76.011,19.006 75.978,18.917 75.833 C 18.827 75.689,18.847 75.655,18.974 75.734 C 19.080 75.799,19.169 75.942,19.173 76.052 C 19.181 76.344,19.894 77.166,20.332 77.389 C 20.541 77.496,20.689 77.621,20.660 77.667 C 20.596 77.769,22.006 79.167,22.174 79.167 C 22.240 79.167,22.338 79.332,22.391 79.534 C 22.444 79.737,22.538 79.851,22.600 79.789 C 22.662 79.727,22.976 79.955,23.297 80.296 C 23.618 80.637,23.821 80.810,23.746 80.680 C 23.664 80.535,23.777 80.567,24.039 80.763 C 24.274 80.939,24.435 81.134,24.397 81.196 C 24.359 81.258,24.480 81.357,24.664 81.416 C 24.849 81.475,25.000 81.597,25.000 81.688 C 25.000 81.779,25.067 81.812,25.149 81.761 C 25.231 81.710,25.344 81.788,25.401 81.935 C 25.459 82.087,25.610 82.160,25.751 82.106 C 25.903 82.048,26.106 82.173,26.273 82.428 C 26.423 82.658,26.630 82.816,26.732 82.779 C 26.989 82.685,27.529 82.985,27.420 83.161 C 27.371 83.241,27.564 83.357,27.849 83.420 C 28.134 83.483,28.506 83.672,28.675 83.841 C 29.061 84.228,30.082 84.767,29.914 84.496 C 29.847 84.388,29.976 84.419,30.201 84.567 C 30.426 84.714,30.660 84.784,30.722 84.723 C 30.783 84.661,30.833 84.699,30.833 84.806 C 30.833 84.912,30.946 85.000,31.083 85.000 C 31.221 85.000,31.333 85.078,31.333 85.174 C 31.333 85.270,31.427 85.332,31.542 85.313 C 31.889 85.256,32.667 85.525,32.667 85.703 C 32.667 85.794,32.779 85.826,32.917 85.773 C 33.054 85.720,33.167 85.747,33.167 85.833 C 33.167 85.919,33.279 85.946,33.417 85.894 C 33.554 85.841,33.667 85.878,33.667 85.977 C 33.667 86.076,33.773 86.115,33.903 86.065 C 34.033 86.016,34.315 86.085,34.528 86.219 C 34.742 86.353,35.048 86.441,35.208 86.413 C 35.369 86.385,35.500 86.436,35.500 86.525 C 35.500 86.614,35.575 86.640,35.667 86.583 C 35.758 86.527,35.926 86.537,36.039 86.607 C 36.152 86.677,36.358 86.754,36.497 86.777 C 36.636 86.801,36.975 86.866,37.250 86.921 C 37.525 86.975,38.012 87.050,38.333 87.085 C 38.654 87.121,39.592 87.237,40.417 87.344 C 42.027 87.551,46.888 87.454,47.224 87.207 C 47.330 87.128,47.642 87.076,47.917 87.089 C 48.192 87.103,48.631 87.007,48.893 86.877 C 49.156 86.746,49.320 86.720,49.259 86.820 C 49.197 86.919,49.226 87.000,49.323 87.000 C 49.421 87.000,49.500 86.916,49.500 86.814 C 49.500 86.705,49.674 86.661,49.921 86.708 C 50.152 86.752,50.385 86.719,50.438 86.633 C 50.490 86.547,50.639 86.518,50.767 86.567 C 50.895 86.616,51.000 86.590,51.000 86.510 C 51.000 86.429,51.131 86.384,51.292 86.410 C 51.452 86.436,51.677 86.383,51.792 86.292 C 51.906 86.200,52.001 86.191,52.003 86.271 C 52.004 86.351,52.060 86.338,52.128 86.242 C 52.267 86.043,53.885 85.500,54.339 85.500 C 54.504 85.500,54.664 85.432,54.694 85.349 C 54.725 85.265,54.900 85.172,55.083 85.140 C 55.267 85.109,55.470 85.008,55.536 84.917 C 55.601 84.825,55.716 84.750,55.791 84.750 C 56.059 84.750,57.333 84.114,57.333 83.980 C 57.333 83.905,57.434 83.882,57.557 83.929 C 57.679 83.977,57.876 83.899,57.994 83.758 C 58.111 83.616,58.313 83.500,58.442 83.500 C 58.571 83.500,58.714 83.403,58.760 83.285 C 58.805 83.167,59.008 83.058,59.210 83.043 C 59.413 83.027,59.605 82.936,59.636 82.841 C 59.668 82.745,59.801 82.667,59.931 82.667 C 60.060 82.667,60.167 82.604,60.167 82.528 C 60.167 82.452,60.373 82.285,60.625 82.156 C 60.877 82.028,61.304 81.715,61.573 81.461 C 61.843 81.208,62.162 81.000,62.282 81.000 C 62.402 81.000,62.500 80.887,62.500 80.750 C 62.500 80.612,62.616 80.500,62.758 80.500 C 63.078 80.500,65.622 78.069,65.762 77.630 C 65.818 77.453,65.903 77.348,65.951 77.396 C 66.027 77.471,66.517 76.993,67.303 76.079 C 67.423 75.939,67.814 75.395,68.171 74.870 C 68.527 74.346,68.971 73.729,69.156 73.500 C 69.341 73.271,69.494 72.990,69.496 72.875 C 69.498 72.760,69.575 72.667,69.667 72.667 C 69.758 72.667,69.833 72.526,69.833 72.354 C 69.833 72.182,69.951 71.943,70.094 71.824 C 70.440 71.538,70.848 70.737,70.716 70.604 C 70.658 70.547,70.703 70.500,70.815 70.500 C 70.928 70.500,70.973 70.425,70.917 70.333 C 70.860 70.242,70.875 70.167,70.951 70.167 C 71.066 70.167,71.667 68.985,71.667 68.760 C 71.667 68.720,71.752 68.477,71.857 68.219 C 71.962 67.961,72.064 67.637,72.085 67.500 C 72.106 67.362,72.177 67.124,72.242 66.970 C 72.330 66.761,72.187 66.574,71.680 66.239 C 71.306 65.992,71.000 65.712,71.000 65.617 C 71.000 65.522,70.958 65.486,70.907 65.538 C 70.855 65.589,70.462 65.246,70.032 64.774 C 69.602 64.303,69.107 63.786,68.933 63.626 C 68.758 63.465,68.668 63.333,68.733 63.333 C 68.798 63.333,68.646 63.066,68.397 62.740 C 66.935 60.822,66.085 56.431,66.750 54.224 C 66.869 53.826,66.928 53.500,66.880 53.500 C 66.832 53.500,66.866 53.406,66.957 53.292 C 67.132 53.069,67.406 52.165,67.361 51.958 C 67.346 51.890,67.408 51.833,67.500 51.833 C 67.592 51.833,67.667 51.756,67.667 51.661 C 67.667 51.337,69.243 49.097,69.870 48.531 C 70.215 48.219,70.449 47.885,70.390 47.789 C 70.330 47.694,70.350 47.656,70.433 47.707 C 70.624 47.823,71.019 47.408,70.865 47.254 C 70.802 47.191,70.825 47.163,70.917 47.193 C 71.552 47.401,72.653 46.041,72.208 45.597 C 72.140 45.528,72.078 45.422,72.071 45.361 C 72.024 44.919,70.012 40.833,69.841 40.833 C 69.745 40.833,69.667 40.717,69.667 40.575 C 69.667 40.257,67.850 37.588,67.024 36.692 C 66.690 36.330,66.185 35.782,65.901 35.475 C 65.123 34.631,63.344 32.987,62.500 32.332 C 62.087 32.012,61.712 31.709,61.667 31.658 C 60.538 30.413,53.670 27.068,51.561 26.736 C 51.207 26.681,50.842 26.575,50.750 26.502 C 50.468 26.277,47.832 25.832,46.250 25.742 C 45.792 25.715,44.890 25.646,44.247 25.586 C 43.603 25.527,43.037 25.518,42.989 25.566 M76.167 47.633 C 75.938 47.661,75.637 47.729,75.500 47.785 C 75.362 47.842,75.194 47.904,75.125 47.923 C 75.056 47.942,74.962 47.977,74.917 48.000 C 74.871 48.023,74.777 48.056,74.708 48.073 C 74.324 48.171,73.230 48.781,73.115 48.962 C 73.040 49.078,72.909 49.130,72.823 49.077 C 72.737 49.024,72.667 49.056,72.667 49.148 C 72.667 49.240,72.469 49.413,72.227 49.533 C 71.985 49.652,71.793 49.825,71.800 49.917 C 71.808 50.008,71.666 50.138,71.486 50.204 C 71.306 50.271,71.111 50.458,71.051 50.621 C 70.992 50.784,70.770 51.094,70.558 51.312 C 70.345 51.529,70.209 51.768,70.255 51.842 C 70.301 51.916,70.262 52.024,70.169 52.082 C 69.914 52.240,69.310 53.646,69.359 53.968 C 69.382 54.123,69.330 54.400,69.242 54.583 C 68.888 55.325,69.178 59.451,69.596 59.611 C 69.715 59.657,69.770 59.803,69.719 59.937 C 69.668 60.070,69.730 60.308,69.856 60.465 C 69.983 60.622,70.235 61.050,70.416 61.417 C 70.765 62.123,72.773 64.158,73.125 64.163 C 73.240 64.165,73.333 64.246,73.333 64.343 C 73.333 64.440,73.402 64.477,73.486 64.425 C 73.570 64.374,73.664 64.408,73.695 64.503 C 73.727 64.597,73.977 64.714,74.251 64.764 C 74.526 64.813,74.775 64.924,74.806 65.010 C 74.836 65.096,74.934 65.167,75.024 65.167 C 75.113 65.167,75.139 65.073,75.081 64.958 C 75.023 64.844,75.093 64.896,75.238 65.074 C 75.389 65.260,75.500 65.308,75.500 65.187 C 75.500 65.040,75.579 65.056,75.764 65.240 C 75.908 65.385,76.227 65.499,76.472 65.494 C 76.717 65.489,77.329 65.494,77.833 65.504 C 78.337 65.515,78.787 65.514,78.833 65.503 C 78.879 65.492,79.219 65.457,79.588 65.425 C 80.788 65.320,84.000 63.778,84.000 63.306 C 84.000 63.219,84.065 63.187,84.144 63.236 C 84.224 63.285,84.423 63.177,84.587 62.996 C 84.751 62.815,84.826 62.667,84.753 62.667 C 84.681 62.667,84.819 62.511,85.061 62.321 C 85.302 62.131,85.500 61.869,85.500 61.738 C 85.500 61.607,85.575 61.500,85.667 61.500 C 85.758 61.500,85.833 61.387,85.833 61.250 C 85.833 61.112,85.903 61.000,85.989 61.000 C 86.074 61.000,86.193 60.831,86.252 60.625 C 86.311 60.419,86.468 60.011,86.600 59.718 C 87.273 58.226,87.281 54.952,86.615 53.481 C 86.475 53.171,86.311 52.748,86.252 52.542 C 86.193 52.335,86.074 52.167,85.989 52.167 C 85.903 52.167,85.833 52.062,85.833 51.934 C 85.833 51.317,83.814 49.392,82.363 48.627 C 80.389 47.585,78.756 47.323,76.167 47.633 " stroke="none" fill="#5cc4dc" fill-rule="evenodd"></path><path id="path2" d="M115.000 8.800 C 115.000 8.873,115.263 8.902,115.583 8.865 C 115.904 8.828,116.167 8.768,116.167 8.732 C 116.167 8.696,115.904 8.667,115.583 8.667 C 115.263 8.667,115.000 8.727,115.000 8.800 M271.700 8.922 C 271.870 9.092,272.500 9.146,272.500 8.990 C 272.500 8.904,272.300 8.833,272.056 8.833 C 271.811 8.833,271.651 8.873,271.700 8.922 M105.589 9.325 C 105.535 9.412,105.651 9.452,105.851 9.413 C 106.349 9.317,106.463 9.167,106.038 9.167 C 105.844 9.167,105.642 9.238,105.589 9.325 M151.667 9.497 L 157.417 9.583 157.501 37.667 L 157.585 65.750 157.626 37.643 C 157.663 12.143,157.642 9.526,157.403 9.434 C 157.258 9.379,154.614 9.351,151.528 9.372 L 145.917 9.410 151.667 9.497 M175.448 9.458 C 177.023 9.485,179.648 9.485,181.281 9.458 C 182.914 9.431,181.625 9.408,178.417 9.408 C 175.208 9.408,173.872 9.431,175.448 9.458 M217.114 9.458 C 218.690 9.485,221.315 9.485,222.948 9.458 C 224.581 9.431,223.292 9.408,220.083 9.408 C 216.875 9.408,215.539 9.431,217.114 9.458 M318.625 9.458 C 320.481 9.485,323.519 9.485,325.375 9.458 C 327.231 9.431,325.712 9.409,322.000 9.409 C 318.287 9.409,316.769 9.431,318.625 9.458 M214.040 20.791 L 214.000 32.165 199.042 32.208 L 184.083 32.252 199.047 32.293 C 210.894 32.325,214.027 32.290,214.090 32.125 C 214.134 32.010,214.150 26.854,214.125 20.667 L 214.081 9.417 214.040 20.791 M370.914 32.500 C 370.914 45.196,370.934 50.390,370.958 44.042 C 370.982 37.694,370.982 27.306,370.958 20.958 C 370.934 14.610,370.914 19.804,370.914 32.500 M225.915 37.667 C 225.915 53.112,225.934 59.431,225.958 51.708 C 225.982 43.985,225.982 31.348,225.958 23.625 C 225.934 15.902,225.915 22.221,225.915 37.667 M255.574 10.593 C 255.255 10.848,255.255 10.849,255.583 10.698 C 255.767 10.614,256.029 10.503,256.167 10.452 C 256.383 10.372,256.381 10.358,256.157 10.346 C 256.014 10.339,255.751 10.450,255.574 10.593 M99.125 11.429 C 98.873 11.565,98.667 11.762,98.667 11.864 C 98.667 11.978,98.781 11.952,98.958 11.799 C 99.119 11.660,99.400 11.463,99.583 11.362 C 99.767 11.260,99.842 11.178,99.750 11.178 C 99.658 11.179,99.377 11.292,99.125 11.429 M246.250 16.333 C 246.083 16.518,245.984 16.706,246.030 16.752 C 246.076 16.798,246.250 16.684,246.417 16.500 C 246.584 16.316,246.683 16.127,246.637 16.081 C 246.591 16.035,246.417 16.149,246.250 16.333 M245.158 17.443 C 244.702 17.926,244.675 17.987,245.026 17.735 C 245.408 17.460,245.935 16.833,245.784 16.833 C 245.755 16.833,245.474 17.108,245.158 17.443 M288.467 17.625 C 287.575 18.983,287.465 19.167,287.542 19.167 C 287.615 19.167,287.850 18.831,288.741 17.458 C 288.905 17.206,289.002 17.000,288.958 17.000 C 288.914 17.000,288.693 17.281,288.467 17.625 M311.860 17.424 C 311.581 18.037,311.634 18.167,311.936 17.610 C 312.077 17.350,312.162 17.106,312.123 17.068 C 312.085 17.030,311.967 17.190,311.860 17.424 M90.712 25.667 C 90.712 26.079,90.745 26.248,90.784 26.042 C 90.824 25.835,90.824 25.498,90.784 25.292 C 90.745 25.085,90.712 25.254,90.712 25.667 M64.583 34.167 C 65.035 34.625,65.442 35.000,65.487 35.000 C 65.533 35.000,65.201 34.625,64.750 34.167 C 64.299 33.708,63.892 33.333,63.846 33.333 C 63.800 33.333,64.132 33.708,64.583 34.167 M127.583 36.253 C 127.767 36.402,128.067 36.598,128.250 36.688 L 128.583 36.852 128.250 36.580 C 128.067 36.431,127.767 36.235,127.583 36.145 L 127.250 35.982 127.583 36.253 M249.539 37.667 C 249.539 37.987,249.573 38.119,249.615 37.958 C 249.657 37.798,249.657 37.535,249.615 37.375 C 249.573 37.215,249.539 37.346,249.539 37.667 M129.333 37.618 C 129.471 37.669,129.733 37.832,129.917 37.980 C 130.247 38.248,130.247 38.247,129.933 37.875 C 129.758 37.669,129.495 37.506,129.349 37.513 C 129.124 37.524,129.121 37.540,129.333 37.618 M131.000 39.083 C 131.311 39.404,131.603 39.667,131.649 39.667 C 131.695 39.667,131.478 39.404,131.167 39.083 C 130.856 38.762,130.564 38.500,130.518 38.500 C 130.472 38.500,130.689 38.762,131.000 39.083 M57.661 42.052 C 58.162 42.574,58.599 43.000,58.632 43.000 C 58.763 43.000,57.894 42.055,57.339 41.594 C 57.009 41.320,57.150 41.521,57.661 42.052 M214.077 42.708 C 214.033 42.823,214.016 48.092,214.040 54.417 L 214.083 65.917 220.083 65.921 L 226.083 65.925 220.167 65.838 L 214.250 65.750 214.250 54.125 C 214.250 47.731,214.229 42.500,214.203 42.500 C 214.177 42.500,214.120 42.594,214.077 42.708 M59.685 44.167 C 59.677 44.436,60.222 45.167,60.431 45.167 C 60.501 45.167,60.405 44.998,60.217 44.792 C 60.029 44.585,59.835 44.304,59.784 44.167 C 59.703 43.944,59.692 43.944,59.685 44.167 M312.167 45.708 C 312.167 45.777,316.498 45.816,321.792 45.795 C 327.085 45.774,329.879 45.737,328.000 45.712 C 319.182 45.597,312.167 45.595,312.167 45.708 M62.172 48.500 C 62.172 48.637,62.244 48.862,62.333 49.000 C 62.477 49.222,62.495 49.222,62.495 49.000 C 62.495 48.862,62.422 48.637,62.333 48.500 C 62.190 48.278,62.172 48.278,62.172 48.500 M96.786 52.336 C 97.540 52.701,98.215 52.996,98.286 52.992 C 98.511 52.978,95.930 51.683,95.667 51.678 C 95.529 51.675,96.033 51.972,96.786 52.336 M69.048 56.417 C 69.049 56.875,69.081 57.043,69.120 56.789 C 69.158 56.536,69.157 56.161,69.117 55.956 C 69.078 55.751,69.046 55.958,69.048 56.417 M63.667 58.333 C 63.667 58.608,63.696 58.833,63.731 58.833 C 63.767 58.833,63.829 58.608,63.869 58.333 C 63.909 58.058,63.880 57.833,63.804 57.833 C 63.729 57.833,63.667 58.058,63.667 58.333 M129.909 60.042 L 129.250 60.750 129.958 60.091 C 130.348 59.729,130.667 59.410,130.667 59.383 C 130.667 59.257,130.522 59.383,129.909 60.042 M91.347 62.229 C 91.519 62.382,92.500 62.833,92.500 62.759 C 92.500 62.663,91.576 62.167,91.397 62.167 C 91.332 62.167,91.309 62.195,91.347 62.229 M98.917 65.000 C 99.375 65.197,99.539 65.197,99.417 65.000 C 99.360 64.908,99.149 64.839,98.948 64.845 C 98.596 64.856,98.595 64.862,98.917 65.000 M78.000 65.519 L 77.250 65.627 78.134 65.617 C 78.620 65.611,79.048 65.557,79.085 65.498 C 79.163 65.371,79.013 65.374,78.000 65.519 M148.792 65.958 C 150.373 65.985,152.960 65.985,154.542 65.958 C 156.123 65.931,154.829 65.908,151.667 65.908 C 148.504 65.908,147.210 65.931,148.792 65.958 M175.375 65.958 C 177.002 65.985,179.665 65.985,181.292 65.958 C 182.919 65.931,181.588 65.908,178.333 65.908 C 175.079 65.908,173.748 65.931,175.375 65.958 M295.969 65.958 C 297.648 65.985,300.348 65.985,301.969 65.958 C 303.590 65.931,302.217 65.909,298.917 65.909 C 295.617 65.909,294.290 65.931,295.969 65.958 M341.708 65.958 C 343.335 65.985,345.998 65.985,347.625 65.958 C 349.252 65.931,347.921 65.908,344.667 65.908 C 341.412 65.908,340.081 65.931,341.708 65.958 M369.471 65.958 C 375.093 65.983,384.243 65.983,389.805 65.958 C 395.366 65.934,390.767 65.914,379.583 65.914 C 368.400 65.914,363.850 65.934,369.471 65.958 M17.399 71.403 C 17.349 71.532,17.335 71.851,17.368 72.111 C 17.417 72.496,17.443 72.453,17.510 71.875 C 17.595 71.146,17.558 70.989,17.399 71.403 M68.500 74.333 C 68.304 74.608,68.181 74.833,68.227 74.833 C 68.273 74.833,68.471 74.608,68.667 74.333 C 68.862 74.058,68.985 73.833,68.939 73.833 C 68.894 73.833,68.696 74.058,68.500 74.333 M20.333 77.583 C 20.447 77.721,20.616 77.833,20.707 77.833 C 20.800 77.833,20.782 77.723,20.667 77.583 C 20.553 77.446,20.384 77.333,20.293 77.333 C 20.200 77.333,20.218 77.444,20.333 77.583 M26.833 82.810 C 26.833 82.981,27.338 83.217,27.455 83.101 C 27.495 83.060,27.372 82.943,27.181 82.841 C 26.990 82.739,26.833 82.724,26.833 82.810 " stroke="none" fill="#64c4dc" fill-rule="evenodd"></path><path id="path3" d="M15.000 23.885 C 15.000 23.914,15.244 24.158,15.542 24.427 L 16.083 24.917 15.594 24.375 C 15.138 23.870,15.000 23.757,15.000 23.885 " stroke="none" fill="#e89054" fill-rule="evenodd"></path><path id="path4" d="" stroke="none" fill="#5cc8b0" fill-rule="evenodd"></path></g></svg>