<?xml version="1.0" encoding="utf-8"?>
<!-- Generator: Adobe Illustrator 27.9.0, SVG Export Plug-In . SVG Version: 6.00 Build 0)  -->
<svg version="1.1" id="Capa_1" xmlns="http://www.w3.org/2000/svg" xmlns:xlink="http://www.w3.org/1999/xlink" x="0px" y="0px"
	 viewBox="0 0 586.91 137.13" style="enable-background:new 0 0 586.91 137.13;" xml:space="preserve">
<style type="text/css">
	.st0{fill:#E4592A;}
	.st1{fill:#61C3DB;}
	.st2{fill:none;}
	.st3{fill:#FFFFFF;}
</style>
<path class="st0" d="M86.65,1069.42c-9.61-0.16-17.35-1.31-24.86-3.88c-3.25-1.11-5.15-3.76-5.11-6.95
	c0.04-3.03,2.03-5.95,5.01-6.61c1.62-0.35,3.53-0.25,5.11,0.26c15.05,4.84,29.79,4.03,43.78-3.22c18.66-9.67,29.1-25.26,31.23-46.24
	c1.05-10.35-1.08-20.15-5.38-29.55c-2.34-5.12,1.1-10.66,6.51-10.42c2.85,0.12,4.92,1.55,6.18,4.16c4.07,8.39,6.33,17.22,6.92,26.53
	c0.82,13.04-1.52,25.49-7.65,37c-11.19,21.02-28.52,33.87-52.12,37.89C92.54,1069.02,88.74,1069.2,86.65,1069.42z"/>
<path class="st0" d="M35.35,974.74c-0.12,0.56-0.21,1.56-0.54,2.48c-4.5,12.66-4.46,25.34-0.22,38.05c1.13,3.38-0.1,6.72-3.03,8.5
	c-2.81,1.7-6.39,1.31-8.65-1.09c-0.74-0.78-1.39-1.77-1.73-2.79c-3.05-9.1-4.41-18.42-3.72-28.04c0.48-6.73,1.73-13.27,4.01-19.61
	c1.11-3.08,3.71-4.99,6.7-5c3.04-0.01,5.77,1.93,6.8,4.85c0.1,0.27,0.21,0.55,0.25,0.83C35.29,973.38,35.3,973.85,35.35,974.74z"/>
<path class="st0" d="M85.82,937.27c-0.56,0.12-1.51,0.43-2.48,0.5c-13.4,0.97-25,6.09-34.93,15.09c-2.64,2.39-6.2,2.61-9,0.64
	c-2.69-1.89-3.77-5.33-2.48-8.36c0.42-0.99,1.07-1.98,1.86-2.7c7.11-6.45,15.1-11.44,24.18-14.68c6.35-2.26,12.85-3.75,19.57-4.21
	c3.26-0.22,6.06,1.39,7.27,4.12c1.23,2.78,0.55,6.06-1.71,8.18c-0.21,0.2-0.42,0.42-0.66,0.57
	C87.04,936.66,86.62,936.85,85.82,937.27z"/>
<path class="st0" d="M90.16-687.02c-12.91,8.55-11.29,24.84-0.02,31.73c-21.81,57.82-98.52,21.8-81.51,2.16
	c3.53-2.85,8.17-2.06,11.45,1.83c16.56,22.46,54.63,11.86,57.01-15.95c2.99-20.03-14.66-37.27-34.78-35.97
	c-4.01-0.63-6.74-3.95-6.61-7.95c0.13-3.87,3-7.1,6.94-7.38C63.35-720.2,83.43-706.55,90.16-687.02z"/>
<path class="st1" d="M1.52-695.14c11.32-7.05,12.79-23.24-0.07-31.72c19.72-53.56,93.06-26.06,78.79-6.72
	c-3.2,3.29-7.9,3.15-11.59-0.34c-20.76-21.32-58.94-1.76-54.12,27.32c2.02,16.4,17.03,28.44,33.52,27.74
	c4.37,0.16,7.75,3.32,7.89,7.51c0.14,4.12-3.14,7.67-7.42,8.02C28.64-661.74,7.42-676.04,1.52-695.14z"/>
<path class="st1" d="M42.81-582.36c-12.32-0.86-41.65-0.89-41.36-14.95c0.06-4.19,2.8-8.22,6.92-9.12c2.23-0.49,4.86-0.34,7.05,0.36
	c64.46,23.14,126.82-48.06,96.08-109.05c-3.23-7.07,1.52-14.71,8.99-14.38c3.93,0.17,6.79,2.14,8.53,5.74
	C160.78-661.16,112.79-582.94,42.81-582.36z"/>
<path class="st0" d="M-44.64-672.07c4.9,11.48,14.15,38.99,27.53,34.29c3.94-1.41,6.87-5.31,6.39-9.5
	c-0.26-2.27-1.25-4.71-2.62-6.55c-42.77-53.5,4.42-135.55,72.07-126.21c7.73,0.77,13.43-6.2,10.7-13.16
	c-1.43-3.66-4.22-5.73-8.19-6.21C-8.28-809.19-66.74-738.47-44.64-672.07z"/>
<g>
	<path class="st1" d="M3.75-732.22c0,0-9.43,14.61-1.56,39.04l8.69-9.45l0.9-15.05L3.75-732.22z"/>
	<path class="st0" d="M89.43-688.9c0,0,7.16,21.01-1.39,38.82s-8.43-29.93-8.43-29.93L89.43-688.9z"/>
</g>
<g>
	<path class="st1" d="M121.79,1000.41c-10.79,6.09-9.43,17.7-0.01,22.61c-18.22,41.2-82.28,15.53-68.08,1.54
		c2.94-2.03,6.82-1.47,9.56,1.3c13.83,16.01,45.63,8.45,47.62-11.37c2.5-14.28-12.25-26.56-29.05-25.63
		c-3.35-0.45-5.63-2.82-5.52-5.66c0.11-2.76,2.5-5.06,5.8-5.26C99.39,976.77,116.17,986.5,121.79,1000.41z"/>
	<path class="st1" d="M47.76,994.62c9.45-5.03,10.68-16.56-0.05-22.6c16.47-38.17,77.73-18.57,65.81-4.79
		c-2.67,2.34-6.6,2.24-9.68-0.25c-17.34-15.19-49.22-1.25-45.2,19.47c1.69,11.69,14.22,20.27,28,19.77
		c3.65,0.12,6.47,2.37,6.59,5.35c0.12,2.94-2.63,5.47-6.19,5.71C70.41,1018.43,52.69,1008.24,47.76,994.62z"/>
</g>
<g>
	<path class="st1" d="M49.62,968.21c0,0-7.88,10.41-1.31,27.82l7.26-6.73l0.76-10.72L49.62,968.21z"/>
	<path class="st1" d="M121.18,999.07c0,0,5.98,14.97-1.16,27.66s-7.04-21.33-7.04-21.33L121.18,999.07z"/>
</g>
<g>
	<path class="st2" d="M61.6,1037.64c-5.17,5.15-10.31,10.31-15.49,15.44c-2.08,2.06-4.58,2.75-7.39,1.82
		c-2.68-0.88-4.24-2.83-4.74-5.57c-0.51-2.79,0.71-4.96,2.63-6.88c4.92-4.89,9.82-9.81,14.72-14.73c1.14-1.14,1.72-1.9,1.81-2.72
		l-4.08-4.84l-38.68,32.6l20.77,24.65l38.68-32.6l-6.98-8.28C62.49,1036.8,62.07,1037.16,61.6,1037.64z"/>
	<path class="st1" d="M36.61,1042.46c-1.92,1.91-3.14,4.09-2.63,6.88c0.5,2.73,2.06,4.68,4.74,5.57c2.81,0.93,5.31,0.24,7.39-1.82
		c5.18-5.13,10.33-10.3,15.49-15.44c0.47-0.47,0.89-0.83,1.27-1.1l-9.72-11.53c-0.09,0.83-0.67,1.58-1.81,2.72
		C46.43,1032.65,41.54,1037.57,36.61,1042.46z"/>
</g>
<g>
	<path class="st2" d="M103.47,954.38c3.75-6.26,7.47-12.52,11.23-18.77c1.51-2.51,3.77-3.79,6.72-3.58c2.81,0.2,4.8,1.71,5.96,4.23
		c1.18,2.58,0.53,4.99-0.87,7.31c-3.57,5.95-7.11,11.92-10.66,17.89c-0.82,1.38-1.2,2.26-1.09,3.08l5.14,3.69l29.5-41.09
		l-26.18-18.8l-29.5,41.09l8.79,6.31C102.82,955.41,103.13,954.95,103.47,954.38z"/>
	<path class="st1" d="M126.52,943.58c1.4-2.32,2.04-4.73,0.87-7.31c-1.15-2.53-3.15-4.04-5.96-4.23c-2.95-0.21-5.2,1.07-6.72,3.58
		c-3.76,6.25-7.49,12.51-11.23,18.77c-0.34,0.57-0.65,1.03-0.96,1.37l12.25,8.8c-0.11-0.82,0.27-1.7,1.09-3.08
		C119.4,955.5,122.94,949.53,126.52,943.58z"/>
</g>
<text transform="matrix(1 0 0 1 173.3795 990.6826)" class="st1" style="font-family:'PlutoSansBold'; font-size:96px;">SIHCAL</text>
<text transform="matrix(1 0 0 1 177.5658 1027.1582)"><tspan x="0" y="0" class="st0" style="font-family:'PlutoSansRegular'; font-size:35px;">Sistema Hondureño</tspan><tspan x="0" y="42" class="st0" style="font-family:'PlutoSansRegular'; font-size:35px;">de Casos Laborales</tspan></text>
<g>
	<g>
		<path class="st0" d="M279.06,736.83l-64.51,65.12c0,0-17.04,18.46,1.01,37.94l63.5-62.48
			C279.06,777.4,298.54,757.32,279.06,736.83z"/>
		<path class="st1" d="M219.22,844.56c0,0,19.37,18.55,39.36-1.43c19.98-19.98,49.5-49.5,49.5-49.5s8.72-5.27,4.46,4.46
			l-47.06,45.64c0,0-26.17,19.88-3.65,42.4l63.09-63.09c0,0,18.26-22.32-3.45-44.02c-21.71-21.71-49.5,12.37-49.5,12.37
			L219.22,844.56z"/>
		<circle class="st3" cx="310.71" cy="795.65" r="4.51"/>
		<circle class="st3" cx="217.29" cy="841.3" r="4.51"/>
	</g>
	<text transform="matrix(1 0 0 1 163.7003 946.9492)" class="st1" style="font-family:'PlutoSansBold'; font-size:55.5313px;">SIHCAL</text>
	<text transform="matrix(1 0 0 1 164.254 970.25)"><tspan x="0" y="0" class="st0" style="font-family:'PlutoSansRegular'; font-size:20.4159px;">Sistema Hondureño</tspan><tspan x="0" y="24.5" class="st0" style="font-family:'PlutoSansRegular'; font-size:20.4159px;">de Casos Laborales</tspan></text>
</g>
<g>
	<path class="st3" d="M129.2,130.11l0.55-2.2c1.47,0.92,3.05,1.39,4.75,1.39c1.11,0,2.01-0.21,2.67-0.62c0.67-0.41,1-0.98,1-1.69
		c0-0.53-0.2-0.95-0.6-1.28c-0.4-0.32-1.07-0.59-1.99-0.81l-2.68-0.66c-2.49-0.59-3.74-1.88-3.74-3.89c0-1.25,0.49-2.28,1.47-3.09
		c0.98-0.81,2.42-1.22,4.31-1.22c1.99,0,3.74,0.4,5.24,1.19l-0.66,2.11c-0.54-0.34-1.25-0.62-2.13-0.85s-1.72-0.34-2.53-0.34
		c-1.11,0-1.95,0.18-2.5,0.55s-0.83,0.85-0.83,1.45c0,0.5,0.17,0.89,0.5,1.19c0.33,0.29,0.85,0.54,1.57,0.73l2.9,0.75
		c1.36,0.37,2.38,0.87,3.05,1.51c0.67,0.64,1,1.47,1,2.5c0,1.38-0.57,2.49-1.71,3.33c-1.14,0.84-2.6,1.26-4.39,1.26
		c-0.98,0-1.97-0.14-2.95-0.41C130.53,130.73,129.76,130.43,129.2,130.11z"/>
	<path class="st3" d="M143.41,116.4c0-0.82,0.47-1.23,1.41-1.23c0.91,0,1.36,0.41,1.36,1.23c0,0.84-0.45,1.25-1.36,1.25
		C143.88,117.66,143.41,117.24,143.41,116.4z M143.66,131.19v-11.51h2.29v11.51H143.66z"/>
	<path class="st3" d="M158.07,120.32l-0.62,1.98c-1.17-0.59-2.38-0.88-3.61-0.88c-1.5,0-2.24,0.5-2.24,1.5
		c0,0.37,0.11,0.63,0.34,0.79c0.23,0.16,0.67,0.32,1.33,0.48l1.89,0.46c1.14,0.26,1.98,0.66,2.51,1.19c0.53,0.53,0.79,1.2,0.79,2.02
		c0,1.07-0.43,1.93-1.3,2.57c-0.87,0.65-2.02,0.97-3.48,0.97c-1.61,0-3.07-0.33-4.36-0.99l0.44-1.98c1.32,0.7,2.6,1.06,3.83,1.06
		c0.78,0,1.4-0.13,1.86-0.38s0.69-0.62,0.69-1.09c0-0.62-0.62-1.08-1.85-1.39l-1.8-0.44c-1.11-0.26-1.92-0.63-2.42-1.11
		s-0.75-1.14-0.75-1.99c0-1.1,0.41-1.98,1.22-2.63c0.81-0.65,1.97-0.98,3.47-0.98c0.7,0,1.44,0.08,2.2,0.25
		S157.6,120.1,158.07,120.32z"/>
	<path class="st3" d="M162.88,116.76h2.02v2.93h4.49v1.8h-4.49v5.72c0,1.47,0.62,2.2,1.85,2.2c0.89,0,1.75-0.29,2.55-0.88l0.75,1.78
		c-1.19,0.73-2.52,1.1-3.98,1.1c-1.09,0-1.93-0.32-2.54-0.97c-0.61-0.65-0.91-1.58-0.91-2.79v-6.16h-2.16v-1.8h2.16L162.88,116.76z"
		/>
	<path class="st3" d="M181.87,128.28l0.9,1.65c-1.28,1.04-2.87,1.56-4.77,1.56c-2.07,0-3.62-0.56-4.66-1.68s-1.56-2.57-1.56-4.35
		c0-1.73,0.55-3.18,1.66-4.34c1.11-1.17,2.56-1.75,4.37-1.75c1.67,0,2.94,0.45,3.82,1.35c0.87,0.9,1.31,2.05,1.31,3.44
		c0,0.84-0.08,1.51-0.24,2.02h-8.56c0.12,1.04,0.5,1.86,1.16,2.46c0.65,0.6,1.58,0.9,2.78,0.9
		C179.47,129.56,180.74,129.13,181.87,128.28z M180.68,124.41c0.03-0.23,0.04-0.44,0.04-0.62c0-0.72-0.25-1.32-0.75-1.79
		c-0.5-0.48-1.24-0.71-2.22-0.71c-1.03,0-1.86,0.3-2.5,0.9c-0.64,0.6-1,1.34-1.09,2.22H180.68z"/>
	<path class="st3" d="M186.14,119.68h2.29v1.74c0.94-1.3,2.27-1.96,4-1.96c1.97,0,3.29,0.78,3.98,2.33
		c0.43-0.67,1.01-1.23,1.76-1.66c0.75-0.43,1.62-0.65,2.62-0.65c1.48,0,2.58,0.47,3.3,1.4c0.72,0.93,1.08,2.16,1.08,3.69v6.62h-2.29
		v-6.27c0-1.03-0.23-1.84-0.69-2.43c-0.46-0.59-1.18-0.89-2.15-0.89c-0.85,0-1.55,0.22-2.09,0.67c-0.54,0.45-0.92,1.02-1.12,1.71
		v7.22h-2.29v-6.29c0-2.2-0.95-3.3-2.84-3.3c-0.85,0-1.55,0.23-2.1,0.68c-0.55,0.46-0.94,1.03-1.18,1.72v7.19h-2.29V119.68z"/>
	<path class="st3" d="M209.5,122.26l-0.42-1.98c1.26-0.53,2.66-0.79,4.2-0.79c1.55,0,2.72,0.4,3.49,1.2
		c0.77,0.8,1.16,1.86,1.16,3.18v7.33h-2.29v-1.25c-1.04,0.98-2.27,1.47-3.67,1.47c-1.22,0-2.17-0.31-2.87-0.92
		c-0.7-0.62-1.04-1.46-1.04-2.53c0-1.33,0.49-2.35,1.46-3.04c0.98-0.69,2.29-1.03,3.95-1.03c0.75,0,1.47,0.07,2.18,0.22v-0.13
		c0-1.69-0.84-2.53-2.53-2.53C211.82,121.44,210.62,121.71,209.5,122.26z M210.34,127.71c0,0.62,0.21,1.08,0.63,1.4
		s0.99,0.47,1.7,0.47c1.1,0,2.09-0.39,2.97-1.17v-2.66c-0.53-0.13-1.1-0.2-1.72-0.2c-1.07,0-1.94,0.18-2.6,0.54
		S210.34,126.99,210.34,127.71z"/>
	<path class="st3" d="M238.83,131.19v-6.53h-9.28v6.53h-2.29v-14.96h2.29v6.42h9.28v-6.42h2.29v14.96H238.83z"/>
	<path class="st3" d="M244.41,125.47c0-1.76,0.58-3.21,1.74-4.37c1.16-1.15,2.62-1.73,4.4-1.73c1.79,0,3.26,0.58,4.42,1.73
		c1.16,1.15,1.74,2.61,1.74,4.37c0,1.73-0.58,3.17-1.74,4.31c-1.16,1.14-2.63,1.72-4.42,1.72c-1.77,0-3.24-0.57-4.4-1.72
		C244.99,128.64,244.41,127.2,244.41,125.47z M246.64,125.47c0,1.13,0.36,2.07,1.09,2.81s1.67,1.11,2.83,1.11
		c1.16,0,2.11-0.37,2.85-1.11s1.11-1.68,1.11-2.81c0-1.14-0.37-2.09-1.11-2.85c-0.74-0.75-1.69-1.13-2.85-1.13
		c-1.16,0-2.1,0.38-2.83,1.13C247,123.38,246.64,124.32,246.64,125.47z"/>
	<path class="st3" d="M259.88,119.68h2.29v1.78c0.94-1.32,2.31-1.98,4.11-1.98c1.5,0,2.62,0.47,3.37,1.41s1.12,2.16,1.12,3.67v6.62
		h-2.29v-6.27c0-1.03-0.24-1.84-0.73-2.43s-1.22-0.89-2.2-0.89c-0.85,0-1.57,0.24-2.16,0.73c-0.59,0.48-1,1.07-1.23,1.76v7.11h-2.29
		V119.68z"/>
	<path class="st3" d="M273.85,125.42c0-1.75,0.51-3.17,1.52-4.28s2.35-1.66,4-1.66c1.45,0,2.68,0.5,3.67,1.5v-5.41h2.29v15.62h-2.29
		v-1.34c-0.97,1.04-2.19,1.56-3.67,1.56c-1.64,0-2.97-0.56-3.99-1.67C274.36,128.62,273.85,127.18,273.85,125.42z M276.18,125.42
		c0,1.19,0.34,2.15,1.03,2.88c0.69,0.73,1.61,1.1,2.75,1.1c1.19,0,2.21-0.43,3.08-1.3v-5.28c-0.37-0.38-0.83-0.7-1.38-0.96
		c-0.55-0.26-1.12-0.38-1.71-0.38c-1.14,0-2.06,0.36-2.75,1.09C276.53,123.3,276.18,124.25,276.18,125.42z"/>
	<path class="st3" d="M300.03,131.19h-2.29v-1.78c-0.94,1.32-2.3,1.98-4.09,1.98c-1.5,0-2.62-0.47-3.38-1.41s-1.13-2.16-1.13-3.67
		v-6.62h2.29v6.27c0,1.03,0.25,1.84,0.74,2.43c0.49,0.59,1.24,0.89,2.23,0.89c0.84,0,1.55-0.24,2.13-0.73
		c0.59-0.48,0.99-1.07,1.21-1.76v-7.11h2.29V131.19z"/>
	<path class="st3" d="M303.97,131.19v-11.51h2.29v2.27c0.78-1.64,1.88-2.46,3.3-2.46c0.89,0,1.71,0.28,2.44,0.84l-0.9,1.89
		c-0.57-0.41-1.2-0.62-1.89-0.62c-0.7,0-1.31,0.25-1.83,0.74c-0.51,0.49-0.89,1.12-1.12,1.88v6.97H303.97z"/>
	<path class="st3" d="M323.35,128.28l0.9,1.65c-1.28,1.04-2.87,1.56-4.77,1.56c-2.07,0-3.62-0.56-4.66-1.68s-1.56-2.57-1.56-4.35
		c0-1.73,0.55-3.18,1.66-4.34c1.11-1.17,2.56-1.75,4.37-1.75c1.67,0,2.94,0.45,3.82,1.35c0.87,0.9,1.31,2.05,1.31,3.44
		c0,0.84-0.08,1.51-0.24,2.02h-8.56c0.12,1.04,0.5,1.86,1.16,2.46c0.65,0.6,1.58,0.9,2.78,0.9
		C320.95,129.56,322.22,129.13,323.35,128.28z M322.16,124.41c0.03-0.23,0.04-0.44,0.04-0.62c0-0.72-0.25-1.32-0.75-1.79
		c-0.5-0.48-1.24-0.71-2.22-0.71c-1.03,0-1.86,0.3-2.5,0.9c-0.64,0.6-1,1.34-1.09,2.22H322.16z"/>
	<path class="st3" d="M327.62,119.68h2.29v1.78c0.94-1.32,2.31-1.98,4.11-1.98c1.5,0,2.62,0.47,3.37,1.41s1.12,2.16,1.12,3.67v6.62
		h-2.29v-6.27c0-1.03-0.24-1.84-0.73-2.43s-1.22-0.89-2.2-0.89c-0.85,0-1.57,0.24-2.16,0.73c-0.59,0.48-1,1.07-1.23,1.76v7.11h-2.29
		V119.68z M329.93,117.7l-0.75-0.95c0.22-0.47,0.54-0.87,0.95-1.19s0.86-0.48,1.34-0.48s1.08,0.23,1.78,0.69
		c0.7,0.46,1.2,0.69,1.47,0.69c0.67,0,1.18-0.34,1.52-1.03l0.75,0.92c-0.56,1.14-1.31,1.72-2.27,1.72c-0.45,0-1.04-0.23-1.76-0.7
		c-0.72-0.47-1.21-0.7-1.47-0.7C330.86,116.67,330.34,117.01,329.93,117.7z"/>
	<path class="st3" d="M341.57,125.47c0-1.76,0.58-3.21,1.74-4.37c1.16-1.15,2.62-1.73,4.4-1.73c1.79,0,3.26,0.58,4.42,1.73
		c1.16,1.15,1.74,2.61,1.74,4.37c0,1.73-0.58,3.17-1.74,4.31c-1.16,1.14-2.63,1.72-4.42,1.72c-1.77,0-3.24-0.57-4.4-1.72
		C342.14,128.64,341.57,127.2,341.57,125.47z M343.79,125.47c0,1.13,0.36,2.07,1.09,2.81s1.67,1.11,2.83,1.11
		c1.16,0,2.11-0.37,2.85-1.11s1.11-1.68,1.11-2.81c0-1.14-0.37-2.09-1.11-2.85c-0.74-0.75-1.69-1.13-2.85-1.13
		c-1.16,0-2.1,0.38-2.83,1.13C344.15,123.38,343.79,124.32,343.79,125.47z"/>
	<path class="st3" d="M361.59,125.42c0-1.75,0.51-3.17,1.52-4.28s2.35-1.66,4-1.66c1.45,0,2.68,0.5,3.67,1.5v-5.41h2.29v15.62h-2.29
		v-1.34c-0.97,1.04-2.19,1.56-3.67,1.56c-1.64,0-2.97-0.56-3.99-1.67C362.09,128.62,361.59,127.18,361.59,125.42z M363.92,125.42
		c0,1.19,0.34,2.15,1.03,2.88c0.69,0.73,1.61,1.1,2.75,1.1c1.19,0,2.21-0.43,3.08-1.3v-5.28c-0.37-0.38-0.83-0.7-1.38-0.96
		c-0.55-0.26-1.12-0.38-1.71-0.38c-1.14,0-2.06,0.36-2.75,1.09C364.26,123.3,363.92,124.25,363.92,125.42z"/>
	<path class="st3" d="M386.38,128.28l0.9,1.65c-1.28,1.04-2.87,1.56-4.77,1.56c-2.07,0-3.62-0.56-4.66-1.68s-1.56-2.57-1.56-4.35
		c0-1.73,0.55-3.18,1.66-4.34c1.11-1.17,2.56-1.75,4.37-1.75c1.67,0,2.94,0.45,3.82,1.35c0.87,0.9,1.31,2.05,1.31,3.44
		c0,0.84-0.08,1.51-0.24,2.02h-8.56c0.12,1.04,0.5,1.86,1.16,2.46c0.65,0.6,1.58,0.9,2.78,0.9
		C383.98,129.56,385.25,129.13,386.38,128.28z M385.19,124.41c0.03-0.23,0.04-0.44,0.04-0.62c0-0.72-0.25-1.32-0.75-1.79
		c-0.5-0.48-1.24-0.71-2.22-0.71c-1.03,0-1.86,0.3-2.5,0.9c-0.64,0.6-1,1.34-1.09,2.22H385.19z"/>
	<path class="st3" d="M399.09,119.74c-1.03,1.06-1.54,2.39-1.54,3.97s0.51,2.91,1.54,3.97c1.03,1.06,2.32,1.59,3.89,1.59
		c1.88,0,3.46-0.59,4.75-1.78l1.1,1.63c-1.53,1.53-3.48,2.29-5.85,2.29c-2.21,0-4.07-0.74-5.56-2.21s-2.23-3.3-2.23-5.49
		c0-2.18,0.74-4.01,2.23-5.49c1.49-1.47,3.34-2.21,5.56-2.21c2.38,0,4.33,0.76,5.85,2.29l-1.1,1.63c-1.29-1.19-2.87-1.78-4.75-1.78
		C401.42,118.14,400.12,118.67,399.09,119.74z"/>
	<path class="st3" d="M412.4,122.26l-0.42-1.98c1.26-0.53,2.66-0.79,4.2-0.79c1.55,0,2.72,0.4,3.49,1.2
		c0.77,0.8,1.16,1.86,1.16,3.18v7.33h-2.29v-1.25c-1.04,0.98-2.27,1.47-3.67,1.47c-1.22,0-2.17-0.31-2.87-0.92
		c-0.7-0.62-1.04-1.46-1.04-2.53c0-1.33,0.49-2.35,1.46-3.04c0.98-0.69,2.29-1.03,3.95-1.03c0.75,0,1.47,0.07,2.18,0.22v-0.13
		c0-1.69-0.84-2.53-2.53-2.53C414.72,121.44,413.52,121.71,412.4,122.26z M413.24,127.71c0,0.62,0.21,1.08,0.63,1.4
		s0.99,0.47,1.7,0.47c1.1,0,2.09-0.39,2.97-1.17v-2.66c-0.53-0.13-1.1-0.2-1.72-0.2c-1.07,0-1.94,0.18-2.6,0.54
		S413.24,126.99,413.24,127.71z"/>
	<path class="st3" d="M432.82,120.32l-0.62,1.98c-1.17-0.59-2.38-0.88-3.61-0.88c-1.5,0-2.24,0.5-2.24,1.5
		c0,0.37,0.11,0.63,0.34,0.79c0.23,0.16,0.67,0.32,1.33,0.48l1.89,0.46c1.14,0.26,1.98,0.66,2.51,1.19c0.53,0.53,0.79,1.2,0.79,2.02
		c0,1.07-0.43,1.93-1.3,2.57c-0.87,0.65-2.02,0.97-3.48,0.97c-1.61,0-3.07-0.33-4.36-0.99l0.44-1.98c1.32,0.7,2.6,1.06,3.83,1.06
		c0.78,0,1.4-0.13,1.86-0.38s0.69-0.62,0.69-1.09c0-0.62-0.62-1.08-1.85-1.39l-1.8-0.44c-1.11-0.26-1.92-0.63-2.42-1.11
		s-0.75-1.14-0.75-1.99c0-1.1,0.41-1.98,1.22-2.63c0.81-0.65,1.97-0.98,3.47-0.98c0.7,0,1.44,0.08,2.2,0.25
		S432.35,120.1,432.82,120.32z"/>
	<path class="st3" d="M435.59,125.47c0-1.76,0.58-3.21,1.74-4.37c1.16-1.15,2.62-1.73,4.4-1.73c1.79,0,3.26,0.58,4.42,1.73
		c1.16,1.15,1.74,2.61,1.74,4.37c0,1.73-0.58,3.17-1.74,4.31c-1.16,1.14-2.63,1.72-4.42,1.72c-1.77,0-3.24-0.57-4.4-1.72
		C436.17,128.64,435.59,127.2,435.59,125.47z M437.82,125.47c0,1.13,0.36,2.07,1.09,2.81s1.67,1.11,2.83,1.11
		c1.16,0,2.11-0.37,2.85-1.11s1.11-1.68,1.11-2.81c0-1.14-0.37-2.09-1.11-2.85c-0.74-0.75-1.69-1.13-2.85-1.13
		c-1.16,0-2.1,0.38-2.83,1.13C438.18,123.38,437.82,124.32,437.82,125.47z"/>
	<path class="st3" d="M459.24,120.32l-0.62,1.98c-1.17-0.59-2.38-0.88-3.61-0.88c-1.5,0-2.24,0.5-2.24,1.5
		c0,0.37,0.11,0.63,0.34,0.79c0.23,0.16,0.67,0.32,1.33,0.48l1.89,0.46c1.14,0.26,1.98,0.66,2.51,1.19c0.53,0.53,0.79,1.2,0.79,2.02
		c0,1.07-0.43,1.93-1.3,2.57c-0.87,0.65-2.02,0.97-3.48,0.97c-1.61,0-3.07-0.33-4.36-0.99l0.44-1.98c1.32,0.7,2.6,1.06,3.83,1.06
		c0.78,0,1.4-0.13,1.86-0.38s0.69-0.62,0.69-1.09c0-0.62-0.62-1.08-1.85-1.39l-1.8-0.44c-1.11-0.26-1.92-0.63-2.42-1.11
		s-0.75-1.14-0.75-1.99c0-1.1,0.41-1.98,1.22-2.63c0.81-0.65,1.97-0.98,3.47-0.98c0.7,0,1.44,0.08,2.2,0.25
		S458.77,120.1,459.24,120.32z"/>
	<path class="st3" d="M478.76,131.19h-10.47v-14.96h2.29v12.96h8.18V131.19z"/>
	<path class="st3" d="M481.7,122.26l-0.42-1.98c1.26-0.53,2.66-0.79,4.2-0.79c1.55,0,2.72,0.4,3.49,1.2
		c0.77,0.8,1.16,1.86,1.16,3.18v7.33h-2.29v-1.25c-1.04,0.98-2.27,1.47-3.67,1.47c-1.22,0-2.17-0.31-2.87-0.92
		c-0.7-0.62-1.04-1.46-1.04-2.53c0-1.33,0.49-2.35,1.46-3.04c0.98-0.69,2.29-1.03,3.95-1.03c0.75,0,1.47,0.07,2.18,0.22v-0.13
		c0-1.69-0.84-2.53-2.53-2.53C484.02,121.44,482.82,121.71,481.7,122.26z M482.54,127.71c0,0.62,0.21,1.08,0.63,1.4
		s0.99,0.47,1.7,0.47c1.1,0,2.09-0.39,2.97-1.17v-2.66c-0.53-0.13-1.1-0.2-1.72-0.2c-1.07,0-1.94,0.18-2.6,0.54
		S482.54,126.99,482.54,127.71z"/>
	<path class="st3" d="M503.91,121.15c1.02,1.11,1.53,2.53,1.53,4.28c0,1.75-0.51,3.18-1.53,4.3c-1.02,1.12-2.35,1.68-3.99,1.68
		c-1.51,0-2.74-0.53-3.7-1.58v1.36h-2.29v-15.62h2.29V121c0.98-1.01,2.21-1.52,3.7-1.52C501.56,119.48,502.89,120.04,503.91,121.15z
		 M503.11,125.42c0-1.17-0.34-2.12-1.03-2.85c-0.69-0.73-1.61-1.09-2.75-1.09c-0.6,0-1.18,0.13-1.73,0.4
		c-0.55,0.26-1.01,0.59-1.38,0.97v5.26c0.34,0.35,0.78,0.66,1.34,0.91c0.56,0.26,1.14,0.38,1.76,0.38c1.14,0,2.06-0.37,2.75-1.1
		C502.77,127.57,503.11,126.61,503.11,125.42z"/>
	<path class="st3" d="M507.88,125.47c0-1.76,0.58-3.21,1.74-4.37c1.16-1.15,2.62-1.73,4.4-1.73c1.79,0,3.26,0.58,4.42,1.73
		c1.16,1.15,1.74,2.61,1.74,4.37c0,1.73-0.58,3.17-1.74,4.31c-1.16,1.14-2.63,1.72-4.42,1.72c-1.77,0-3.24-0.57-4.4-1.72
		C508.46,128.64,507.88,127.2,507.88,125.47z M510.11,125.47c0,1.13,0.36,2.07,1.09,2.81s1.67,1.11,2.83,1.11
		c1.16,0,2.11-0.37,2.85-1.11s1.11-1.68,1.11-2.81c0-1.14-0.37-2.09-1.11-2.85c-0.74-0.75-1.69-1.13-2.85-1.13
		c-1.16,0-2.1,0.38-2.83,1.13C510.47,123.38,510.11,124.32,510.11,125.47z"/>
	<path class="st3" d="M523.35,131.19v-11.51h2.29v2.27c0.78-1.64,1.88-2.46,3.3-2.46c0.89,0,1.71,0.28,2.44,0.84l-0.9,1.89
		c-0.57-0.41-1.2-0.62-1.89-0.62c-0.7,0-1.31,0.25-1.83,0.74c-0.51,0.49-0.89,1.12-1.12,1.88v6.97H523.35z"/>
	<path class="st3" d="M534.06,122.26l-0.42-1.98c1.26-0.53,2.66-0.79,4.2-0.79c1.55,0,2.72,0.4,3.49,1.2
		c0.77,0.8,1.16,1.86,1.16,3.18v7.33h-2.29v-1.25c-1.04,0.98-2.27,1.47-3.67,1.47c-1.22,0-2.17-0.31-2.87-0.92
		c-0.7-0.62-1.04-1.46-1.04-2.53c0-1.33,0.49-2.35,1.46-3.04c0.98-0.69,2.29-1.03,3.95-1.03c0.75,0,1.47,0.07,2.18,0.22v-0.13
		c0-1.69-0.84-2.53-2.53-2.53C536.38,121.44,535.18,121.71,534.06,122.26z M534.9,127.71c0,0.62,0.21,1.08,0.63,1.4
		s0.99,0.47,1.7,0.47c1.1,0,2.09-0.39,2.97-1.17v-2.66c-0.53-0.13-1.1-0.2-1.72-0.2c-1.07,0-1.94,0.18-2.6,0.54
		S534.9,126.99,534.9,127.71z"/>
	<path class="st3" d="M546.34,115.57h2.29v12.45c0,0.95,0.38,1.43,1.14,1.43c0.44,0,0.89-0.13,1.34-0.4l0.18,1.83
		c-0.73,0.35-1.52,0.53-2.35,0.53c-1.73,0-2.6-0.95-2.6-2.86V115.57z"/>
	<path class="st3" d="M562.93,128.28l0.9,1.65c-1.28,1.04-2.87,1.56-4.77,1.56c-2.07,0-3.62-0.56-4.66-1.68s-1.56-2.57-1.56-4.35
		c0-1.73,0.55-3.18,1.66-4.34c1.11-1.17,2.56-1.75,4.37-1.75c1.67,0,2.94,0.45,3.82,1.35c0.87,0.9,1.31,2.05,1.31,3.44
		c0,0.84-0.08,1.51-0.24,2.02h-8.56c0.12,1.04,0.5,1.86,1.16,2.46c0.65,0.6,1.58,0.9,2.78,0.9
		C560.53,129.56,561.8,129.13,562.93,128.28z M561.74,124.41c0.03-0.23,0.04-0.44,0.04-0.62c0-0.72-0.25-1.32-0.75-1.79
		c-0.5-0.48-1.24-0.71-2.22-0.71c-1.03,0-1.86,0.3-2.5,0.9c-0.64,0.6-1,1.34-1.09,2.22H561.74z"/>
	<path class="st3" d="M575.38,120.32l-0.62,1.98c-1.17-0.59-2.38-0.88-3.61-0.88c-1.5,0-2.24,0.5-2.24,1.5
		c0,0.37,0.11,0.63,0.34,0.79c0.23,0.16,0.67,0.32,1.33,0.48l1.89,0.46c1.14,0.26,1.98,0.66,2.51,1.19c0.53,0.53,0.79,1.2,0.79,2.02
		c0,1.07-0.43,1.93-1.3,2.57c-0.87,0.65-2.02,0.97-3.48,0.97c-1.61,0-3.07-0.33-4.36-0.99l0.44-1.98c1.32,0.7,2.6,1.06,3.83,1.06
		c0.78,0,1.4-0.13,1.86-0.38s0.69-0.62,0.69-1.09c0-0.62-0.62-1.08-1.85-1.39l-1.8-0.44c-1.11-0.26-1.92-0.63-2.42-1.11
		s-0.75-1.14-0.75-1.99c0-1.1,0.41-1.98,1.22-2.63c0.81-0.65,1.97-0.98,3.47-0.98c0.7,0,1.44,0.08,2.2,0.25
		S574.91,120.1,575.38,120.32z"/>
</g>
<g>
	<path class="st3" d="M93.24,78c-10.81,7.15-9.44,20.78-0.01,26.55c-1.57,4.81-4.13,9.1-7.48,12.91
		c-16.54,18.8-45.44,18.19-61.22-1.27c-2.76-3.4-2.56-7.36,0.5-9.83c2.95-2.39,6.83-1.73,9.58,1.53
		c7.55,8.96,17.16,12.32,28.38,9.14c11.15-3.15,17.64-11.02,19.32-22.49C84.59,78.96,71.8,64.6,55.82,64.53
		c-0.87,0-1.76,0.05-2.61-0.08c-3.36-0.52-5.64-3.31-5.53-6.65c0.11-3.24,2.51-5.94,5.81-6.18c8.31-0.58,16.03,1.43,23.09,5.8
		C84.52,62.34,90.06,69.23,93.24,78z"/>
	<path class="st3" d="M19.08,71.21c9.47-5.9,10.7-19.44-0.05-26.54c3.15-8.61,8.55-15.44,16.31-20.35
		c15.53-9.82,35.88-7.68,48.97,5.08c3.1,3.02,3.36,6.86,0.65,9.65c-2.68,2.75-6.61,2.64-9.69-0.29c-8.54-8.08-20.74-9.87-31.02-4.54
		c-10.04,5.2-15.78,16.24-14.25,27.4c1.56,11.42,10.16,20.51,21.62,22.7c2.1,0.4,4.28,0.43,6.42,0.51c3.66,0.14,6.48,2.78,6.6,6.28
		c0.12,3.45-2.63,6.42-6.21,6.71C41.77,99.16,24.02,87.19,19.08,71.21z"/>
	<path class="st3" d="M23.05,58.07c-0.02,6.4-5.2,11.53-11.61,11.49C5.1,69.52-0.05,64.26,0,57.87c0.05-6.28,5.2-11.35,11.54-11.36
		C17.98,46.5,23.07,51.62,23.05,58.07z"/>
	<path class="st3" d="M100.64,102.81c-6.45-0.01-11.45-5.1-11.42-11.62c0.04-6.31,5.14-11.39,11.48-11.42
		c6.32-0.03,11.59,5.25,11.57,11.59C112.26,97.76,107.11,102.83,100.64,102.81z"/>
</g>
<g>
	<path class="st3" d="M130.69,94.16l3.93-16.07c8.01,5.24,16.59,7.86,25.71,7.86c5,0,8.89-0.77,11.67-2.32
		c2.78-1.55,4.17-3.79,4.17-6.73c0-2.22-0.85-4.03-2.56-5.42c-1.71-1.39-4.62-2.6-8.75-3.63l-13.33-3.33
		c-13.81-3.41-20.71-10.83-20.71-22.26c0-7.14,2.68-12.97,8.04-17.5c5.36-4.52,13.23-6.79,23.63-6.79c11.11,0,20.79,2.14,29.05,6.43
		l-4.76,15.24c-3.09-1.83-6.96-3.35-11.61-4.58c-4.64-1.23-9.07-1.85-13.27-1.85c-9.21,0-13.81,2.54-13.81,7.62
		c0,2.06,0.67,3.65,2.02,4.76c1.35,1.11,3.61,2.1,6.79,2.98l14.88,4.17c7.38,2.06,12.86,4.96,16.43,8.69
		c3.57,3.73,5.36,8.45,5.36,14.17c0,7.54-3.14,13.69-9.4,18.45c-6.27,4.76-14.33,7.14-24.17,7.14c-5.4,0-10.87-0.73-16.43-2.2
		C137.99,97.51,133.7,95.91,130.69,94.16z"/>
	<path class="st3" d="M209.97,99.99V19.05h16.67v80.95H209.97z"/>
	<path class="st3" d="M308.65,99.99V66.42H265.2v33.57h-16.67V19.05h16.67V51.9h43.45V19.05h16.67v80.95H308.65z"/>
	<path class="st3" d="M366.44,40.83c-4.72,5-7.08,11.23-7.08,18.69c0,7.46,2.36,13.69,7.08,18.69c4.72,5,10.77,7.5,18.15,7.5
		c8.97,0,16.86-2.66,23.69-7.98l7.86,11.78c-8.49,7.78-19.05,11.67-31.66,11.67c-12.06,0-22.14-3.99-30.24-11.96
		s-12.14-17.88-12.14-29.7c0-11.82,4.05-21.72,12.14-29.7s18.17-11.96,30.24-11.96c12.62,0,23.17,3.89,31.66,11.67l-7.86,11.79
		c-6.83-5.32-14.72-7.98-23.69-7.98C377.22,33.33,371.16,35.83,366.44,40.83z"/>
	<path class="st3" d="M421.86,99.99l32.26-80.95h19.52l31.31,80.95h-16.9l-6.19-16.19h-36.78l-6.31,16.19H421.86z M463.88,35.59
		l-14.52,35.83h28.33L463.88,35.59z"/>
	<path class="st3" d="M576.13,99.99h-58.69V19.05h16.67v66.42h42.02V99.99z"/>
</g>
</svg>
