<svg id="svg" version="1.1" xmlns="http://www.w3.org/2000/svg" xmlns:xlink="http://www.w3.org/1999/xlink" width="400" height="81.37254901960785" viewBox="0, 0, 400,81.37254901960785"><g id="svgg"><path id="path0" d="M253.667 1.916 L 253.667 2.667 254.667 2.667 C 255.444 2.667,255.667 2.722,255.667 2.917 C 255.667 3.120,255.944 3.167,257.167 3.167 C 258.389 3.167,258.667 3.213,258.667 3.417 C 258.667 3.618,258.927 3.667,260.012 3.667 C 260.985 3.667,261.426 3.736,261.607 3.917 C 261.787 4.097,262.226 4.167,263.179 4.167 C 264.242 4.167,264.500 4.215,264.500 4.417 C 264.500 4.617,264.750 4.667,265.750 4.667 C 266.750 4.667,267.000 4.717,267.000 4.917 C 267.000 5.115,267.241 5.167,268.167 5.167 C 269.093 5.167,269.333 5.218,269.333 5.417 C 269.333 5.611,269.556 5.667,270.333 5.667 C 271.054 5.667,271.333 5.729,271.333 5.888 C 271.333 6.042,271.625 6.121,272.291 6.148 C 272.918 6.174,273.294 6.270,273.382 6.427 C 273.471 6.586,273.799 6.667,274.354 6.667 C 274.875 6.667,275.285 6.761,275.440 6.917 C 275.586 7.062,275.993 7.167,276.415 7.167 C 276.813 7.167,277.165 7.245,277.197 7.342 C 277.229 7.438,277.667 7.560,278.169 7.613 C 278.672 7.667,279.121 7.765,279.167 7.833 C 279.212 7.900,279.681 8.008,280.208 8.073 C 280.735 8.138,281.167 8.260,281.167 8.345 C 281.167 8.430,281.504 8.500,281.917 8.500 C 282.472 8.500,282.667 8.565,282.667 8.750 C 282.667 8.935,282.861 9.000,283.417 9.000 C 283.972 9.000,284.167 9.065,284.167 9.250 C 284.167 9.442,284.380 9.500,285.083 9.500 C 285.787 9.500,286.000 9.558,286.000 9.750 C 286.000 9.935,286.194 10.000,286.750 10.000 C 287.306 10.000,287.500 10.065,287.500 10.250 C 287.500 10.435,287.694 10.500,288.250 10.500 C 288.806 10.500,289.000 10.565,289.000 10.750 C 289.000 10.935,289.194 11.000,289.750 11.000 C 290.306 11.000,290.500 11.065,290.500 11.250 C 290.500 11.429,290.683 11.500,291.149 11.500 C 291.572 11.500,291.831 11.587,291.894 11.750 C 291.946 11.887,292.182 12.000,292.417 12.000 C 292.652 12.000,292.887 12.112,292.940 12.250 C 293.002 12.411,293.260 12.500,293.667 12.500 C 294.074 12.500,294.332 12.589,294.394 12.750 C 294.456 12.913,294.716 13.000,295.144 13.000 C 295.571 13.000,295.831 13.087,295.894 13.250 C 295.946 13.387,296.176 13.500,296.403 13.500 C 296.631 13.500,296.883 13.619,296.965 13.765 C 297.047 13.911,297.163 14.023,297.223 14.015 C 297.845 13.931,298.333 14.034,298.333 14.250 C 298.333 14.415,298.498 14.500,298.816 14.500 C 299.090 14.500,299.339 14.607,299.394 14.750 C 299.453 14.905,299.707 15.000,300.060 15.000 C 300.414 15.000,300.668 15.095,300.727 15.250 C 300.780 15.387,300.998 15.500,301.211 15.500 C 301.425 15.500,301.671 15.571,301.758 15.657 C 301.845 15.744,302.179 15.860,302.500 15.916 C 302.821 15.972,303.108 16.089,303.139 16.175 C 303.169 16.262,303.413 16.333,303.681 16.333 C 304.002 16.333,304.167 16.418,304.167 16.583 C 304.167 16.750,304.333 16.833,304.667 16.833 C 305.000 16.833,305.167 16.917,305.167 17.083 C 305.167 17.269,305.361 17.333,305.917 17.333 C 306.472 17.333,306.667 17.398,306.667 17.583 C 306.667 17.750,306.833 17.833,307.167 17.833 C 307.500 17.833,307.667 17.917,307.667 18.083 C 307.667 18.240,307.825 18.333,308.089 18.333 C 308.321 18.333,308.554 18.446,308.606 18.583 C 308.661 18.726,308.910 18.833,309.184 18.833 C 309.481 18.833,309.651 18.913,309.625 19.042 C 309.602 19.159,309.784 19.273,310.042 19.303 C 310.304 19.333,310.500 19.458,310.500 19.594 C 310.500 19.749,310.677 19.833,311.000 19.833 C 311.333 19.833,311.500 19.917,311.500 20.083 C 311.500 20.248,311.664 20.333,311.980 20.333 C 312.243 20.333,312.553 20.446,312.667 20.583 C 312.781 20.721,313.007 20.833,313.169 20.833 C 313.332 20.833,313.508 20.946,313.560 21.083 C 313.613 21.221,313.838 21.333,314.060 21.333 C 314.283 21.333,314.508 21.446,314.560 21.583 C 314.613 21.721,314.846 21.833,315.078 21.833 C 315.342 21.833,315.500 21.927,315.500 22.083 C 315.500 22.250,315.667 22.333,316.000 22.333 C 316.297 22.333,316.500 22.421,316.500 22.548 C 316.500 22.666,316.667 22.775,316.872 22.790 C 317.076 22.806,317.328 22.934,317.432 23.076 C 317.535 23.217,317.774 23.333,317.963 23.333 C 318.151 23.333,318.335 23.420,318.370 23.526 C 318.405 23.633,318.615 23.747,318.835 23.781 C 319.055 23.814,319.277 23.909,319.328 23.991 C 319.378 24.073,319.626 24.192,319.877 24.255 C 320.128 24.318,320.333 24.436,320.333 24.518 C 320.333 24.600,320.446 24.667,320.583 24.667 C 320.721 24.667,320.833 24.779,320.833 24.917 C 320.833 25.083,321.000 25.167,321.333 25.167 C 321.667 25.167,321.833 25.250,321.833 25.417 C 321.833 25.583,322.000 25.667,322.333 25.667 C 322.667 25.667,322.833 25.750,322.833 25.917 C 322.833 26.083,323.000 26.167,323.333 26.167 C 323.667 26.167,323.833 26.250,323.833 26.417 C 323.833 26.554,323.946 26.667,324.083 26.667 C 324.221 26.667,324.333 26.779,324.333 26.917 C 324.333 27.083,324.500 27.167,324.833 27.167 C 325.167 27.167,325.333 27.250,325.333 27.417 C 325.333 27.572,325.491 27.667,325.750 27.667 C 326.009 27.667,326.167 27.761,326.167 27.917 C 326.167 28.054,326.271 28.167,326.399 28.167 C 326.527 28.167,326.674 28.279,326.727 28.417 C 326.780 28.554,327.013 28.667,327.245 28.667 C 327.509 28.667,327.667 28.760,327.667 28.917 C 327.667 29.083,327.833 29.167,328.167 29.167 C 328.500 29.167,328.667 29.250,328.667 29.417 C 328.667 29.554,328.775 29.667,328.908 29.667 C 329.041 29.667,329.217 29.786,329.298 29.932 C 329.380 30.077,329.496 30.190,329.557 30.182 C 329.972 30.125,330.167 30.200,330.167 30.417 C 330.167 30.554,330.282 30.667,330.422 30.667 C 330.562 30.667,330.720 30.779,330.773 30.917 C 330.826 31.054,331.048 31.167,331.268 31.167 C 331.511 31.167,331.667 31.264,331.667 31.417 C 331.667 31.583,331.833 31.667,332.167 31.667 C 332.500 31.667,332.667 31.750,332.667 31.917 C 332.667 32.054,332.779 32.167,332.917 32.167 C 333.054 32.167,333.167 32.242,333.167 32.333 C 333.167 32.425,333.317 32.500,333.500 32.500 C 333.847 32.500,334.500 33.044,334.500 33.333 C 334.500 33.425,334.725 33.500,335.000 33.500 C 335.333 33.500,335.500 33.583,335.500 33.750 C 335.500 33.887,335.612 34.000,335.750 34.000 C 335.887 34.000,336.000 34.112,336.000 34.250 C 336.000 34.387,336.115 34.500,336.255 34.500 C 336.396 34.500,336.554 34.613,336.606 34.750 C 336.659 34.888,336.882 35.000,337.101 35.000 C 337.345 35.000,337.500 35.097,337.500 35.250 C 337.500 35.387,337.612 35.500,337.750 35.500 C 337.887 35.500,338.000 35.612,338.000 35.750 C 338.000 35.917,338.167 36.000,338.500 36.000 C 338.833 36.000,339.000 36.083,339.000 36.250 C 339.000 36.387,339.112 36.500,339.250 36.500 C 339.387 36.500,339.500 36.612,339.500 36.750 C 339.500 36.887,339.612 37.000,339.750 37.000 C 339.887 37.000,340.000 37.112,340.000 37.250 C 340.000 37.387,340.056 37.491,340.125 37.480 C 340.585 37.408,341.000 37.536,341.000 37.750 C 341.000 37.887,341.112 38.000,341.250 38.000 C 341.387 38.000,341.500 38.112,341.500 38.250 C 341.500 38.387,341.647 38.500,341.826 38.500 C 342.005 38.500,342.557 38.902,343.052 39.392 C 343.546 39.883,344.150 40.335,344.392 40.396 C 344.635 40.457,344.833 40.580,344.833 40.670 C 344.833 40.760,344.946 40.833,345.083 40.833 C 345.221 40.833,345.333 40.946,345.333 41.083 C 345.333 41.221,345.446 41.333,345.583 41.333 C 345.721 41.333,345.833 41.446,345.833 41.583 C 345.833 41.750,346.000 41.833,346.333 41.833 C 346.667 41.833,346.833 41.917,346.833 42.083 C 346.833 42.221,346.946 42.333,347.083 42.333 C 347.221 42.333,347.333 42.446,347.333 42.583 C 347.333 42.721,347.446 42.833,347.583 42.833 C 347.721 42.833,347.833 42.946,347.833 43.083 C 347.833 43.221,347.946 43.333,348.083 43.333 C 348.221 43.333,348.333 43.446,348.333 43.583 C 348.333 43.750,348.500 43.833,348.833 43.833 C 349.167 43.833,349.333 43.917,349.333 44.083 C 349.333 44.221,349.446 44.333,349.583 44.333 C 349.721 44.333,349.833 44.408,349.833 44.500 C 349.833 44.716,350.451 45.333,350.667 45.333 C 350.758 45.333,350.815 45.390,350.792 45.458 C 350.729 45.646,351.389 46.243,351.725 46.301 C 352.060 46.359,352.667 46.917,352.667 47.167 C 352.667 47.258,352.779 47.333,352.917 47.333 C 353.054 47.333,353.167 47.446,353.167 47.583 C 353.167 47.721,353.271 47.833,353.399 47.833 C 353.527 47.833,353.676 47.951,353.731 48.094 C 353.786 48.237,353.907 48.308,353.999 48.251 C 354.091 48.194,354.167 48.264,354.167 48.407 C 354.167 48.550,354.279 48.667,354.417 48.667 C 354.554 48.667,354.667 48.779,354.667 48.917 C 354.667 49.054,354.779 49.167,354.917 49.167 C 355.054 49.167,355.167 49.279,355.167 49.417 C 355.167 49.554,355.279 49.667,355.417 49.667 C 355.554 49.667,355.667 49.779,355.667 49.917 C 355.667 50.083,355.833 50.167,356.167 50.167 C 356.500 50.167,356.667 50.250,356.667 50.417 C 356.667 50.554,356.779 50.667,356.917 50.667 C 357.054 50.667,357.167 50.779,357.167 50.917 C 357.167 51.054,357.279 51.167,357.417 51.167 C 357.554 51.167,357.667 51.279,357.667 51.417 C 357.667 51.554,357.779 51.667,357.917 51.667 C 358.054 51.667,358.167 51.746,358.167 51.843 C 358.167 52.069,362.201 56.097,362.371 56.042 C 362.442 56.019,362.500 56.075,362.500 56.167 C 362.500 56.383,363.117 57.000,363.333 57.000 C 363.425 57.000,363.500 57.112,363.500 57.250 C 363.500 57.387,363.613 57.500,363.750 57.500 C 363.887 57.500,364.000 57.612,364.000 57.750 C 364.000 57.887,364.113 58.000,364.250 58.000 C 364.387 58.000,364.500 58.112,364.500 58.250 C 364.500 58.387,364.613 58.500,364.750 58.500 C 364.887 58.500,365.000 58.612,365.000 58.750 C 365.000 58.887,365.113 59.000,365.250 59.000 C 365.387 59.000,365.500 59.112,365.500 59.250 C 365.500 59.387,365.613 59.500,365.750 59.500 C 365.887 59.500,366.000 59.612,366.000 59.750 C 366.000 59.887,366.113 60.000,366.250 60.000 C 366.387 60.000,366.500 60.084,366.500 60.186 C 366.500 60.288,366.800 60.655,367.167 61.000 C 367.533 61.345,367.833 61.712,367.833 61.814 C 367.833 61.916,367.908 62.000,368.000 62.000 C 368.285 62.000,368.833 62.650,368.833 62.989 C 368.833 63.166,368.984 63.359,369.169 63.417 C 369.354 63.476,369.465 63.588,369.417 63.667 C 369.368 63.745,369.481 63.858,369.667 63.917 C 369.853 63.976,369.962 64.094,369.909 64.179 C 369.857 64.264,369.931 64.333,370.073 64.333 C 370.216 64.333,370.333 64.446,370.333 64.583 C 370.333 64.721,370.446 64.833,370.583 64.833 C 370.721 64.833,370.833 64.946,370.833 65.083 C 370.833 65.221,370.946 65.333,371.083 65.333 C 371.221 65.333,371.333 65.446,371.333 65.583 C 371.333 65.721,371.446 65.833,371.583 65.833 C 371.721 65.833,371.833 65.946,371.833 66.083 C 371.833 66.221,371.946 66.333,372.083 66.333 C 372.221 66.333,372.333 66.446,372.333 66.583 C 372.333 66.721,372.446 66.833,372.583 66.833 C 372.750 66.833,372.833 67.000,372.833 67.333 C 372.833 67.667,372.917 67.833,373.083 67.833 C 373.221 67.833,373.333 67.946,373.333 68.083 C 373.333 68.221,373.446 68.333,373.583 68.333 C 373.721 68.333,373.833 68.446,373.833 68.583 C 373.833 68.721,373.946 68.833,374.083 68.833 C 374.221 68.833,374.333 68.946,374.333 69.083 C 374.333 69.221,374.446 69.333,374.583 69.333 C 374.721 69.333,374.833 69.446,374.833 69.583 C 374.833 69.721,374.907 69.833,374.997 69.833 C 375.087 69.833,375.211 70.034,375.272 70.279 C 375.334 70.524,375.785 71.126,376.275 71.616 C 376.766 72.106,377.167 72.620,377.167 72.759 C 377.167 72.897,377.279 73.054,377.417 73.106 C 377.554 73.159,377.667 73.307,377.667 73.434 C 377.667 73.562,377.779 73.667,377.917 73.667 C 378.054 73.667,378.167 73.779,378.167 73.917 C 378.167 74.054,378.279 74.167,378.417 74.167 C 378.554 74.167,378.667 74.279,378.667 74.417 C 378.667 74.554,378.779 74.667,378.917 74.667 C 379.073 74.667,379.167 74.825,379.167 75.089 C 379.167 75.321,379.279 75.554,379.417 75.606 C 379.554 75.659,379.667 75.807,379.667 75.934 C 379.667 76.062,379.779 76.167,379.917 76.167 C 380.054 76.167,380.167 76.279,380.167 76.417 C 380.167 76.554,380.279 76.667,380.417 76.667 C 380.584 76.667,380.667 76.834,380.667 77.177 C 380.667 77.495,380.733 77.645,380.845 77.576 C 380.943 77.516,381.064 77.624,381.114 77.817 C 381.164 78.009,381.309 78.167,381.436 78.167 C 381.563 78.167,381.667 78.279,381.667 78.417 C 381.667 78.554,381.779 78.667,381.917 78.667 C 382.084 78.667,382.167 78.834,382.167 79.177 C 382.167 79.495,382.233 79.645,382.345 79.576 C 382.443 79.516,382.564 79.624,382.614 79.817 C 382.664 80.009,382.809 80.167,382.936 80.167 C 383.071 80.167,383.167 80.340,383.167 80.583 C 383.167 80.958,383.233 81.000,383.834 81.000 L 384.501 81.000 384.459 41.125 L 384.417 1.250 319.042 1.208 L 253.667 1.166 253.667 1.916 M362.677 8.625 C 362.708 9.991,363.287 14.450,363.594 15.697 C 364.572 19.661,366.727 20.998,373.083 21.581 C 375.899 21.839,376.852 22.455,374.500 22.495 C 372.430 22.531,368.465 23.355,366.984 24.057 C 364.296 25.333,363.574 27.592,363.164 36.000 C 362.641 46.747,362.644 46.705,362.433 46.486 C 362.349 46.398,361.879 39.483,361.755 36.500 C 361.569 32.051,360.945 27.211,360.499 26.765 C 360.408 26.674,360.333 26.508,360.333 26.395 C 360.333 25.750,358.439 24.000,357.741 24.000 C 357.619 24.000,357.480 23.936,357.432 23.859 C 357.217 23.511,353.150 22.688,351.030 22.564 C 348.070 22.390,348.395 21.985,351.830 21.569 C 360.427 20.528,360.949 19.899,362.283 8.958 C 362.387 8.105,362.660 7.874,362.677 8.625 " stroke="none" fill="#fc6c04" fill-rule="evenodd"></path><path id="path1" d="M362.283 8.958 C 360.949 19.899,360.427 20.528,351.830 21.569 C 348.395 21.985,348.070 22.390,351.030 22.564 C 353.150 22.688,357.217 23.511,357.432 23.859 C 357.480 23.936,357.619 24.000,357.741 24.000 C 358.439 24.000,360.333 25.750,360.333 26.395 C 360.333 26.508,360.408 26.674,360.499 26.765 C 360.945 27.211,361.569 32.051,361.755 36.500 C 361.879 39.483,362.349 46.398,362.433 46.486 C 362.644 46.705,362.641 46.747,363.164 36.000 C 363.574 27.592,364.296 25.333,366.984 24.057 C 368.465 23.355,372.430 22.531,374.500 22.495 C 376.852 22.455,375.899 21.839,373.083 21.581 C 366.727 20.998,364.572 19.661,363.594 15.697 C 363.287 14.450,362.708 9.991,362.677 8.625 C 362.660 7.874,362.387 8.105,362.283 8.958 " stroke="none" fill="#fcf7f2" fill-rule="evenodd"></path><path id="path2" d="M393.333 3.417 C 393.333 3.597,393.148 3.667,392.667 3.667 C 392.185 3.667,392.000 3.736,392.000 3.917 C 392.000 4.054,391.887 4.167,391.750 4.167 C 391.613 4.167,391.500 4.279,391.500 4.417 C 391.500 4.554,391.387 4.667,391.250 4.667 C 391.083 4.667,391.000 4.833,391.000 5.167 C 391.000 5.500,390.917 5.667,390.750 5.667 C 390.542 5.667,390.500 5.991,390.500 7.583 C 390.500 9.176,390.542 9.500,390.750 9.500 C 390.917 9.500,391.000 9.667,391.000 10.000 C 391.000 10.333,391.083 10.500,391.250 10.500 C 391.387 10.500,391.500 10.612,391.500 10.750 C 391.500 10.887,391.613 11.000,391.750 11.000 C 391.887 11.000,392.000 11.112,392.000 11.250 C 392.000 11.403,392.155 11.500,392.399 11.500 C 392.618 11.500,392.841 11.612,392.894 11.750 C 392.970 11.949,393.329 12.000,394.661 12.000 C 396.036 12.000,396.333 11.956,396.333 11.750 C 396.333 11.583,396.500 11.500,396.833 11.500 C 397.167 11.500,397.333 11.417,397.333 11.250 C 397.333 11.112,397.446 11.000,397.583 11.000 C 397.721 11.000,397.833 10.887,397.833 10.750 C 397.833 10.612,397.946 10.500,398.083 10.500 C 398.221 10.500,398.333 10.420,398.333 10.321 C 398.333 10.223,398.446 10.030,398.583 9.893 C 398.778 9.699,398.833 9.200,398.833 7.655 C 398.833 5.999,398.792 5.667,398.583 5.667 C 398.417 5.667,398.333 5.500,398.333 5.167 C 398.333 4.833,398.250 4.667,398.083 4.667 C 397.946 4.667,397.833 4.554,397.833 4.417 C 397.833 4.279,397.729 4.167,397.601 4.167 C 397.473 4.167,397.326 4.054,397.273 3.917 C 397.210 3.752,396.949 3.667,396.505 3.667 C 396.019 3.667,395.833 3.598,395.833 3.417 C 395.833 3.217,395.583 3.167,394.583 3.167 C 393.583 3.167,393.333 3.217,393.333 3.417 M395.333 4.917 C 395.333 5.102,395.139 5.167,394.583 5.167 C 394.028 5.167,393.833 5.102,393.833 4.917 C 393.833 4.731,394.028 4.667,394.583 4.667 C 395.139 4.667,395.333 4.731,395.333 4.917 M392.333 7.583 C 392.333 8.435,392.280 8.667,392.083 8.667 C 391.889 8.667,391.833 8.446,391.833 7.681 C 391.833 6.798,391.896 6.638,392.292 6.513 C 392.315 6.506,392.333 6.987,392.333 7.583 M397.333 7.851 C 397.333 8.761,397.281 9.000,397.083 9.000 C 396.928 9.000,396.833 8.843,396.833 8.583 C 396.833 8.324,396.739 8.167,396.583 8.167 C 396.446 8.167,396.333 8.062,396.333 7.934 C 396.333 7.807,396.446 7.659,396.583 7.606 C 396.729 7.551,396.833 7.301,396.833 7.010 C 396.833 6.634,396.895 6.534,397.083 6.606 C 397.272 6.679,397.333 6.984,397.333 7.851 M394.833 9.500 C 394.833 9.886,394.908 10.000,395.161 10.000 C 395.385 10.000,395.459 10.080,395.394 10.250 C 395.328 10.420,395.063 10.500,394.566 10.500 C 394.026 10.500,393.833 10.434,393.833 10.250 C 393.833 10.112,393.946 10.000,394.083 10.000 C 394.250 10.000,394.333 9.833,394.333 9.500 C 394.333 9.167,394.417 9.000,394.583 9.000 C 394.750 9.000,394.833 9.167,394.833 9.500 M112.500 57.583 L 112.500 79.672 116.875 79.628 L 121.250 79.583 121.250 57.583 L 121.250 35.583 116.875 35.539 L 112.500 35.494 112.500 57.583 M147.833 43.833 C 147.833 51.130,147.802 52.167,147.583 52.167 C 147.446 52.167,147.333 52.054,147.333 51.917 C 147.333 51.750,147.167 51.667,146.833 51.667 C 146.500 51.667,146.333 51.583,146.333 51.417 C 146.333 51.252,146.169 51.167,145.851 51.167 C 145.576 51.167,145.328 51.059,145.273 50.917 C 145.204 50.736,144.921 50.667,144.255 50.667 C 143.547 50.667,143.333 50.609,143.333 50.417 C 143.333 50.202,142.796 50.167,139.495 50.167 C 136.236 50.167,135.642 50.204,135.560 50.417 C 135.498 50.580,135.238 50.667,134.810 50.667 C 134.383 50.667,134.123 50.753,134.060 50.917 C 133.998 51.080,133.738 51.167,133.316 51.167 C 132.850 51.167,132.667 51.237,132.667 51.417 C 132.667 51.583,132.500 51.667,132.167 51.667 C 131.833 51.667,131.667 51.750,131.667 51.917 C 131.667 52.083,131.500 52.167,131.167 52.167 C 130.833 52.167,130.667 52.250,130.667 52.417 C 130.667 52.554,130.554 52.667,130.417 52.667 C 130.279 52.667,130.167 52.779,130.167 52.917 C 130.167 53.066,130.013 53.167,129.784 53.167 C 129.563 53.167,129.228 53.375,128.992 53.660 C 128.767 53.931,128.490 54.156,128.375 54.160 C 128.260 54.163,128.163 54.260,128.160 54.375 C 128.156 54.490,127.931 54.767,127.660 54.992 C 127.375 55.228,127.167 55.563,127.167 55.784 C 127.167 56.013,127.066 56.167,126.917 56.167 C 126.779 56.167,126.667 56.271,126.667 56.399 C 126.667 56.527,126.554 56.674,126.417 56.727 C 126.279 56.780,126.167 56.966,126.167 57.141 C 126.167 57.316,126.054 57.553,125.917 57.667 C 125.779 57.781,125.667 57.969,125.667 58.085 C 125.667 58.200,125.555 58.510,125.418 58.773 C 125.281 59.035,125.168 59.531,125.168 59.875 C 125.167 60.219,125.092 60.500,125.000 60.500 C 124.904 60.500,124.833 61.028,124.833 61.750 C 124.833 62.750,124.783 63.000,124.583 63.000 C 124.374 63.000,124.333 63.352,124.333 65.167 C 124.333 66.981,124.374 67.333,124.583 67.333 C 124.783 67.333,124.833 67.583,124.833 68.583 C 124.833 69.306,124.904 69.833,125.000 69.833 C 125.092 69.833,125.167 70.090,125.167 70.405 C 125.167 70.719,125.279 71.089,125.417 71.226 C 125.554 71.364,125.667 71.634,125.667 71.827 C 125.667 72.019,125.779 72.220,125.917 72.273 C 126.054 72.326,126.167 72.548,126.167 72.768 C 126.167 73.011,126.264 73.167,126.417 73.167 C 126.573 73.167,126.667 73.325,126.667 73.589 C 126.667 73.821,126.779 74.054,126.917 74.106 C 127.054 74.159,127.167 74.307,127.167 74.434 C 127.167 74.562,127.279 74.667,127.417 74.667 C 127.554 74.667,127.667 74.779,127.667 74.917 C 127.667 75.054,127.779 75.167,127.917 75.167 C 128.054 75.167,128.167 75.279,128.167 75.417 C 128.167 75.554,128.279 75.667,128.417 75.667 C 128.554 75.667,128.667 75.779,128.667 75.917 C 128.667 76.054,128.779 76.167,128.917 76.167 C 129.054 76.167,129.167 76.279,129.167 76.417 C 129.167 76.554,129.279 76.667,129.417 76.667 C 129.554 76.667,129.667 76.779,129.667 76.917 C 129.667 77.083,129.833 77.167,130.167 77.167 C 130.500 77.167,130.667 77.250,130.667 77.417 C 130.667 77.554,130.779 77.667,130.917 77.667 C 131.054 77.667,131.167 77.779,131.167 77.917 C 131.167 78.083,131.333 78.167,131.667 78.167 C 132.000 78.167,132.167 78.250,132.167 78.417 C 132.167 78.583,132.333 78.667,132.667 78.667 C 133.000 78.667,133.167 78.750,133.167 78.917 C 133.167 79.096,133.350 79.167,133.816 79.167 C 134.238 79.167,134.498 79.254,134.560 79.417 C 134.629 79.596,134.910 79.667,135.560 79.667 C 136.210 79.667,136.491 79.737,136.560 79.917 C 136.640 80.125,137.125 80.167,139.495 80.167 C 141.907 80.167,142.333 80.129,142.333 79.917 C 142.333 79.722,142.556 79.667,143.333 79.667 C 144.111 79.667,144.333 79.611,144.333 79.417 C 144.333 79.250,144.500 79.167,144.833 79.167 C 145.167 79.167,145.333 79.083,145.333 78.917 C 145.333 78.750,145.500 78.667,145.833 78.667 C 146.167 78.667,146.333 78.583,146.333 78.417 C 146.333 78.250,146.500 78.167,146.833 78.167 C 147.148 78.167,147.333 78.081,147.333 77.936 C 147.333 77.806,147.553 77.672,147.833 77.631 L 148.333 77.558 148.333 78.612 L 148.333 79.667 152.250 79.667 L 156.167 79.667 156.167 57.583 L 156.167 35.500 152.000 35.500 L 147.833 35.500 147.833 43.833 M213.500 38.250 C 213.500 38.387,213.387 38.500,213.250 38.500 C 213.112 38.500,213.000 38.612,213.000 38.750 C 213.000 38.917,212.833 39.000,212.500 39.000 C 212.056 39.000,212.000 39.056,212.000 39.500 C 212.000 39.833,211.917 40.000,211.750 40.000 C 211.583 40.000,211.500 40.167,211.500 40.500 C 211.500 40.833,211.417 41.000,211.250 41.000 C 211.047 41.000,211.000 41.269,211.000 42.417 C 211.000 43.565,211.047 43.833,211.250 43.833 C 211.417 43.833,211.500 44.000,211.500 44.333 C 211.500 44.667,211.583 44.833,211.750 44.833 C 211.917 44.833,212.000 45.000,212.000 45.333 C 212.000 45.667,212.083 45.833,212.250 45.833 C 212.387 45.833,212.500 45.946,212.500 46.083 C 212.500 46.250,212.667 46.333,213.000 46.333 C 213.333 46.333,213.500 46.417,213.500 46.583 C 213.500 46.794,213.871 46.833,215.839 46.833 C 217.764 46.833,218.194 46.789,218.273 46.583 C 218.326 46.446,218.473 46.333,218.601 46.333 C 218.729 46.333,218.833 46.221,218.833 46.083 C 218.833 45.946,218.946 45.833,219.083 45.833 C 219.221 45.833,219.333 45.721,219.333 45.583 C 219.333 45.446,219.446 45.333,219.583 45.333 C 219.750 45.333,219.833 45.167,219.833 44.833 C 219.833 44.500,219.917 44.333,220.083 44.333 C 220.291 44.333,220.333 44.009,220.333 42.417 C 220.333 40.824,220.291 40.500,220.083 40.500 C 219.917 40.500,219.833 40.333,219.833 40.000 C 219.833 39.667,219.750 39.500,219.583 39.500 C 219.446 39.500,219.333 39.387,219.333 39.250 C 219.333 39.112,219.221 39.000,219.083 39.000 C 218.946 39.000,218.833 38.887,218.833 38.750 C 218.833 38.583,218.667 38.500,218.333 38.500 C 218.000 38.500,217.833 38.417,217.833 38.250 C 217.833 38.041,217.481 38.000,215.667 38.000 C 213.852 38.000,213.500 38.041,213.500 38.250 M251.667 38.250 C 251.667 38.406,251.509 38.500,251.250 38.500 C 250.991 38.500,250.833 38.594,250.833 38.750 C 250.833 38.887,250.758 39.000,250.667 39.000 C 250.348 39.000,249.833 39.669,249.833 40.083 C 249.833 40.343,249.739 40.500,249.583 40.500 C 249.376 40.500,249.333 40.824,249.333 42.417 C 249.333 44.009,249.376 44.333,249.583 44.333 C 249.741 44.333,249.833 44.493,249.833 44.767 C 249.833 45.067,250.090 45.451,250.668 46.017 L 251.502 46.833 253.834 46.833 C 255.796 46.833,256.167 46.794,256.167 46.583 C 256.167 46.439,256.318 46.333,256.525 46.333 C 257.082 46.333,257.974 45.303,258.101 44.512 C 258.160 44.139,258.275 43.833,258.355 43.833 C 258.435 43.833,258.500 43.196,258.500 42.417 C 258.500 41.583,258.431 41.000,258.333 41.000 C 258.242 41.000,258.167 40.810,258.167 40.578 C 258.167 40.346,258.061 40.116,257.932 40.066 C 257.802 40.016,257.651 39.792,257.594 39.567 C 257.459 39.029,256.917 38.500,256.500 38.500 C 256.315 38.500,256.167 38.389,256.167 38.250 C 256.167 38.040,255.806 38.000,253.917 38.000 C 252.028 38.000,251.667 38.040,251.667 38.250 M2.375 40.944 C 2.049 41.075,2.088 43.333,2.417 43.333 C 2.598 43.333,2.667 43.519,2.667 44.005 C 2.667 44.449,2.752 44.710,2.917 44.773 C 3.059 44.828,3.167 45.076,3.167 45.351 C 3.167 45.669,3.252 45.833,3.417 45.833 C 3.598 45.833,3.667 46.019,3.667 46.505 C 3.667 46.949,3.752 47.210,3.917 47.273 C 4.080 47.336,4.167 47.595,4.167 48.018 C 4.167 48.483,4.237 48.667,4.417 48.667 C 4.583 48.667,4.667 48.833,4.667 49.167 C 4.667 49.500,4.750 49.667,4.917 49.667 C 5.102 49.667,5.167 49.861,5.167 50.417 C 5.167 50.972,5.231 51.167,5.417 51.167 C 5.602 51.167,5.667 51.361,5.667 51.917 C 5.667 52.472,5.731 52.667,5.917 52.667 C 6.083 52.667,6.167 52.833,6.167 53.167 C 6.167 53.500,6.250 53.667,6.417 53.667 C 6.602 53.667,6.667 53.861,6.667 54.417 C 6.667 54.972,6.731 55.167,6.917 55.167 C 7.097 55.167,7.167 55.352,7.167 55.833 C 7.167 56.315,7.236 56.500,7.417 56.500 C 7.602 56.500,7.667 56.694,7.667 57.250 C 7.667 57.806,7.731 58.000,7.917 58.000 C 8.083 58.000,8.167 58.167,8.167 58.500 C 8.167 58.775,8.232 59.000,8.311 59.000 C 8.391 59.000,8.498 59.311,8.549 59.691 C 8.600 60.071,8.710 60.427,8.795 60.482 C 8.879 60.538,8.996 60.883,9.054 61.249 C 9.111 61.615,9.236 61.940,9.329 61.971 C 9.423 62.002,9.500 62.211,9.500 62.436 C 9.500 62.660,9.613 62.887,9.750 62.940 C 9.911 63.002,10.000 63.260,10.000 63.667 C 10.000 64.074,10.089 64.332,10.250 64.394 C 10.407 64.454,10.500 64.709,10.500 65.083 C 10.500 65.457,10.593 65.713,10.750 65.773 C 10.893 65.828,11.000 66.076,11.000 66.351 C 11.000 66.669,11.085 66.833,11.250 66.833 C 11.435 66.833,11.500 67.028,11.500 67.583 C 11.500 68.139,11.565 68.333,11.750 68.333 C 11.931 68.333,12.000 68.519,12.000 69.005 C 12.000 69.449,12.085 69.710,12.250 69.773 C 12.393 69.828,12.500 70.076,12.500 70.351 C 12.500 70.669,12.585 70.833,12.750 70.833 C 12.931 70.833,13.000 71.019,13.000 71.505 C 13.000 71.949,13.085 72.210,13.250 72.273 C 13.413 72.336,13.500 72.595,13.500 73.018 C 13.500 73.483,13.571 73.667,13.750 73.667 C 13.917 73.667,14.000 73.833,14.000 74.167 C 14.000 74.500,14.083 74.667,14.250 74.667 C 14.435 74.667,14.500 74.861,14.500 75.417 C 14.500 75.972,14.565 76.167,14.750 76.167 C 14.935 76.167,15.000 76.361,15.000 76.917 C 15.000 77.472,15.065 77.667,15.250 77.667 C 15.417 77.667,15.500 77.833,15.500 78.167 C 15.500 78.500,15.583 78.667,15.750 78.667 C 15.917 78.667,16.000 78.834,16.000 79.171 L 16.000 79.675 18.625 79.629 L 21.250 79.583 21.301 78.875 C 21.336 78.393,21.429 78.167,21.593 78.167 C 21.747 78.167,21.833 77.993,21.833 77.684 C 21.833 77.410,21.941 77.161,22.083 77.106 C 22.248 77.043,22.333 76.782,22.333 76.339 C 22.333 75.852,22.402 75.667,22.583 75.667 C 22.748 75.667,22.833 75.502,22.833 75.184 C 22.833 74.910,22.941 74.661,23.083 74.606 C 23.248 74.543,23.333 74.282,23.333 73.839 C 23.333 73.352,23.402 73.167,23.583 73.167 C 23.763 73.167,23.833 72.983,23.833 72.518 C 23.833 72.095,23.920 71.836,24.083 71.773 C 24.221 71.720,24.333 71.494,24.333 71.269 C 24.333 71.045,24.413 70.834,24.511 70.802 C 24.608 70.769,24.731 70.426,24.783 70.038 C 24.835 69.650,24.942 69.333,25.022 69.333 C 25.102 69.333,25.167 69.108,25.167 68.833 C 25.167 68.500,25.250 68.333,25.417 68.333 C 25.602 68.333,25.667 68.139,25.667 67.583 C 25.667 67.028,25.731 66.833,25.917 66.833 C 26.083 66.833,26.167 66.667,26.167 66.333 C 26.167 66.000,26.250 65.833,26.417 65.833 C 26.596 65.833,26.667 65.650,26.667 65.184 C 26.667 64.762,26.754 64.502,26.917 64.440 C 27.054 64.387,27.167 64.162,27.167 63.940 C 27.167 63.717,27.279 63.492,27.417 63.440 C 27.582 63.376,27.667 63.115,27.667 62.672 C 27.667 62.186,27.736 62.000,27.917 62.000 C 28.102 62.000,28.167 61.806,28.167 61.250 C 28.167 60.694,28.231 60.500,28.417 60.500 C 28.583 60.500,28.667 60.333,28.667 60.000 C 28.667 59.667,28.750 59.500,28.917 59.500 C 29.102 59.500,29.167 59.306,29.167 58.750 C 29.167 58.028,29.185 58.000,29.667 58.000 C 30.148 58.000,30.167 58.028,30.167 58.750 C 30.167 59.306,30.231 59.500,30.417 59.500 C 30.602 59.500,30.667 59.694,30.667 60.250 C 30.667 60.806,30.731 61.000,30.917 61.000 C 31.083 61.000,31.167 61.167,31.167 61.500 C 31.167 61.833,31.250 62.000,31.417 62.000 C 31.598 62.000,31.667 62.186,31.667 62.672 C 31.667 63.115,31.752 63.376,31.917 63.440 C 32.059 63.494,32.167 63.743,32.167 64.018 C 32.167 64.335,32.252 64.500,32.417 64.500 C 32.597 64.500,32.667 64.685,32.667 65.167 C 32.667 65.648,32.736 65.833,32.917 65.833 C 33.083 65.833,33.167 66.000,33.167 66.333 C 33.167 66.608,33.232 66.833,33.311 66.833 C 33.391 66.833,33.498 67.144,33.549 67.524 C 33.600 67.904,33.710 68.260,33.795 68.316 C 33.879 68.371,33.996 68.716,34.054 69.082 C 34.111 69.448,34.236 69.773,34.329 69.804 C 34.423 69.836,34.500 70.045,34.500 70.269 C 34.500 70.494,34.613 70.720,34.750 70.773 C 34.913 70.836,35.000 71.095,35.000 71.523 C 35.000 71.951,35.087 72.210,35.250 72.273 C 35.388 72.326,35.500 72.548,35.500 72.768 C 35.500 73.011,35.597 73.167,35.750 73.167 C 35.935 73.167,36.000 73.361,36.000 73.917 C 36.000 74.472,36.065 74.667,36.250 74.667 C 36.431 74.667,36.500 74.852,36.500 75.339 C 36.500 75.782,36.585 76.043,36.750 76.106 C 36.893 76.161,37.000 76.410,37.000 76.684 C 37.000 77.002,37.085 77.167,37.250 77.167 C 37.430 77.167,37.500 77.351,37.500 77.825 C 37.500 78.216,37.595 78.538,37.734 78.617 C 37.863 78.690,37.994 78.938,38.026 79.167 L 38.083 79.583 40.708 79.629 L 43.333 79.675 43.333 79.171 C 43.333 78.834,43.416 78.667,43.583 78.667 C 43.769 78.667,43.833 78.472,43.833 77.917 C 43.833 77.361,43.898 77.167,44.083 77.167 C 44.250 77.167,44.333 77.000,44.333 76.667 C 44.333 76.333,44.417 76.167,44.583 76.167 C 44.769 76.167,44.833 75.972,44.833 75.417 C 44.833 74.861,44.898 74.667,45.083 74.667 C 45.269 74.667,45.333 74.472,45.333 73.917 C 45.333 73.361,45.398 73.167,45.583 73.167 C 45.740 73.167,45.833 73.009,45.833 72.745 C 45.833 72.513,45.946 72.280,46.083 72.227 C 46.245 72.165,46.333 71.907,46.333 71.500 C 46.333 71.093,46.422 70.835,46.583 70.773 C 46.748 70.710,46.833 70.449,46.833 70.005 C 46.833 69.519,46.902 69.333,47.083 69.333 C 47.248 69.333,47.333 69.169,47.333 68.851 C 47.333 68.576,47.441 68.328,47.583 68.273 C 47.748 68.210,47.833 67.949,47.833 67.505 C 47.833 67.019,47.902 66.833,48.083 66.833 C 48.269 66.833,48.333 66.639,48.333 66.083 C 48.333 65.528,48.398 65.333,48.583 65.333 C 48.741 65.333,48.833 65.175,48.833 64.905 C 48.833 64.669,48.946 64.364,49.083 64.226 C 49.221 64.089,49.333 63.757,49.333 63.488 C 49.333 63.220,49.404 63.000,49.490 63.000 C 49.576 63.000,49.697 62.663,49.759 62.250 C 49.821 61.837,49.938 61.500,50.019 61.500 C 50.100 61.500,50.167 61.163,50.167 60.750 C 50.167 60.194,50.231 60.000,50.417 60.000 C 50.583 60.000,50.667 59.833,50.667 59.500 C 50.667 59.167,50.750 59.000,50.917 59.000 C 51.102 59.000,51.167 58.806,51.167 58.250 C 51.167 57.694,51.231 57.500,51.417 57.500 C 51.597 57.500,51.667 57.315,51.667 56.833 C 51.667 56.352,51.736 56.167,51.917 56.167 C 52.083 56.167,52.167 56.000,52.167 55.667 C 52.167 55.333,52.250 55.167,52.417 55.167 C 52.602 55.167,52.667 54.972,52.667 54.417 C 52.667 53.861,52.731 53.667,52.917 53.667 C 53.102 53.667,53.167 53.472,53.167 52.917 C 53.167 52.361,53.231 52.167,53.417 52.167 C 53.583 52.167,53.667 52.000,53.667 51.667 C 53.667 51.333,53.750 51.167,53.917 51.167 C 54.102 51.167,54.167 50.972,54.167 50.417 C 54.167 49.861,54.231 49.667,54.417 49.667 C 54.596 49.667,54.667 49.483,54.667 49.018 C 54.667 48.595,54.754 48.336,54.917 48.273 C 55.054 48.220,55.167 47.985,55.167 47.750 C 55.167 47.515,55.279 47.280,55.417 47.227 C 55.580 47.164,55.667 46.905,55.667 46.482 C 55.667 46.017,55.737 45.833,55.917 45.833 C 56.102 45.833,56.167 45.639,56.167 45.083 C 56.167 44.528,56.231 44.333,56.417 44.333 C 56.574 44.333,56.667 44.175,56.667 43.905 C 56.667 43.669,56.779 43.364,56.917 43.226 C 57.275 42.868,57.264 41.073,56.903 40.934 C 56.758 40.879,55.720 40.833,54.596 40.833 C 52.187 40.833,51.667 41.075,51.667 42.196 C 51.667 42.577,51.575 42.833,51.417 42.894 C 51.279 42.946,51.167 43.147,51.167 43.340 C 51.167 43.533,51.054 43.803,50.917 43.940 C 50.779 44.078,50.667 44.441,50.667 44.748 C 50.667 45.055,50.587 45.332,50.489 45.365 C 50.392 45.397,50.269 45.741,50.217 46.129 C 50.165 46.516,50.058 46.833,49.978 46.833 C 49.898 46.833,49.833 47.058,49.833 47.333 C 49.833 47.667,49.750 47.833,49.583 47.833 C 49.404 47.833,49.333 48.017,49.333 48.482 C 49.333 48.905,49.246 49.164,49.083 49.227 C 48.918 49.290,48.833 49.551,48.833 49.995 C 48.833 50.481,48.764 50.667,48.583 50.667 C 48.419 50.667,48.333 50.831,48.333 51.149 C 48.333 51.424,48.226 51.672,48.083 51.727 C 47.918 51.790,47.833 52.051,47.833 52.495 C 47.833 52.981,47.764 53.167,47.583 53.167 C 47.398 53.167,47.333 53.361,47.333 53.917 C 47.333 54.472,47.269 54.667,47.083 54.667 C 46.917 54.667,46.833 54.833,46.833 55.167 C 46.833 55.500,46.750 55.667,46.583 55.667 C 46.398 55.667,46.333 55.861,46.333 56.417 C 46.333 56.972,46.269 57.167,46.083 57.167 C 45.903 57.167,45.833 57.352,45.833 57.833 C 45.833 58.315,45.764 58.500,45.583 58.500 C 45.419 58.500,45.333 58.665,45.333 58.982 C 45.333 59.257,45.226 59.506,45.083 59.560 C 44.918 59.624,44.833 59.885,44.833 60.328 C 44.833 60.814,44.764 61.000,44.583 61.000 C 44.398 61.000,44.333 61.194,44.333 61.750 C 44.333 62.306,44.269 62.500,44.083 62.500 C 43.919 62.500,43.833 62.665,43.833 62.982 C 43.833 63.257,43.726 63.506,43.583 63.560 C 43.418 63.624,43.333 63.885,43.333 64.328 C 43.333 64.814,43.264 65.000,43.083 65.000 C 42.946 65.000,42.833 65.112,42.833 65.250 C 42.833 65.387,42.721 65.500,42.583 65.500 C 42.417 65.500,42.333 65.333,42.333 65.000 C 42.333 64.667,42.250 64.500,42.083 64.500 C 41.898 64.500,41.833 64.306,41.833 63.750 C 41.833 63.337,41.758 63.000,41.667 63.000 C 41.575 63.000,41.500 62.810,41.500 62.578 C 41.500 62.346,41.387 62.113,41.250 62.060 C 41.087 61.998,41.000 61.738,41.000 61.310 C 41.000 60.883,40.913 60.623,40.750 60.560 C 40.597 60.502,40.500 60.249,40.500 59.911 C 40.500 59.606,40.388 59.245,40.250 59.107 C 40.113 58.970,40.000 58.699,40.000 58.507 C 40.000 58.314,39.887 58.113,39.750 58.060 C 39.587 57.998,39.500 57.738,39.500 57.316 C 39.500 56.850,39.429 56.667,39.250 56.667 C 39.083 56.667,39.000 56.500,39.000 56.167 C 39.000 55.833,38.917 55.667,38.750 55.667 C 38.565 55.667,38.500 55.472,38.500 54.917 C 38.500 54.361,38.435 54.167,38.250 54.167 C 38.069 54.167,38.000 53.981,38.000 53.495 C 38.000 53.051,37.915 52.790,37.750 52.727 C 37.607 52.672,37.500 52.424,37.500 52.149 C 37.500 51.831,37.415 51.667,37.250 51.667 C 37.069 51.667,37.000 51.481,37.000 50.995 C 37.000 50.551,36.915 50.290,36.750 50.227 C 36.612 50.174,36.500 49.949,36.500 49.727 C 36.500 49.505,36.387 49.280,36.250 49.227 C 36.087 49.164,36.000 48.905,36.000 48.482 C 36.000 48.017,35.929 47.833,35.750 47.833 C 35.565 47.833,35.500 47.639,35.500 47.083 C 35.500 46.528,35.435 46.333,35.250 46.333 C 35.083 46.333,35.000 46.167,35.000 45.833 C 35.000 45.500,34.917 45.333,34.750 45.333 C 34.583 45.333,34.500 45.167,34.500 44.833 L 34.500 44.333 31.833 44.333 L 29.167 44.333 29.167 44.833 C 29.167 45.167,29.083 45.333,28.917 45.333 C 28.750 45.333,28.667 45.500,28.667 45.833 C 28.667 46.167,28.583 46.333,28.417 46.333 C 28.231 46.333,28.167 46.528,28.167 47.083 C 28.167 47.639,28.102 47.833,27.917 47.833 C 27.752 47.833,27.667 47.998,27.667 48.316 C 27.667 48.590,27.559 48.839,27.417 48.894 C 27.262 48.953,27.167 49.207,27.167 49.560 C 27.167 49.914,27.072 50.168,26.917 50.227 C 26.779 50.280,26.667 50.481,26.667 50.673 C 26.667 50.866,26.554 51.136,26.417 51.274 C 26.279 51.411,26.167 51.773,26.167 52.077 C 26.167 52.416,26.069 52.668,25.917 52.727 C 25.753 52.790,25.667 53.049,25.667 53.477 C 25.667 53.905,25.580 54.164,25.417 54.227 C 25.279 54.280,25.167 54.513,25.167 54.745 C 25.167 54.977,25.092 55.167,25.000 55.167 C 24.908 55.167,24.833 55.504,24.833 55.917 C 24.833 56.472,24.769 56.667,24.583 56.667 C 24.417 56.667,24.333 56.833,24.333 57.167 C 24.333 57.500,24.250 57.667,24.083 57.667 C 23.903 57.667,23.833 57.852,23.833 58.333 C 23.833 58.815,23.764 59.000,23.583 59.000 C 23.398 59.000,23.333 59.194,23.333 59.750 C 23.333 60.306,23.269 60.500,23.083 60.500 C 22.917 60.500,22.833 60.667,22.833 61.000 C 22.833 61.333,22.750 61.500,22.583 61.500 C 22.398 61.500,22.333 61.694,22.333 62.250 C 22.333 62.806,22.269 63.000,22.083 63.000 C 21.917 63.000,21.833 63.167,21.833 63.500 C 21.833 63.824,21.749 64.000,21.593 64.000 C 21.430 64.000,21.336 64.224,21.301 64.695 C 21.254 65.341,20.833 65.852,20.833 65.264 C 20.833 65.119,20.721 65.000,20.583 65.000 C 20.417 65.000,20.333 64.833,20.333 64.500 C 20.333 64.167,20.250 64.000,20.083 64.000 C 19.898 64.000,19.833 63.806,19.833 63.250 C 19.833 62.694,19.769 62.500,19.583 62.500 C 19.398 62.500,19.333 62.306,19.333 61.750 C 19.333 61.194,19.269 61.000,19.083 61.000 C 18.898 61.000,18.833 60.806,18.833 60.250 C 18.833 59.694,18.769 59.500,18.583 59.500 C 18.404 59.500,18.333 59.317,18.333 58.851 C 18.333 58.428,18.246 58.169,18.083 58.106 C 17.946 58.054,17.833 57.829,17.833 57.606 C 17.833 57.384,17.721 57.159,17.583 57.106 C 17.418 57.043,17.333 56.782,17.333 56.339 C 17.333 55.852,17.264 55.667,17.083 55.667 C 16.898 55.667,16.833 55.472,16.833 54.917 C 16.833 54.504,16.767 54.167,16.686 54.167 C 16.604 54.167,16.487 53.829,16.425 53.417 C 16.364 53.004,16.252 52.667,16.178 52.667 C 16.104 52.667,16.001 52.350,15.949 51.962 C 15.897 51.574,15.775 51.231,15.677 51.198 C 15.580 51.166,15.500 50.955,15.500 50.731 C 15.500 50.506,15.387 50.280,15.250 50.227 C 15.087 50.164,15.000 49.905,15.000 49.482 C 15.000 49.017,14.929 48.833,14.750 48.833 C 14.565 48.833,14.500 48.639,14.500 48.083 C 14.500 47.528,14.435 47.333,14.250 47.333 C 14.069 47.333,14.000 47.148,14.000 46.661 C 14.000 46.218,13.915 45.957,13.750 45.894 C 13.607 45.839,13.500 45.590,13.500 45.316 C 13.500 44.998,13.415 44.833,13.250 44.833 C 13.065 44.833,13.000 44.639,13.000 44.083 C 13.000 43.528,12.935 43.333,12.750 43.333 C 12.569 43.333,12.500 43.148,12.500 42.661 C 12.500 42.218,12.415 41.957,12.250 41.894 C 12.112 41.841,12.000 41.628,12.000 41.420 C 12.000 41.130,11.879 41.017,11.479 40.938 C 10.867 40.815,2.680 40.821,2.375 40.944 M172.944 40.944 C 172.703 41.186,172.824 42.833,173.083 42.833 C 173.250 42.833,173.333 43.000,173.333 43.333 C 173.333 43.667,173.417 43.833,173.583 43.833 C 173.750 43.833,173.833 44.000,173.833 44.333 C 173.833 44.667,173.917 44.833,174.083 44.833 C 174.250 44.833,174.333 45.000,174.333 45.333 C 174.333 45.667,174.417 45.833,174.583 45.833 C 174.768 45.833,174.833 46.026,174.833 46.569 C 174.833 46.974,174.890 47.331,174.958 47.361 C 175.166 47.453,175.667 48.504,175.667 48.847 C 175.667 49.023,175.779 49.167,175.917 49.167 C 176.090 49.167,176.167 49.341,176.167 49.738 C 176.167 50.052,176.279 50.422,176.417 50.560 C 176.554 50.697,176.667 50.967,176.667 51.160 C 176.667 51.353,176.779 51.554,176.917 51.606 C 177.059 51.661,177.167 51.910,177.167 52.184 C 177.167 52.502,177.252 52.667,177.417 52.667 C 177.583 52.667,177.667 52.833,177.667 53.167 C 177.667 53.500,177.750 53.667,177.917 53.667 C 178.098 53.667,178.167 53.852,178.167 54.339 C 178.167 54.782,178.252 55.043,178.417 55.106 C 178.554 55.159,178.667 55.384,178.667 55.606 C 178.667 55.829,178.779 56.054,178.917 56.106 C 179.054 56.159,179.167 56.382,179.167 56.601 C 179.167 56.845,179.264 57.000,179.417 57.000 C 179.583 57.000,179.667 57.167,179.667 57.500 C 179.667 57.833,179.750 58.000,179.917 58.000 C 180.102 58.000,180.167 58.194,180.167 58.750 C 180.167 59.306,180.231 59.500,180.417 59.500 C 180.583 59.500,180.667 59.667,180.667 60.000 C 180.667 60.333,180.750 60.500,180.917 60.500 C 181.083 60.500,181.167 60.667,181.167 61.000 C 181.167 61.333,181.250 61.500,181.417 61.500 C 181.583 61.500,181.667 61.667,181.667 62.000 C 181.667 62.333,181.750 62.500,181.917 62.500 C 182.096 62.500,182.167 62.683,182.167 63.149 C 182.167 63.572,182.254 63.831,182.417 63.894 C 182.554 63.946,182.667 64.179,182.667 64.411 C 182.667 64.675,182.760 64.833,182.917 64.833 C 183.083 64.833,183.167 65.000,183.167 65.333 C 183.167 65.608,183.233 65.833,183.314 65.833 C 183.396 65.833,183.513 66.171,183.575 66.583 C 183.636 66.996,183.757 67.333,183.844 67.333 C 183.930 67.333,184.000 67.523,184.000 67.755 C 184.000 67.987,184.112 68.220,184.250 68.273 C 184.387 68.326,184.500 68.551,184.500 68.773 C 184.500 68.995,184.612 69.220,184.750 69.273 C 184.893 69.328,185.000 69.576,185.000 69.851 C 185.000 70.169,185.085 70.333,185.250 70.333 C 185.429 70.333,185.500 70.517,185.500 70.982 C 185.500 71.405,185.587 71.664,185.750 71.727 C 185.887 71.780,186.000 72.013,186.000 72.245 C 186.000 72.509,186.094 72.667,186.250 72.667 C 186.417 72.667,186.500 72.833,186.500 73.167 C 186.500 73.500,186.583 73.667,186.750 73.667 C 186.917 73.667,187.000 73.833,187.000 74.167 C 187.000 74.500,187.083 74.667,187.250 74.667 C 187.435 74.667,187.500 74.861,187.500 75.417 C 187.500 75.972,187.565 76.167,187.750 76.167 C 187.917 76.167,188.000 76.333,188.000 76.667 C 188.000 77.000,188.083 77.167,188.250 77.167 C 188.417 77.167,188.500 77.333,188.500 77.667 C 188.500 78.000,188.583 78.167,188.750 78.167 C 188.917 78.167,189.000 78.333,189.000 78.667 C 189.000 79.000,189.083 79.167,189.250 79.167 C 189.387 79.167,189.500 79.279,189.500 79.417 C 189.500 79.624,189.824 79.667,191.417 79.667 C 193.009 79.667,193.333 79.624,193.333 79.417 C 193.333 79.279,193.446 79.167,193.583 79.167 C 193.750 79.167,193.833 79.000,193.833 78.667 C 193.833 78.333,193.917 78.167,194.083 78.167 C 194.250 78.167,194.333 78.000,194.333 77.667 C 194.333 77.333,194.417 77.167,194.583 77.167 C 194.750 77.167,194.833 77.000,194.833 76.667 C 194.833 76.333,194.917 76.167,195.083 76.167 C 195.269 76.167,195.333 75.972,195.333 75.417 C 195.333 74.861,195.398 74.667,195.583 74.667 C 195.750 74.667,195.833 74.500,195.833 74.167 C 195.833 73.833,195.917 73.667,196.083 73.667 C 196.250 73.667,196.333 73.500,196.333 73.167 C 196.333 72.833,196.417 72.667,196.583 72.667 C 196.764 72.667,196.833 72.481,196.833 72.000 C 196.833 71.519,196.903 71.333,197.083 71.333 C 197.250 71.333,197.333 71.167,197.333 70.833 C 197.333 70.500,197.417 70.333,197.583 70.333 C 197.748 70.333,197.833 70.169,197.833 69.851 C 197.833 69.576,197.941 69.328,198.083 69.273 C 198.248 69.210,198.333 68.949,198.333 68.505 C 198.333 68.019,198.402 67.833,198.583 67.833 C 198.750 67.833,198.833 67.667,198.833 67.333 C 198.833 67.000,198.917 66.833,199.083 66.833 C 199.250 66.833,199.333 66.667,199.333 66.333 C 199.333 66.058,199.402 65.833,199.487 65.833 C 199.571 65.833,199.690 65.608,199.750 65.333 C 199.810 65.058,199.929 64.833,200.013 64.833 C 200.098 64.833,200.167 64.533,200.167 64.167 C 200.167 63.685,200.236 63.500,200.417 63.500 C 200.583 63.500,200.667 63.333,200.667 63.000 C 200.667 62.667,200.750 62.500,200.917 62.500 C 201.083 62.500,201.167 62.333,201.167 62.000 C 201.167 61.667,201.250 61.500,201.417 61.500 C 201.602 61.500,201.667 61.306,201.667 60.750 C 201.667 60.194,201.731 60.000,201.917 60.000 C 202.083 60.000,202.167 59.833,202.167 59.500 C 202.167 59.167,202.250 59.000,202.417 59.000 C 202.583 59.000,202.667 58.833,202.667 58.500 C 202.667 58.167,202.750 58.000,202.917 58.000 C 203.096 58.000,203.167 57.817,203.167 57.351 C 203.167 56.928,203.254 56.669,203.417 56.606 C 203.554 56.554,203.667 56.321,203.667 56.089 C 203.667 55.825,203.760 55.667,203.917 55.667 C 204.081 55.667,204.167 55.502,204.167 55.184 C 204.167 54.910,204.274 54.661,204.417 54.606 C 204.554 54.554,204.667 54.329,204.667 54.106 C 204.667 53.884,204.779 53.659,204.917 53.606 C 205.082 53.543,205.167 53.282,205.167 52.839 C 205.167 52.352,205.236 52.167,205.417 52.167 C 205.583 52.167,205.667 52.000,205.667 51.667 C 205.667 51.333,205.750 51.167,205.917 51.167 C 206.081 51.167,206.167 51.002,206.167 50.684 C 206.167 50.410,206.274 50.161,206.417 50.106 C 206.582 50.043,206.667 49.782,206.667 49.339 C 206.667 48.852,206.736 48.667,206.917 48.667 C 207.069 48.667,207.167 48.511,207.167 48.268 C 207.167 48.048,207.279 47.826,207.417 47.773 C 207.554 47.720,207.667 47.487,207.667 47.255 C 207.667 47.023,207.736 46.833,207.820 46.833 C 207.904 46.833,208.023 46.608,208.083 46.333 C 208.144 46.058,208.262 45.833,208.347 45.833 C 208.431 45.833,208.500 45.496,208.500 45.083 C 208.500 44.528,208.565 44.333,208.750 44.333 C 208.917 44.333,209.000 44.167,209.000 43.833 C 209.000 43.500,209.083 43.333,209.250 43.333 C 209.417 43.333,209.500 43.167,209.500 42.833 C 209.500 42.492,209.582 42.333,209.760 42.333 C 209.962 42.333,210.008 42.177,209.968 41.625 L 209.917 40.917 207.361 40.871 C 204.914 40.826,204.801 40.839,204.716 41.162 C 204.668 41.348,204.524 41.500,204.397 41.500 C 204.239 41.500,204.167 41.710,204.167 42.167 C 204.167 42.648,204.097 42.833,203.917 42.833 C 203.750 42.833,203.667 43.000,203.667 43.333 C 203.667 43.667,203.583 43.833,203.417 43.833 C 203.252 43.833,203.167 43.998,203.167 44.316 C 203.167 44.590,203.059 44.839,202.917 44.894 C 202.752 44.957,202.667 45.218,202.667 45.661 C 202.667 46.148,202.598 46.333,202.417 46.333 C 202.250 46.333,202.167 46.500,202.167 46.833 C 202.167 47.167,202.083 47.333,201.917 47.333 C 201.752 47.333,201.667 47.498,201.667 47.816 C 201.667 48.090,201.559 48.339,201.417 48.394 C 201.262 48.453,201.167 48.707,201.167 49.060 C 201.167 49.414,201.072 49.668,200.917 49.727 C 200.779 49.780,200.667 50.013,200.667 50.245 C 200.667 50.477,200.598 50.667,200.513 50.667 C 200.429 50.667,200.310 50.892,200.250 51.167 C 200.190 51.442,200.071 51.667,199.987 51.667 C 199.902 51.667,199.833 52.004,199.833 52.417 C 199.833 52.972,199.769 53.167,199.583 53.167 C 199.417 53.167,199.333 53.333,199.333 53.667 C 199.333 54.000,199.250 54.167,199.083 54.167 C 198.917 54.167,198.833 54.333,198.833 54.667 C 198.833 55.000,198.750 55.167,198.583 55.167 C 198.398 55.167,198.333 55.361,198.333 55.917 C 198.333 56.472,198.269 56.667,198.083 56.667 C 197.931 56.667,197.833 56.822,197.833 57.066 C 197.833 57.285,197.721 57.508,197.583 57.560 C 197.446 57.613,197.333 57.838,197.333 58.060 C 197.333 58.283,197.221 58.508,197.083 58.560 C 196.918 58.624,196.833 58.885,196.833 59.328 C 196.833 59.814,196.764 60.000,196.583 60.000 C 196.417 60.000,196.333 60.167,196.333 60.500 C 196.333 60.833,196.250 61.000,196.083 61.000 C 195.917 61.000,195.833 61.167,195.833 61.500 C 195.833 61.833,195.750 62.000,195.583 62.000 C 195.398 62.000,195.333 62.194,195.333 62.750 C 195.333 63.306,195.269 63.500,195.083 63.500 C 194.917 63.500,194.833 63.667,194.833 64.000 C 194.833 64.333,194.750 64.500,194.583 64.500 C 194.417 64.500,194.333 64.667,194.333 65.000 C 194.333 65.333,194.250 65.500,194.083 65.500 C 193.946 65.500,193.833 65.575,193.833 65.667 C 193.833 65.758,193.721 65.833,193.583 65.833 C 193.403 65.833,193.333 65.648,193.333 65.167 C 193.333 64.685,193.264 64.500,193.083 64.500 C 192.917 64.500,192.833 64.333,192.833 64.000 C 192.833 63.667,192.750 63.500,192.583 63.500 C 192.417 63.500,192.333 63.333,192.333 63.000 C 192.333 62.667,192.250 62.500,192.083 62.500 C 191.898 62.500,191.833 62.306,191.833 61.750 C 191.833 61.337,191.764 61.000,191.680 61.000 C 191.596 61.000,191.477 60.775,191.417 60.500 C 191.356 60.225,191.238 60.000,191.153 60.000 C 191.069 60.000,191.000 59.810,191.000 59.578 C 191.000 59.346,190.887 59.113,190.750 59.060 C 190.595 59.001,190.500 58.747,190.500 58.394 C 190.500 58.040,190.405 57.786,190.250 57.727 C 190.107 57.672,190.000 57.424,190.000 57.149 C 190.000 56.831,189.915 56.667,189.750 56.667 C 189.583 56.667,189.500 56.500,189.500 56.167 C 189.500 55.833,189.417 55.667,189.250 55.667 C 189.069 55.667,189.000 55.481,189.000 54.995 C 189.000 54.551,188.915 54.290,188.750 54.227 C 188.607 54.172,188.500 53.924,188.500 53.649 C 188.500 53.331,188.415 53.167,188.250 53.167 C 188.083 53.167,188.000 53.000,188.000 52.667 C 188.000 52.333,187.917 52.167,187.750 52.167 C 187.569 52.167,187.500 51.981,187.500 51.495 C 187.500 51.051,187.415 50.790,187.250 50.727 C 187.112 50.674,187.000 50.449,187.000 50.227 C 187.000 50.005,186.887 49.780,186.750 49.727 C 186.612 49.674,186.500 49.452,186.500 49.232 C 186.500 48.989,186.403 48.833,186.250 48.833 C 186.065 48.833,186.000 48.639,186.000 48.083 C 186.000 47.528,185.935 47.333,185.750 47.333 C 185.583 47.333,185.500 47.167,185.500 46.833 C 185.500 46.500,185.417 46.333,185.250 46.333 C 185.065 46.333,185.000 46.139,185.000 45.583 C 185.000 45.028,184.935 44.833,184.750 44.833 C 184.583 44.833,184.500 44.667,184.500 44.333 C 184.500 44.000,184.417 43.833,184.250 43.833 C 184.083 43.833,184.000 43.667,184.000 43.333 C 184.000 43.000,183.917 42.833,183.750 42.833 C 183.569 42.833,183.500 42.648,183.500 42.167 C 183.500 41.800,183.434 41.500,183.353 41.500 C 183.272 41.500,183.166 41.350,183.118 41.167 C 183.030 40.830,173.272 40.617,172.944 40.944 M66.000 50.417 C 66.000 50.611,65.778 50.667,65.000 50.667 C 64.222 50.667,64.000 50.722,64.000 50.917 C 64.000 51.102,63.806 51.167,63.250 51.167 C 62.694 51.167,62.500 51.231,62.500 51.417 C 62.500 51.583,62.333 51.667,62.000 51.667 C 61.667 51.667,61.500 51.750,61.500 51.917 C 61.500 52.083,61.333 52.167,61.000 52.167 C 60.667 52.167,60.500 52.250,60.500 52.417 C 60.500 52.561,60.349 52.667,60.144 52.667 C 59.784 52.667,58.167 54.158,58.167 54.491 C 58.167 54.587,58.054 54.667,57.917 54.667 C 57.779 54.667,57.667 54.779,57.667 54.917 C 57.667 55.054,57.554 55.167,57.417 55.167 C 57.279 55.167,57.167 55.279,57.167 55.417 C 57.167 55.554,57.054 55.667,56.917 55.667 C 56.779 55.667,56.667 55.779,56.667 55.917 C 56.667 56.054,56.554 56.167,56.417 56.167 C 56.264 56.167,56.167 56.322,56.167 56.566 C 56.167 56.785,56.054 57.008,55.917 57.060 C 55.779 57.113,55.667 57.271,55.667 57.411 C 55.667 57.552,55.554 57.667,55.417 57.667 C 55.264 57.667,55.167 57.822,55.167 58.066 C 55.167 58.285,55.054 58.508,54.917 58.560 C 54.752 58.624,54.667 58.885,54.667 59.328 C 54.667 59.814,54.598 60.000,54.417 60.000 C 54.217 60.000,54.167 60.250,54.167 61.250 C 54.167 62.250,54.117 62.500,53.917 62.500 C 53.705 62.500,53.667 62.907,53.667 65.167 C 53.667 67.426,53.705 67.833,53.917 67.833 C 54.111 67.833,54.167 68.056,54.167 68.833 C 54.167 69.611,54.222 69.833,54.417 69.833 C 54.598 69.833,54.667 70.019,54.667 70.505 C 54.667 70.949,54.752 71.210,54.917 71.273 C 55.059 71.328,55.167 71.576,55.167 71.851 C 55.167 72.169,55.252 72.333,55.417 72.333 C 55.572 72.333,55.667 72.491,55.667 72.750 C 55.667 73.009,55.761 73.167,55.917 73.167 C 56.054 73.167,56.167 73.279,56.167 73.417 C 56.167 73.554,56.279 73.667,56.417 73.667 C 56.583 73.667,56.667 73.833,56.667 74.167 C 56.667 74.500,56.750 74.667,56.917 74.667 C 57.054 74.667,57.167 74.779,57.167 74.917 C 57.167 75.054,57.279 75.167,57.417 75.167 C 57.554 75.167,57.667 75.279,57.667 75.417 C 57.667 75.554,57.779 75.667,57.917 75.667 C 58.054 75.667,58.167 75.779,58.167 75.917 C 58.167 76.054,58.279 76.167,58.417 76.167 C 58.554 76.167,58.667 76.279,58.667 76.417 C 58.667 76.572,58.824 76.667,59.083 76.667 C 59.343 76.667,59.500 76.761,59.500 76.917 C 59.500 77.054,59.604 77.167,59.732 77.167 C 59.860 77.167,60.008 77.279,60.060 77.417 C 60.113 77.554,60.346 77.667,60.578 77.667 C 60.842 77.667,61.000 77.760,61.000 77.917 C 61.000 78.083,61.167 78.167,61.500 78.167 C 61.833 78.167,62.000 78.250,62.000 78.417 C 62.000 78.581,62.165 78.667,62.482 78.667 C 62.757 78.667,63.006 78.774,63.060 78.917 C 63.130 79.097,63.412 79.167,64.078 79.167 C 64.786 79.167,65.000 79.225,65.000 79.417 C 65.000 79.632,65.593 79.667,69.339 79.667 C 73.041 79.667,73.691 79.630,73.773 79.417 C 73.842 79.237,74.123 79.167,74.768 79.167 C 75.456 79.167,75.667 79.108,75.667 78.917 C 75.667 78.750,75.833 78.667,76.167 78.667 C 76.500 78.667,76.667 78.583,76.667 78.417 C 76.667 78.250,76.833 78.167,77.167 78.167 C 77.500 78.167,77.667 78.083,77.667 77.917 C 77.667 77.750,77.833 77.667,78.167 77.667 C 78.500 77.667,78.667 77.583,78.667 77.417 C 78.667 77.260,78.825 77.167,79.089 77.167 C 79.321 77.167,79.554 77.054,79.606 76.917 C 79.659 76.779,79.807 76.667,79.934 76.667 C 80.062 76.667,80.167 76.554,80.167 76.417 C 80.167 76.279,80.279 76.167,80.417 76.167 C 80.554 76.167,80.667 76.054,80.667 75.917 C 80.667 75.779,80.779 75.667,80.917 75.667 C 81.054 75.667,81.167 75.554,81.167 75.417 C 81.167 75.279,81.279 75.167,81.417 75.167 C 81.554 75.167,81.667 75.054,81.667 74.917 C 81.667 74.779,81.779 74.667,81.917 74.667 C 82.054 74.667,82.167 74.554,82.167 74.417 C 82.167 74.279,82.234 74.167,82.315 74.167 C 82.397 74.167,82.513 73.973,82.572 73.736 C 82.631 73.499,82.865 73.134,83.090 72.925 C 83.316 72.716,83.500 72.393,83.500 72.207 C 83.500 72.021,83.612 71.826,83.750 71.773 C 83.915 71.710,84.000 71.449,84.000 71.005 C 84.000 70.519,84.069 70.333,84.250 70.333 C 84.435 70.333,84.500 70.139,84.500 69.583 C 84.500 69.028,84.565 68.833,84.750 68.833 C 84.965 68.833,85.000 68.315,85.000 65.167 C 85.000 62.019,84.965 61.500,84.750 61.500 C 84.556 61.500,84.500 61.278,84.500 60.500 C 84.500 59.722,84.444 59.500,84.250 59.500 C 84.083 59.500,84.000 59.333,84.000 59.000 C 84.000 58.667,83.917 58.500,83.750 58.500 C 83.583 58.500,83.500 58.333,83.500 58.000 C 83.500 57.725,83.433 57.500,83.351 57.500 C 83.270 57.500,83.156 57.313,83.098 57.083 C 83.041 56.854,82.920 56.667,82.830 56.667 C 82.740 56.667,82.667 56.554,82.667 56.417 C 82.667 56.279,82.554 56.167,82.417 56.167 C 82.279 56.167,82.167 56.020,82.167 55.841 C 82.167 55.382,80.479 53.667,80.029 53.667 C 79.818 53.667,79.667 53.562,79.667 53.417 C 79.667 53.279,79.554 53.167,79.417 53.167 C 79.279 53.167,79.167 53.054,79.167 52.917 C 79.167 52.779,79.062 52.667,78.934 52.667 C 78.807 52.667,78.659 52.554,78.606 52.417 C 78.554 52.279,78.329 52.167,78.106 52.167 C 77.884 52.167,77.659 52.054,77.606 51.917 C 77.554 51.779,77.329 51.667,77.106 51.667 C 76.884 51.667,76.659 51.554,76.606 51.417 C 76.544 51.253,76.284 51.167,75.856 51.167 C 75.429 51.167,75.169 51.080,75.106 50.917 C 75.035 50.730,74.738 50.667,73.940 50.667 C 73.142 50.667,72.845 50.603,72.773 50.417 C 72.692 50.206,72.152 50.167,69.339 50.167 C 66.482 50.167,66.000 50.203,66.000 50.417 M100.333 50.417 C 100.333 50.598,100.148 50.667,99.661 50.667 C 99.218 50.667,98.957 50.752,98.894 50.917 C 98.841 51.054,98.693 51.167,98.566 51.167 C 98.438 51.167,98.333 51.271,98.333 51.398 C 98.333 51.527,98.113 51.661,97.833 51.702 C 97.363 51.771,97.333 51.742,97.333 51.221 L 97.333 50.667 93.167 50.667 L 89.000 50.667 89.000 65.167 L 89.000 79.667 93.167 79.667 L 97.333 79.667 97.333 68.250 C 97.333 55.595,97.264 56.387,98.393 56.104 C 98.635 56.043,98.833 55.920,98.833 55.830 C 98.833 55.740,99.283 55.667,99.833 55.667 C 100.383 55.667,100.833 55.729,100.833 55.806 C 100.833 55.883,101.246 56.120,101.750 56.333 C 102.254 56.546,102.667 56.784,102.667 56.860 C 102.667 56.937,102.779 57.000,102.917 57.000 C 103.054 57.000,103.167 57.112,103.167 57.250 C 103.167 57.417,103.333 57.500,103.667 57.500 C 104.000 57.500,104.167 57.583,104.167 57.750 C 104.167 57.887,104.279 58.000,104.417 58.000 C 104.554 58.000,104.667 58.112,104.667 58.250 C 104.667 58.387,104.779 58.500,104.917 58.500 C 105.054 58.500,105.167 58.612,105.167 58.750 C 105.167 58.917,105.333 59.000,105.667 59.000 C 106.000 59.000,106.167 59.083,106.167 59.250 C 106.167 59.417,106.333 59.500,106.667 59.500 C 106.987 59.500,107.167 59.415,107.167 59.264 C 107.167 59.134,107.243 59.002,107.337 58.971 C 107.431 58.940,107.555 58.615,107.613 58.249 C 107.670 57.883,107.818 57.523,107.942 57.450 C 108.066 57.377,108.167 57.175,108.167 57.002 C 108.167 56.828,108.242 56.640,108.333 56.583 C 108.425 56.527,108.500 56.297,108.500 56.073 C 108.500 55.823,108.596 55.667,108.750 55.667 C 108.917 55.667,109.000 55.500,109.000 55.167 C 109.000 54.833,109.083 54.667,109.250 54.667 C 109.417 54.667,109.500 54.500,109.500 54.167 C 109.500 53.833,109.583 53.667,109.750 53.667 C 109.950 53.667,110.000 53.417,110.000 52.417 L 110.000 51.167 109.518 51.167 C 109.243 51.167,108.994 51.059,108.940 50.917 C 108.872 50.741,108.599 50.667,108.023 50.667 C 107.447 50.667,107.174 50.592,107.106 50.417 C 107.026 50.206,106.486 50.167,103.672 50.167 C 100.815 50.167,100.333 50.203,100.333 50.417 M231.667 50.417 C 231.667 50.611,231.444 50.667,230.667 50.667 C 229.889 50.667,229.667 50.722,229.667 50.917 C 229.667 51.098,229.481 51.167,228.995 51.167 C 228.551 51.167,228.290 51.252,228.227 51.417 C 228.174 51.554,227.949 51.667,227.727 51.667 C 227.505 51.667,227.280 51.779,227.227 51.917 C 227.174 52.054,227.027 52.167,226.899 52.167 C 226.771 52.167,226.667 52.279,226.667 52.417 C 226.667 52.572,226.509 52.667,226.250 52.667 C 225.991 52.667,225.833 52.761,225.833 52.917 C 225.833 53.054,225.721 53.167,225.583 53.167 C 225.446 53.167,225.333 53.279,225.333 53.417 C 225.333 53.554,225.221 53.667,225.083 53.667 C 224.946 53.667,224.833 53.779,224.833 53.917 C 224.833 54.054,224.721 54.167,224.583 54.167 C 224.417 54.167,224.333 54.333,224.333 54.667 C 224.333 55.000,224.250 55.167,224.083 55.167 C 223.917 55.167,223.833 55.333,223.833 55.667 C 223.833 56.000,223.750 56.167,223.583 56.167 C 223.391 56.167,223.333 56.380,223.333 57.083 C 223.333 57.787,223.275 58.000,223.083 58.000 C 222.883 58.000,222.833 58.250,222.833 59.250 C 222.833 60.250,222.883 60.500,223.083 60.500 C 223.282 60.500,223.333 60.741,223.333 61.672 C 223.333 62.560,223.394 62.867,223.583 62.940 C 223.721 62.992,223.833 63.207,223.833 63.417 C 223.833 63.626,223.946 63.841,224.083 63.894 C 224.221 63.946,224.333 64.104,224.333 64.245 C 224.333 64.385,224.403 64.500,224.487 64.500 C 224.687 64.500,225.667 65.479,225.667 65.679 C 225.667 65.764,225.771 65.833,225.899 65.833 C 226.027 65.833,226.174 65.946,226.227 66.083 C 226.280 66.221,226.513 66.333,226.745 66.333 C 227.009 66.333,227.167 66.427,227.167 66.583 C 227.167 66.750,227.333 66.833,227.667 66.833 C 228.000 66.833,228.167 66.917,228.167 67.083 C 228.167 67.250,228.333 67.333,228.667 67.333 C 229.000 67.333,229.167 67.417,229.167 67.583 C 229.167 67.750,229.333 67.833,229.667 67.833 C 230.000 67.833,230.167 67.917,230.167 68.083 C 230.167 68.269,230.361 68.333,230.917 68.333 C 231.472 68.333,231.667 68.398,231.667 68.583 C 231.667 68.750,231.833 68.833,232.167 68.833 C 232.500 68.833,232.667 68.917,232.667 69.083 C 232.667 69.263,232.850 69.333,233.316 69.333 C 233.738 69.333,233.998 69.420,234.060 69.583 C 234.113 69.721,234.346 69.833,234.578 69.833 C 234.842 69.833,235.000 69.927,235.000 70.083 C 235.000 70.221,235.104 70.333,235.232 70.333 C 235.360 70.333,235.508 70.446,235.560 70.583 C 235.613 70.721,235.846 70.833,236.078 70.833 C 236.342 70.833,236.500 70.927,236.500 71.083 C 236.500 71.221,236.612 71.333,236.750 71.333 C 236.906 71.333,237.000 71.491,237.000 71.755 C 237.000 71.987,237.112 72.220,237.250 72.273 C 237.413 72.336,237.500 72.595,237.500 73.023 C 237.500 73.451,237.413 73.710,237.250 73.773 C 237.112 73.826,237.000 74.011,237.000 74.184 C 237.000 74.518,236.449 75.167,236.167 75.167 C 236.075 75.167,236.000 75.279,236.000 75.417 C 236.000 75.583,235.833 75.667,235.500 75.667 C 235.167 75.667,235.000 75.750,235.000 75.917 C 235.000 76.119,234.731 76.167,233.578 76.167 C 232.468 76.167,232.135 76.112,232.060 75.917 C 231.998 75.755,231.740 75.667,231.333 75.667 C 230.926 75.667,230.668 75.578,230.606 75.417 C 230.554 75.279,230.353 75.167,230.160 75.167 C 229.967 75.167,229.697 75.054,229.560 74.917 C 229.422 74.779,229.165 74.667,228.988 74.667 C 228.811 74.667,228.667 74.554,228.667 74.417 C 228.667 74.279,228.554 74.167,228.417 74.167 C 228.279 74.167,228.167 74.100,228.167 74.018 C 228.167 73.936,227.964 73.819,227.717 73.757 C 227.469 73.694,227.098 73.461,226.891 73.238 C 226.685 73.016,226.437 72.833,226.341 72.833 C 226.245 72.833,226.167 72.721,226.167 72.583 C 226.167 72.446,226.054 72.333,225.917 72.333 C 225.750 72.333,225.667 72.167,225.667 71.833 C 225.667 71.361,225.630 71.333,225.000 71.333 C 224.519 71.333,224.333 71.403,224.333 71.583 C 224.333 71.721,224.221 71.833,224.083 71.833 C 223.917 71.833,223.833 72.000,223.833 72.333 C 223.833 72.667,223.750 72.833,223.583 72.833 C 223.403 72.833,223.333 73.019,223.333 73.500 C 223.333 73.981,223.264 74.167,223.083 74.167 C 222.917 74.167,222.833 74.333,222.833 74.667 C 222.833 75.000,222.750 75.167,222.583 75.167 C 222.417 75.167,222.333 75.333,222.333 75.667 C 222.333 76.000,222.250 76.167,222.083 76.167 C 221.917 76.167,221.833 76.333,221.833 76.667 C 221.833 77.000,221.917 77.167,222.083 77.167 C 222.221 77.167,222.333 77.279,222.333 77.417 C 222.333 77.554,222.446 77.667,222.583 77.667 C 222.721 77.667,222.833 77.779,222.833 77.917 C 222.833 78.102,223.028 78.167,223.583 78.167 C 224.139 78.167,224.333 78.231,224.333 78.417 C 224.333 78.583,224.500 78.667,224.833 78.667 C 225.167 78.667,225.333 78.750,225.333 78.917 C 225.333 79.096,225.517 79.167,225.982 79.167 C 226.405 79.167,226.664 79.254,226.727 79.417 C 226.796 79.596,227.077 79.667,227.727 79.667 C 228.377 79.667,228.658 79.737,228.727 79.917 C 228.809 80.130,229.459 80.167,233.161 80.167 C 236.907 80.167,237.500 80.132,237.500 79.917 C 237.500 79.728,237.702 79.667,238.321 79.667 C 238.829 79.667,239.238 79.571,239.393 79.417 C 239.530 79.279,239.801 79.167,239.993 79.167 C 240.186 79.167,240.387 79.054,240.440 78.917 C 240.492 78.779,240.715 78.667,240.934 78.667 C 241.178 78.667,241.333 78.569,241.333 78.417 C 241.333 78.279,241.446 78.167,241.583 78.167 C 241.721 78.167,241.833 78.054,241.833 77.917 C 241.833 77.779,241.946 77.667,242.083 77.667 C 242.221 77.667,242.333 77.554,242.333 77.417 C 242.333 77.279,242.446 77.167,242.583 77.167 C 242.721 77.167,242.833 77.054,242.833 76.917 C 242.833 76.779,242.946 76.667,243.083 76.667 C 243.221 76.667,243.333 76.554,243.333 76.417 C 243.333 76.279,243.446 76.167,243.583 76.167 C 243.750 76.167,243.833 76.000,243.833 75.667 C 243.833 75.333,243.917 75.167,244.083 75.167 C 244.250 75.167,244.333 75.000,244.333 74.667 C 244.333 74.333,244.417 74.167,244.583 74.167 C 244.769 74.167,244.833 73.972,244.833 73.417 C 244.833 72.861,244.898 72.667,245.083 72.667 C 245.293 72.667,245.333 72.315,245.333 70.500 C 245.333 68.685,245.293 68.333,245.083 68.333 C 244.898 68.333,244.833 68.139,244.833 67.583 C 244.833 67.028,244.769 66.833,244.583 66.833 C 244.417 66.833,244.333 66.667,244.333 66.333 C 244.333 66.000,244.250 65.833,244.083 65.833 C 243.946 65.833,243.833 65.721,243.833 65.583 C 243.833 65.446,243.721 65.333,243.583 65.333 C 243.428 65.333,243.333 65.176,243.333 64.917 C 243.333 64.565,243.256 64.500,242.833 64.500 C 242.500 64.500,242.333 64.417,242.333 64.250 C 242.333 64.112,242.221 64.000,242.083 64.000 C 241.946 64.000,241.833 63.887,241.833 63.750 C 241.833 63.612,241.721 63.500,241.583 63.500 C 241.446 63.500,241.333 63.387,241.333 63.250 C 241.333 63.097,241.178 63.000,240.934 63.000 C 240.715 63.000,240.492 62.887,240.440 62.750 C 240.387 62.612,240.154 62.500,239.922 62.500 C 239.658 62.500,239.500 62.406,239.500 62.250 C 239.500 62.085,239.335 62.000,239.018 62.000 C 238.743 62.000,238.494 61.893,238.440 61.750 C 238.376 61.585,238.115 61.500,237.672 61.500 C 237.186 61.500,237.000 61.431,237.000 61.250 C 237.000 61.083,236.833 61.000,236.500 61.000 C 236.167 61.000,236.000 60.917,236.000 60.750 C 236.000 60.565,235.806 60.500,235.250 60.500 C 234.694 60.500,234.500 60.435,234.500 60.250 C 234.500 60.071,234.317 60.000,233.851 60.000 C 233.428 60.000,233.169 59.913,233.106 59.750 C 233.054 59.612,232.863 59.500,232.682 59.500 C 232.502 59.500,232.108 59.275,231.806 59.000 C 231.505 58.725,231.126 58.500,230.963 58.500 C 230.758 58.500,230.667 58.371,230.667 58.083 C 230.667 57.824,230.572 57.667,230.417 57.667 C 229.883 57.667,230.107 56.404,230.756 55.756 C 231.079 55.432,231.417 55.167,231.506 55.167 C 231.594 55.167,231.667 55.054,231.667 54.917 C 231.667 54.736,231.852 54.667,232.333 54.667 C 232.815 54.667,233.000 54.597,233.000 54.417 C 233.000 54.217,233.248 54.167,234.232 54.167 C 235.174 54.167,235.487 54.226,235.560 54.417 C 235.623 54.580,235.883 54.667,236.310 54.667 C 236.738 54.667,236.998 54.753,237.060 54.917 C 237.113 55.054,237.346 55.167,237.578 55.167 C 237.842 55.167,238.000 55.260,238.000 55.417 C 238.000 55.583,238.167 55.667,238.500 55.667 C 238.833 55.667,239.000 55.750,239.000 55.917 C 239.000 56.054,239.085 56.167,239.189 56.167 C 239.293 56.167,239.552 56.354,239.765 56.583 C 239.982 56.818,240.337 57.000,240.575 57.000 C 240.842 57.000,241.000 57.093,241.000 57.250 C 241.000 57.387,241.112 57.500,241.250 57.500 C 241.387 57.500,241.500 57.612,241.500 57.750 C 241.500 57.906,241.657 58.000,241.917 58.000 C 242.176 58.000,242.333 57.906,242.333 57.750 C 242.333 57.612,242.446 57.500,242.583 57.500 C 242.750 57.500,242.833 57.333,242.833 57.000 C 242.833 56.667,242.917 56.500,243.083 56.500 C 243.264 56.500,243.333 56.315,243.333 55.833 C 243.333 55.352,243.403 55.167,243.583 55.167 C 243.750 55.167,243.833 55.000,243.833 54.667 C 243.833 54.333,243.917 54.167,244.083 54.167 C 244.278 54.167,244.333 53.944,244.333 53.167 L 244.333 52.167 243.833 52.167 C 243.500 52.167,243.333 52.083,243.333 51.917 C 243.333 51.731,243.139 51.667,242.583 51.667 C 242.028 51.667,241.833 51.602,241.833 51.417 C 241.833 51.237,241.650 51.167,241.187 51.167 C 240.816 51.167,240.452 51.060,240.333 50.917 C 240.191 50.746,239.812 50.667,239.134 50.667 C 238.475 50.667,238.059 50.583,237.893 50.417 C 237.689 50.213,237.089 50.167,234.655 50.167 C 232.110 50.167,231.667 50.204,231.667 50.417 M274.333 50.417 C 274.333 50.611,274.111 50.667,273.333 50.667 C 272.556 50.667,272.333 50.722,272.333 50.917 C 272.333 51.102,272.139 51.167,271.583 51.167 C 271.028 51.167,270.833 51.231,270.833 51.417 C 270.833 51.583,270.667 51.667,270.333 51.667 C 270.000 51.667,269.833 51.750,269.833 51.917 C 269.833 52.083,269.667 52.167,269.333 52.167 C 269.000 52.167,268.833 52.250,268.833 52.417 C 268.833 52.555,268.685 52.667,268.501 52.667 C 268.152 52.667,266.500 54.167,266.500 54.483 C 266.500 54.584,266.387 54.667,266.250 54.667 C 266.112 54.667,266.000 54.779,266.000 54.917 C 266.000 55.054,265.887 55.167,265.750 55.167 C 265.612 55.167,265.500 55.279,265.500 55.417 C 265.500 55.554,265.387 55.667,265.250 55.667 C 265.112 55.667,265.000 55.779,265.000 55.917 C 265.000 56.054,264.887 56.167,264.750 56.167 C 264.594 56.167,264.500 56.325,264.500 56.589 C 264.500 56.821,264.387 57.054,264.250 57.106 C 264.112 57.159,264.000 57.307,264.000 57.434 C 264.000 57.562,263.887 57.667,263.750 57.667 C 263.569 57.667,263.500 57.852,263.500 58.333 C 263.500 58.815,263.431 59.000,263.250 59.000 C 263.085 59.000,263.000 59.165,263.000 59.482 C 263.000 59.757,262.893 60.006,262.750 60.060 C 262.561 60.133,262.500 60.440,262.500 61.328 C 262.500 62.259,262.449 62.500,262.250 62.500 C 262.039 62.500,262.000 62.880,262.000 64.917 C 262.000 66.954,262.039 67.333,262.250 67.333 C 262.450 67.333,262.500 67.583,262.500 68.583 C 262.500 69.583,262.550 69.833,262.750 69.833 C 262.931 69.833,263.000 70.019,263.000 70.505 C 263.000 70.949,263.085 71.210,263.250 71.273 C 263.387 71.326,263.500 71.551,263.500 71.773 C 263.500 71.995,263.612 72.220,263.750 72.273 C 263.887 72.326,264.000 72.548,264.000 72.768 C 264.000 73.011,264.097 73.167,264.250 73.167 C 264.387 73.167,264.500 73.279,264.500 73.417 C 264.500 73.554,264.612 73.667,264.750 73.667 C 264.917 73.667,265.000 73.833,265.000 74.167 C 265.000 74.500,265.083 74.667,265.250 74.667 C 265.387 74.667,265.500 74.779,265.500 74.917 C 265.500 75.054,265.612 75.167,265.750 75.167 C 265.887 75.167,266.000 75.279,266.000 75.417 C 266.000 75.554,266.112 75.667,266.250 75.667 C 266.387 75.667,266.500 75.779,266.500 75.917 C 266.500 76.054,266.612 76.167,266.750 76.167 C 266.887 76.167,267.000 76.279,267.000 76.417 C 267.000 76.572,267.157 76.667,267.417 76.667 C 267.676 76.667,267.833 76.761,267.833 76.917 C 267.833 77.054,267.938 77.167,268.066 77.167 C 268.193 77.167,268.341 77.279,268.394 77.417 C 268.446 77.554,268.679 77.667,268.911 77.667 C 269.175 77.667,269.333 77.760,269.333 77.917 C 269.333 78.083,269.500 78.167,269.833 78.167 C 270.167 78.167,270.333 78.250,270.333 78.417 C 270.333 78.581,270.498 78.667,270.816 78.667 C 271.090 78.667,271.339 78.774,271.394 78.917 C 271.463 79.097,271.746 79.167,272.411 79.167 C 273.120 79.167,273.333 79.225,273.333 79.417 C 273.333 79.632,273.927 79.667,277.672 79.667 C 281.375 79.667,282.025 79.630,282.106 79.417 C 282.175 79.237,282.456 79.167,283.101 79.167 C 283.789 79.167,284.000 79.108,284.000 78.917 C 284.000 78.750,284.167 78.667,284.500 78.667 C 284.833 78.667,285.000 78.583,285.000 78.417 C 285.000 78.236,285.186 78.167,285.672 78.167 C 286.115 78.167,286.376 78.082,286.440 77.917 C 286.492 77.779,286.640 77.667,286.768 77.667 C 286.896 77.667,287.000 77.554,287.000 77.417 C 287.000 77.260,287.158 77.167,287.422 77.167 C 287.654 77.167,287.887 77.054,287.940 76.917 C 287.992 76.779,288.140 76.667,288.268 76.667 C 288.396 76.667,288.500 76.554,288.500 76.417 C 288.500 76.279,288.612 76.167,288.750 76.167 C 288.887 76.167,289.000 76.054,289.000 75.917 C 289.000 75.779,289.112 75.667,289.250 75.667 C 289.387 75.667,289.500 75.554,289.500 75.417 C 289.500 75.279,289.612 75.167,289.750 75.167 C 289.887 75.167,290.000 75.054,290.000 74.917 C 290.000 74.779,290.112 74.667,290.250 74.667 C 290.387 74.667,290.500 74.562,290.500 74.434 C 290.500 74.307,290.612 74.159,290.750 74.106 C 290.887 74.054,291.000 73.821,291.000 73.589 C 291.000 73.325,291.094 73.167,291.250 73.167 C 291.387 73.167,291.500 73.054,291.500 72.917 C 291.500 72.779,291.575 72.667,291.667 72.667 C 291.758 72.667,291.833 72.479,291.833 72.250 C 291.833 71.991,291.928 71.833,292.083 71.833 C 292.269 71.833,292.333 71.639,292.333 71.083 C 292.333 70.528,292.398 70.333,292.583 70.333 C 292.769 70.333,292.833 70.139,292.833 69.583 C 292.833 69.028,292.898 68.833,293.083 68.833 C 293.298 68.833,293.333 68.287,293.333 64.917 C 293.333 61.546,293.298 61.000,293.083 61.000 C 292.898 61.000,292.833 60.806,292.833 60.250 C 292.833 59.694,292.769 59.500,292.583 59.500 C 292.417 59.500,292.333 59.333,292.333 59.000 C 292.333 58.667,292.250 58.500,292.083 58.500 C 291.917 58.500,291.833 58.333,291.833 58.000 C 291.833 57.725,291.766 57.500,291.685 57.500 C 291.603 57.500,291.489 57.313,291.432 57.083 C 291.374 56.854,291.253 56.667,291.163 56.667 C 291.074 56.667,291.000 56.554,291.000 56.417 C 291.000 56.279,290.887 56.167,290.750 56.167 C 290.612 56.167,290.500 56.022,290.500 55.845 C 290.500 55.668,290.387 55.411,290.250 55.274 C 290.112 55.136,290.000 54.943,290.000 54.845 C 290.000 54.747,289.887 54.667,289.750 54.667 C 289.612 54.667,289.500 54.554,289.500 54.417 C 289.500 54.279,289.406 54.163,289.292 54.160 C 289.177 54.156,288.899 53.931,288.674 53.660 C 288.439 53.375,288.104 53.167,287.883 53.167 C 287.654 53.167,287.500 53.066,287.500 52.917 C 287.500 52.779,287.396 52.667,287.268 52.667 C 287.140 52.667,286.992 52.554,286.940 52.417 C 286.887 52.279,286.654 52.167,286.422 52.167 C 286.158 52.167,286.000 52.073,286.000 51.917 C 286.000 51.752,285.835 51.667,285.518 51.667 C 285.243 51.667,284.994 51.559,284.940 51.417 C 284.876 51.252,284.615 51.167,284.172 51.167 C 283.686 51.167,283.500 51.098,283.500 50.917 C 283.500 50.719,283.261 50.667,282.351 50.667 C 281.484 50.667,281.179 50.605,281.106 50.417 C 281.026 50.206,280.486 50.167,277.672 50.167 C 274.815 50.167,274.333 50.203,274.333 50.417 M310.607 50.417 C 310.470 50.554,310.097 50.667,309.780 50.667 C 309.420 50.667,309.166 50.761,309.106 50.917 C 309.054 51.054,308.821 51.167,308.589 51.167 C 308.325 51.167,308.167 51.260,308.167 51.417 C 308.167 51.583,308.000 51.667,307.667 51.667 C 307.333 51.667,307.167 51.750,307.167 51.917 C 307.167 52.083,307.000 52.167,306.667 52.167 C 306.333 52.167,306.167 52.250,306.167 52.417 C 306.167 52.554,306.054 52.667,305.917 52.667 C 305.722 52.667,305.667 52.444,305.667 51.667 L 305.667 50.667 301.500 50.667 L 297.333 50.667 297.333 65.167 L 297.333 79.667 301.750 79.667 L 306.167 79.667 306.174 68.375 L 306.181 57.083 306.700 56.667 C 306.986 56.438,307.358 56.119,307.527 55.958 C 307.695 55.798,307.948 55.667,308.089 55.667 C 308.229 55.667,308.387 55.554,308.440 55.417 C 308.492 55.279,308.717 55.167,308.940 55.167 C 309.162 55.167,309.387 55.054,309.440 54.917 C 309.494 54.774,309.743 54.667,310.018 54.667 C 310.335 54.667,310.500 54.581,310.500 54.417 C 310.500 54.213,310.778 54.167,312.000 54.167 C 313.222 54.167,313.500 54.213,313.500 54.417 C 313.500 54.602,313.694 54.667,314.250 54.667 C 314.806 54.667,315.000 54.731,315.000 54.917 C 315.000 55.054,315.112 55.167,315.250 55.167 C 315.387 55.167,315.500 55.279,315.500 55.417 C 315.500 55.554,315.580 55.667,315.678 55.667 C 315.979 55.667,317.333 57.188,317.333 57.526 C 317.333 57.701,317.446 57.887,317.583 57.940 C 317.726 57.994,317.833 58.243,317.833 58.518 C 317.833 58.835,317.919 59.000,318.083 59.000 C 318.278 59.000,318.333 59.222,318.333 60.000 C 318.333 60.778,318.389 61.000,318.583 61.000 C 318.803 61.000,318.833 62.148,318.833 70.333 L 318.833 79.667 323.250 79.667 L 327.667 79.667 327.667 70.583 C 327.667 62.620,327.636 61.500,327.417 61.500 C 327.214 61.500,327.167 61.231,327.167 60.078 C 327.167 58.968,327.112 58.635,326.917 58.560 C 326.754 58.498,326.667 58.238,326.667 57.816 C 326.667 57.350,326.596 57.167,326.417 57.167 C 326.250 57.167,326.167 57.000,326.167 56.667 C 326.167 56.333,326.083 56.167,325.917 56.167 C 325.779 56.167,325.667 56.054,325.667 55.917 C 325.667 55.779,325.554 55.667,325.417 55.667 C 325.260 55.667,325.167 55.508,325.167 55.242 C 325.167 55.003,324.984 54.648,324.750 54.431 C 324.521 54.219,324.333 53.960,324.333 53.856 C 324.333 53.752,324.221 53.667,324.083 53.667 C 323.946 53.667,323.833 53.554,323.833 53.417 C 323.833 53.279,323.721 53.167,323.583 53.167 C 323.446 53.167,323.333 53.054,323.333 52.917 C 323.333 52.779,323.229 52.667,323.101 52.667 C 322.973 52.667,322.826 52.554,322.773 52.417 C 322.720 52.279,322.487 52.167,322.255 52.167 C 321.991 52.167,321.833 52.073,321.833 51.917 C 321.833 51.750,321.667 51.667,321.333 51.667 C 321.000 51.667,320.833 51.583,320.833 51.417 C 320.833 51.250,320.667 51.167,320.333 51.167 C 320.000 51.167,319.833 51.083,319.833 50.917 C 319.833 50.722,319.611 50.667,318.833 50.667 C 318.056 50.667,317.833 50.611,317.833 50.417 C 317.833 50.202,317.335 50.167,314.345 50.167 C 311.467 50.167,310.813 50.210,310.607 50.417 M210.500 65.167 L 210.500 79.667 214.917 79.667 L 219.333 79.667 219.333 65.167 L 219.333 50.667 214.917 50.667 L 210.500 50.667 210.500 65.167 M249.333 65.164 L 249.333 79.667 253.663 79.667 L 257.994 79.667 258.084 79.292 C 258.134 79.085,258.154 72.579,258.129 64.833 L 258.083 50.750 253.708 50.706 L 249.333 50.661 249.333 65.164 M71.333 54.431 C 71.333 54.582,71.514 54.667,71.833 54.667 C 72.167 54.667,72.333 54.750,72.333 54.917 C 72.333 55.054,72.446 55.167,72.583 55.167 C 72.721 55.167,72.833 55.279,72.833 55.417 C 72.833 55.554,72.946 55.667,73.083 55.667 C 73.221 55.667,73.333 55.779,73.333 55.917 C 73.333 56.054,73.446 56.167,73.583 56.167 C 73.721 56.167,73.833 56.279,73.833 56.417 C 73.833 56.554,73.946 56.667,74.083 56.667 C 74.239 56.667,74.333 56.824,74.333 57.083 C 74.333 57.343,74.428 57.500,74.583 57.500 C 74.769 57.500,74.833 57.694,74.833 58.250 C 74.833 58.663,74.908 59.000,75.000 59.000 C 75.092 59.000,75.167 59.257,75.167 59.571 C 75.167 59.886,75.279 60.255,75.417 60.393 C 75.741 60.717,75.796 69.262,75.475 69.370 C 75.369 69.405,75.247 69.861,75.204 70.383 C 75.161 70.906,75.060 71.333,74.979 71.333 C 74.899 71.333,74.833 71.558,74.833 71.833 C 74.833 72.167,74.750 72.333,74.583 72.333 C 74.417 72.333,74.333 72.500,74.333 72.833 C 74.333 73.167,74.250 73.333,74.083 73.333 C 73.946 73.333,73.833 73.446,73.833 73.583 C 73.833 73.721,73.758 73.833,73.667 73.833 C 73.575 73.833,73.200 74.133,72.833 74.500 C 72.467 74.867,72.092 75.167,72.000 75.167 C 71.908 75.167,71.833 75.279,71.833 75.417 C 71.833 75.598,71.648 75.667,71.161 75.667 C 70.718 75.667,70.457 75.752,70.394 75.917 C 70.323 76.100,70.035 76.167,69.316 76.167 C 68.554 76.167,68.333 76.111,68.333 75.917 C 68.333 75.731,68.139 75.667,67.583 75.667 C 67.028 75.667,66.833 75.602,66.833 75.417 C 66.833 75.279,66.721 75.167,66.583 75.167 C 66.446 75.167,66.333 75.083,66.333 74.980 C 66.333 74.878,66.033 74.503,65.667 74.147 C 65.300 73.792,65.000 73.385,65.000 73.245 C 65.000 73.104,64.887 72.946,64.750 72.894 C 64.612 72.841,64.500 72.616,64.500 72.394 C 64.500 72.171,64.387 71.946,64.250 71.894 C 64.107 71.839,64.000 71.590,64.000 71.316 C 64.000 70.998,63.915 70.833,63.750 70.833 C 63.551 70.833,63.500 70.592,63.500 69.661 C 63.500 68.773,63.439 68.466,63.250 68.394 C 63.039 68.313,63.000 67.766,63.000 64.899 C 63.000 61.989,63.036 61.500,63.250 61.500 C 63.444 61.500,63.500 61.278,63.500 60.500 C 63.500 59.722,63.556 59.500,63.750 59.500 C 63.935 59.500,64.000 59.306,64.000 58.750 C 64.000 58.194,64.065 58.000,64.250 58.000 C 64.417 58.000,64.500 57.833,64.500 57.500 C 64.500 57.167,64.583 57.000,64.750 57.000 C 64.887 57.000,65.000 56.854,65.000 56.675 C 65.000 56.252,66.585 54.667,67.008 54.667 C 67.187 54.667,67.333 54.558,67.333 54.425 C 67.333 54.244,67.598 54.170,68.375 54.133 C 70.152 54.048,71.333 54.167,71.333 54.431 M279.667 54.431 C 279.667 54.582,279.847 54.667,280.167 54.667 C 280.500 54.667,280.667 54.750,280.667 54.917 C 280.667 55.054,280.779 55.167,280.917 55.167 C 281.054 55.167,281.167 55.279,281.167 55.417 C 281.167 55.554,281.242 55.667,281.333 55.667 C 281.549 55.667,282.167 56.284,282.167 56.500 C 282.167 56.592,282.279 56.667,282.417 56.667 C 282.572 56.667,282.667 56.824,282.667 57.083 C 282.667 57.343,282.761 57.500,282.917 57.500 C 283.102 57.500,283.167 57.694,283.167 58.250 C 283.167 58.663,283.232 59.000,283.311 59.000 C 283.391 59.000,283.499 59.317,283.551 59.705 C 283.603 60.092,283.725 60.436,283.823 60.469 C 283.936 60.506,284.000 61.307,284.000 62.681 C 284.000 64.527,284.037 64.833,284.262 64.833 C 284.500 64.833,284.500 64.857,284.262 65.095 C 284.053 65.304,284.000 65.759,284.000 67.331 C 284.000 68.560,283.934 69.328,283.825 69.364 C 283.729 69.396,283.606 69.852,283.552 70.378 C 283.498 70.903,283.389 71.333,283.310 71.333 C 283.231 71.333,283.167 71.558,283.167 71.833 C 283.167 72.167,283.083 72.333,282.917 72.333 C 282.750 72.333,282.667 72.500,282.667 72.833 C 282.667 73.167,282.583 73.333,282.417 73.333 C 282.279 73.333,282.167 73.446,282.167 73.583 C 282.167 73.721,282.054 73.833,281.917 73.833 C 281.761 73.833,281.667 73.991,281.667 74.250 C 281.667 74.585,281.584 74.667,281.245 74.667 C 281.013 74.667,280.780 74.779,280.727 74.917 C 280.674 75.054,280.527 75.167,280.399 75.167 C 280.271 75.167,280.167 75.279,280.167 75.417 C 280.167 75.598,279.981 75.667,279.495 75.667 C 279.051 75.667,278.790 75.752,278.727 75.917 C 278.657 76.100,278.368 76.167,277.649 76.167 C 276.887 76.167,276.667 76.111,276.667 75.917 C 276.667 75.752,276.502 75.667,276.184 75.667 C 275.910 75.667,275.661 75.559,275.606 75.417 C 275.554 75.279,275.389 75.167,275.240 75.167 C 274.869 75.167,273.333 73.543,273.333 73.151 C 273.333 72.976,273.221 72.833,273.083 72.833 C 272.917 72.833,272.833 72.667,272.833 72.333 C 272.833 72.000,272.750 71.833,272.583 71.833 C 272.402 71.833,272.333 71.648,272.333 71.161 C 272.333 70.718,272.248 70.457,272.083 70.394 C 271.900 70.323,271.833 70.035,271.833 69.316 C 271.833 68.554,271.777 68.333,271.583 68.333 C 271.369 68.333,271.333 67.843,271.333 64.917 C 271.333 61.991,271.369 61.500,271.583 61.500 C 271.778 61.500,271.833 61.278,271.833 60.500 C 271.833 59.722,271.889 59.500,272.083 59.500 C 272.269 59.500,272.333 59.306,272.333 58.750 C 272.333 58.194,272.398 58.000,272.583 58.000 C 272.750 58.000,272.833 57.833,272.833 57.500 C 272.833 57.167,272.917 57.000,273.083 57.000 C 273.221 57.000,273.333 56.896,273.333 56.768 C 273.333 56.640,273.446 56.492,273.583 56.440 C 273.721 56.387,273.833 56.229,273.833 56.089 C 273.833 55.759,274.426 55.167,274.755 55.167 C 274.896 55.167,275.054 55.054,275.106 54.917 C 275.159 54.779,275.307 54.667,275.434 54.667 C 275.562 54.667,275.667 54.558,275.667 54.425 C 275.667 54.244,275.932 54.170,276.708 54.133 C 278.486 54.048,279.667 54.167,279.667 54.431 M143.333 54.417 C 143.333 54.581,143.498 54.667,143.816 54.667 C 144.090 54.667,144.339 54.774,144.394 54.917 C 144.446 55.054,144.671 55.167,144.894 55.167 C 145.116 55.167,145.341 55.279,145.394 55.417 C 145.446 55.554,145.679 55.667,145.911 55.667 C 146.175 55.667,146.333 55.760,146.333 55.917 C 146.333 56.054,146.412 56.167,146.508 56.167 C 146.604 56.167,146.856 56.354,147.069 56.583 C 147.281 56.813,147.541 57.000,147.646 57.000 C 147.787 57.000,147.825 59.109,147.793 65.125 L 147.750 73.250 147.337 73.308 C 147.110 73.340,146.757 73.546,146.553 73.767 C 146.349 73.987,146.104 74.167,146.008 74.167 C 145.912 74.167,145.833 74.279,145.833 74.417 C 145.833 74.573,145.675 74.667,145.411 74.667 C 145.179 74.667,144.946 74.779,144.894 74.917 C 144.841 75.054,144.616 75.167,144.394 75.167 C 144.171 75.167,143.946 75.279,143.894 75.417 C 143.825 75.596,143.544 75.667,142.899 75.667 C 142.211 75.667,142.000 75.725,142.000 75.917 C 142.000 76.081,141.835 76.167,141.518 76.167 C 141.243 76.167,140.994 76.059,140.940 75.917 C 140.877 75.753,140.617 75.667,140.190 75.667 C 139.762 75.667,139.502 75.580,139.440 75.417 C 139.387 75.279,139.162 75.167,138.940 75.167 C 138.717 75.167,138.492 75.054,138.440 74.917 C 138.387 74.779,138.154 74.667,137.922 74.667 C 137.658 74.667,137.500 74.573,137.500 74.417 C 137.500 74.279,137.430 74.167,137.345 74.167 C 137.032 74.167,136.000 73.033,136.000 72.689 C 136.000 72.484,135.894 72.333,135.750 72.333 C 135.583 72.333,135.500 72.167,135.500 71.833 C 135.500 71.500,135.417 71.333,135.250 71.333 C 135.083 71.333,135.000 71.167,135.000 70.833 C 135.000 70.500,134.917 70.333,134.750 70.333 C 134.556 70.333,134.500 70.111,134.500 69.333 C 134.500 68.556,134.444 68.333,134.250 68.333 C 134.037 68.333,134.000 67.898,134.000 65.417 C 134.000 62.935,134.037 62.500,134.250 62.500 C 134.444 62.500,134.500 62.278,134.500 61.500 C 134.500 60.722,134.556 60.500,134.750 60.500 C 134.935 60.500,135.000 60.306,135.000 59.750 C 135.000 59.194,135.065 59.000,135.250 59.000 C 135.387 59.000,135.500 58.887,135.500 58.750 C 135.500 58.612,135.612 58.500,135.750 58.500 C 135.917 58.500,136.000 58.333,136.000 58.000 C 136.000 57.667,136.083 57.500,136.250 57.500 C 136.387 57.500,136.500 57.387,136.500 57.250 C 136.500 57.112,136.612 57.000,136.750 57.000 C 136.903 57.000,137.000 56.845,137.000 56.601 C 137.000 56.307,137.118 56.173,137.450 56.090 C 137.697 56.028,138.069 55.795,138.275 55.572 C 138.482 55.349,138.729 55.167,138.825 55.167 C 138.921 55.167,139.000 55.054,139.000 54.917 C 139.000 54.737,139.183 54.667,139.649 54.667 C 140.072 54.667,140.331 54.580,140.394 54.417 C 140.469 54.221,140.801 54.167,141.911 54.167 C 143.064 54.167,143.333 54.214,143.333 54.417 " stroke="none" fill="#040404" fill-rule="evenodd"></path><path id="path3" d="" stroke="none" fill="#408480" fill-rule="evenodd"></path><path id="path4" d="" stroke="none" fill="#400484" fill-rule="evenodd"></path></g></svg>